<svg viewBox="0 0 500 500" xmlns="http://www.w3.org/2000/svg">
<path d="M2.515548,139.59482 L6.7524104,141.18167 L10.212306,141.5447 L12.961434,141.6724 L15.195639,141.71419 L17.18034,141.73584 L19.199478,141.75096 L21.513472,141.72864 L24.326172,141.59444 L27.76084,141.2049 L31.84513,139.59482 L30.063507,137.63434 L27.632257,136.67003 L24.57904,135.95135 L21.027117,135.48701 L17.18034,135.31274 L13.299124,135.45024 L9.667411,135.89511 L6.550623,136.62029 L4.1446023,137.61111 L2.515548,139.59482" fill="rgb(100,100,100)"/>
<path d="M17.18707,141.21265 L19.229908,142.38655 L20.89756,142.65926 L22.22419,142.76149 L23.309101,142.80342 L24.285353,142.83221 L25.2935,142.8554 L26.460382,142.84705 L27.882833,142.7488 L29.616215,142.45052 L31.66765,141.21265 L30.757704,139.70973 L29.521742,138.97668 L27.980059,138.43631 L26.199505,138.0936 L24.285353,137.97353 L22.368954,138.08994 L20.591263,138.43677 L19.082376,138.99095 L17.937155,139.73856 L17.18707,141.21265" fill="rgb(100,100,100)"/>
<path d="M22.504229,135.64989 L26.321022,136.43312 L29.437881,136.6123 L31.914444,136.67534 L33.927135,136.69597 L35.71506,136.70665 L37.534008,136.71411 L39.618576,136.7031 L42.15241,136.63686 L45.24654,136.44458 L48.92589,135.64989 L47.320908,134.68222 L45.130707,134.20627 L42.380207,133.85155 L39.180443,133.62234 L35.71506,133.53633 L32.21865,133.6042 L28.947012,133.82378 L26.13924,134.1817 L23.97177,134.67076 L22.504229,135.64989" fill="rgb(100,100,100)"/>
<path d="M22.260191,136.28569 L23.550049,137.85 L25.455095,138.63136 L27.922916,139.20322 L30.798447,139.55403 L33.87153,139.66246 L36.917343,139.52502 L39.729694,139.15886 L42.147182,138.59212 L44.072205,137.8317 L45.482864,136.28569 L42.24899,135.01602 L39.529476,134.70883 L37.30243,134.603 L35.47025,134.5854 L33.87153,134.59732 L32.300076,134.6144 L30.531069,134.64735 L28.354355,134.74806 L25.614868,135.03433 L22.260191,136.28569" fill="rgb(100,100,100)"/>
<path d="M21.714737,128.92876 L24.991177,130.07533 L27.666021,130.34097 L29.79345,130.43953 L31.531384,130.47864 L33.091827,130.50462 L34.699207,130.52525 L36.5566,130.51573 L38.819717,130.4196 L41.578472,130.12996 L44.846012,128.92876 L43.400642,127.46966 L41.435917,126.75699 L38.98247,126.23066 L36.14547,125.89579 L33.091827,125.77703 L30.030617,125.888275 L27.186792,126.22407 L24.768425,126.762375 L22.927542,127.49011 L21.714737,128.92876" fill="rgb(100,100,100)"/>
<path d="M14.644459,130.41231 L15.18084,130.96358 L15.85523,131.24594 L16.6894,131.4873 L17.7208,131.69232 L18.976841,131.84563 L20.459625,131.9234 L22.139502,131.89862 L23.955809,131.74196 L25.823156,131.40656 L27.641607,130.41231 L25.865046,129.41197 L24.015953,129.06659 L22.195269,128.89978 L20.492872,128.86732 L18.976841,128.9418 L17.6863,129.09712 L16.629477,129.30914 L15.788618,129.56088 L15.133399,129.85414 L14.644459,130.41231" fill="rgb(100,100,100)"/>
<path d="M17.50461,124.60092 L21.00127,126.6988 L24.242994,127.324104 L27.195318,127.57475 L29.801462,127.56881 L32.023586,127.37775 L33.86682,127.06277 L35.388786,126.67362 L36.697346,126.236725 L37.939342,125.72687 L39.283073,124.60092 L37.939342,123.474976 L36.697346,122.96512 L35.388786,122.52822 L33.86682,122.13908 L32.023586,121.8241 L29.801462,121.63303 L27.195318,121.62709 L24.242994,121.87774 L21.00127,122.503044 L17.50461,124.60092" fill="rgb(100,100,100)"/>
<path d="M26.23192,124.73742 L26.805168,125.853065 L27.553926,126.43356 L28.501131,126.931076 L29.684162,127.35144 L31.12731,127.66181 L32.825798,127.81395 L34.739567,127.75475 L36.79494,127.42762 L38.89232,126.741745 L40.91809,124.73742 L38.881664,122.73585 L36.77964,122.05449 L34.72538,121.73195 L32.81734,121.676216 L31.12731,121.82984 L29.69294,122.1393 L28.516375,122.5565 L27.570873,123.049324 L26.817238,123.62489 L26.23192,124.73742" fill="rgb(100,100,100)"/>
<path d="M25.206059,120.80188 L27.094805,121.86989 L28.637186,122.11421 L29.862717,122.20016 L30.8587,122.22829 L31.743458,122.24287 L32.64357,122.25304 L33.67512,122.238014 L34.92899,122.1477 L36.46013,121.88551 L38.28086,120.80188 L37.486633,119.48242 L36.40281,118.83342 L35.041718,118.349724 L33.45831,118.03721 L31.743458,117.91992 L30.013256,118.01246 L28.394278,118.31187 L27.004848,118.799934 L25.932272,119.4668 L25.206059,120.80188" fill="rgb(100,100,100)"/>
<path d="M16.382343,114.423615 L18.401619,115.31089 L20.050596,115.51386 L21.36082,115.585266 L22.425636,115.608635 L23.371538,115.62075 L24.333855,115.629196 L25.436695,115.61672 L26.77722,115.54169 L28.414171,115.32387 L30.360733,114.423615 L29.511616,113.32743 L28.35289,112.78825 L26.897738,112.38642 L25.2049,112.126785 L23.371538,112.02934 L21.521763,112.106224 L19.7909,112.354965 L18.305449,112.76044 L17.158747,113.31445 L16.382343,114.423615" fill="rgb(100,100,100)"/>
<path d="M18.024906,111.30344 L19.490332,112.75504 L20.687023,113.08713 L21.637878,113.20394 L22.410635,113.24217 L23.097094,113.261986 L23.795464,113.27581 L24.595816,113.2554 L25.568659,113.13264 L26.756626,112.77628 L28.169281,111.30344 L27.55306,109.51005 L26.712152,108.62794 L25.65612,107.97052 L24.427597,107.545746 L23.097094,107.38633 L21.754677,107.51211 L20.498558,107.91906 L19.420538,108.58243 L18.588354,109.48881 L18.024906,111.30344" fill="rgb(100,100,100)"/>
<path d="M20.192377,106.31166 L20.727787,108.08635 L21.518555,108.972786 L22.542927,109.62155 L23.736534,110.01955 L25.012144,110.142555 L26.276436,109.98664 L27.443819,109.57122 L28.447296,108.92827 L29.246357,108.065575 L29.831911,106.31166 L28.489557,104.87123 L27.36071,104.52272 L26.436281,104.40266 L25.675758,104.38269 L25.012144,104.39622 L24.359848,104.415596 L23.625547,104.45298 L22.722013,104.56723 L21.584875,104.892 L20.192377,106.31166" fill="rgb(100,100,100)"/>
<path d="M22,150 L22.216555,145 L22.453318,140 L22.71543,135 L22.995968,130 L23.28025,125 L23.549547,120 L23.784246,115 L23.966413,110 L24.08181,105" fill="transparent" stroke="rgb(100,100,100)" stroke-width="1"/>
<path d="M25,150 L25,145 L25,140 L25,135 L25,130 L25,125 L25,120 L25,115 L25,110 L25,105" fill="transparent" stroke="rgb(100,100,100)" stroke-width="1"/>
</svg>