<svg viewBox="0 0 500 500" xmlns="http://www.w3.org/2000/svg">
<path d="M20.717615,139.19675 L23.649973,139.92862 L26.044586,140.09605 L27.947273,140.15495 L29.493578,140.17422 L30.8672,140.18422 L32.26466,140.19118 L33.866184,140.1809 L35.81287,140.119 L38.190025,139.93933 L41.016785,139.19675 L39.783714,138.29254 L38.101032,137.84781 L35.987885,137.51634 L33.529575,137.30219 L30.8672,137.2218 L28.180988,137.28522 L25.667461,137.4904 L23.510313,137.82486 L21.845093,138.28185 L20.717615,139.19675" fill="transparent" stroke="rgb(222,128,255)" stroke-width="1"/>
<path d="M12.324882,134.78828 L13.109706,135.54369 L14.127444,135.93561 L15.409581,136.27135 L17.007996,136.5553 L18.957256,136.76544 L21.252672,136.8691 L23.841606,136.83014 L26.625511,136.60988 L29.47023,136.14636 L32.222004,134.78828 L29.47023,133.4302 L26.625511,132.96669 L23.841606,132.74644 L21.252672,132.70747 L18.957256,132.81114 L17.007996,133.02127 L15.409581,133.30522 L14.127444,133.64096 L13.109706,134.0329 L12.324882,134.78828" fill="transparent" stroke="rgb(222,128,255)" stroke-width="1"/>
<path d="M22.852701,130.0634 L23.682314,130.54893 L24.758133,130.80086 L26.113441,131.01666 L27.803074,131.19917 L29.863577,131.33424 L32.28999,131.40086 L35.026672,131.37582 L37.96945,131.23425 L40.976513,130.93633 L43.88533,130.0634 L40.976513,129.19048 L37.96945,128.89253 L35.026672,128.75096 L32.28999,128.72592 L29.863577,128.79256 L27.803074,128.92763 L26.113441,129.11014 L24.758133,129.32594 L23.682314,129.57785 L22.852701,130.0634" fill="transparent" stroke="rgb(222,128,255)" stroke-width="1"/>
<path d="M16.873962,126.388985 L19.890688,128.08403 L22.690958,128.59079 L25.244637,128.79495 L27.501623,128.79137 L29.427843,128.63744 L31.026281,128.38255 L32.345425,128.06703 L33.47749,127.712524 L34.548817,127.29914 L35.704784,126.388985 L34.53703,125.48093 L33.460567,125.07098 L32.32973,124.71996 L31.016926,124.40708 L29.427843,124.15333 L27.511332,123.99871 L25.261497,123.992714 L22.709702,124.1933 L19.904037,124.696304 L16.873962,126.388985" fill="transparent" stroke="rgb(222,128,255)" stroke-width="1"/>
<path d="M22,150 L22.216555,145 L22.453318,140 L22.71543,135 L22.995968,130 L23.28025,125 L23.549547,120 L23.784246,115 L23.966413,110 L24.08181,105" fill="transparent" stroke="rgb(222,128,255)" stroke-width="1"/>
<path d="M25,150 L25,145 L25,140 L25,135 L25,130 L25,125 L25,120 L25,115 L25,110 L25,105" fill="transparent" stroke="rgb(222,128,255)" stroke-width="1"/>
</svg>