<svg viewBox="0 0 500 500" xmlns="http://www.w3.org/2000/svg">
<path d="M29.205256,139.16623 L30.911827,139.85152 L32.305443,140.00829 L33.41277,140.06343 L34.312687,140.08148 L35.112106,140.09084 L35.9254,140.09737 L36.857456,140.08772 L37.990387,140.02977 L39.37384,139.86154 L41.01896,139.16623 L40.30134,138.3196 L39.322052,137.90315 L38.09224,137.59279 L36.661556,137.39227 L35.112106,137.317 L33.548786,137.37639 L32.085964,137.5685 L30.83055,137.88167 L29.861425,138.30957 L29.205256,139.16623" fill="transparent" stroke="rgb(222,128,255)" stroke-width="1"/>
<path d="M7.714108,140.91353 L12.10991,142.28761 L15.699598,142.60194 L18.551857,142.71252 L20.869873,142.74872 L22.929028,142.76747 L25.02391,142.78056 L27.424711,142.76123 L30.342924,142.64503 L33.906437,142.30771 L38.143948,140.91353 L36.295486,139.21594 L33.773033,138.38095 L30.60528,137.75864 L26.92011,137.35657 L22.929028,137.20566 L18.902214,137.32472 L15.134263,137.70993 L11.900553,138.33786 L9.404274,139.19583 L7.714108,140.91353" fill="transparent" stroke="rgb(222,128,255)" stroke-width="1"/>
<path d="M19.169817,133.71785 L20.737816,134.98607 L22.018272,135.2762 L23.035683,135.37827 L23.862528,135.41167 L24.597036,135.42897 L25.34429,135.44106 L26.200663,135.42322 L27.2416,135.31596 L28.51272,135.00462 L30.024254,133.71785 L29.364902,132.15102 L28.465134,131.38034 L27.335184,130.80597 L26.02067,130.43486 L24.597036,130.29558 L23.160656,130.40547 L21.816614,130.76102 L20.663137,131.34058 L19.772707,132.13246 L19.169817,133.71785" fill="transparent" stroke="rgb(222,128,255)" stroke-width="1"/>
<path d="M20.871536,133.87904 L21.897966,134.95764 L23.1027,135.492 L24.528278,135.94604 L26.254152,136.33594 L28.34779,136.63516 L30.834497,136.79721 L33.683117,136.76634 L36.804756,136.4797 L40.061787,135.83797 L43.284237,133.87904 L40.309795,131.87865 L37.160835,131.16887 L34.01329,130.81306 L31.031343,130.72987 L28.34779,130.8695 L26.049889,131.18245 L24.173496,131.62006 L22.708319,132.1448 L21.617094,132.75348 L20.871536,133.87904" fill="transparent" stroke="rgb(222,128,255)" stroke-width="1"/>
<path d="M28.877235,130.81108 L29.508284,131.97597 L30.36231,132.5902 L31.464201,133.11775 L32.85231,133.56154 L34.54805,133.88571 L36.538708,134.03989 L38.771282,133.96999 L41.155266,133.61942 L43.57217,132.89691 L45.889683,130.81108 L43.50155,128.74158 L41.053867,128.04585 L38.677258,127.72251 L36.48265,127.6732 L34.54805,127.8362 L32.910477,128.15498 L31.565231,128.57999 L30.474617,129.07971 L29.588268,129.66469 L28.877235,130.81108" fill="transparent" stroke="rgb(222,128,255)" stroke-width="1"/>
<path d="M17.80488,130.65262 L19.47887,131.87067 L20.84588,132.14932 L21.932066,132.24734 L22.814804,132.27942 L23.59896,132.29605 L24.396727,132.30765 L25.31099,132.29051 L26.42229,132.18752 L27.779333,131.88849 L29.393044,130.65262 L28.689121,129.14777 L27.72853,128.4076 L26.5222,127.85594 L25.11883,127.49951 L23.59896,127.365746 L22.065487,127.47128 L20.630592,127.81276 L19.399143,128.3694 L18.44852,129.12994 L17.80488,130.65262" fill="transparent" stroke="rgb(222,128,255)" stroke-width="1"/>
<path d="M15.522833,126.33675 L16.251865,126.92159 L17.198835,127.22524 L18.392971,127.48538 L19.882313,127.705345 L21.698689,127.86804 L23.837349,127.94818 L26.248922,127.917816 L28.84137,127.74706 L31.489601,127.38804 L34.0504,126.33675 L31.486473,125.28579 L28.83688,124.927315 L26.244759,124.757126 L23.834867,124.72718 L21.698689,124.807495 L19.884888,124.970085 L18.397444,125.18966 L17.203808,125.449234 L16.255407,125.75227 L15.522833,126.33675" fill="transparent" stroke="rgb(222,128,255)" stroke-width="1"/>
<path d="M11.250944,125.52775 L11.82634,126.86018 L12.572496,127.551506 L13.512497,128.14372 L14.684378,128.64458 L16.11348,129.01523 L17.79637,129.19807 L19.69445,129.12935 L21.735476,128.74084 L23.821085,127.92325 L25.838552,125.52775 L23.821085,123.13225 L21.735476,122.314644 L19.69445,121.92615 L17.79637,121.85742 L16.11348,122.04026 L14.684378,122.41092 L13.512497,122.91178 L12.572496,123.50399 L11.82634,124.19531 L11.250944,125.52775" fill="transparent" stroke="rgb(222,128,255)" stroke-width="1"/>
<path d="M24.023874,119.44565 L25.323015,120.185 L26.383354,120.35819 L27.22742,120.4253 L27.920107,120.455574 L28.547844,120.47818 L29.20132,120.49699 L29.961657,120.49459 L30.889915,120.43306 L32.019848,120.24166 L33.35377,119.44565 L32.756924,118.48065 L31.94818,118.012085 L30.942932,117.668686 L29.786339,117.45312 L28.547844,117.38059 L27.313042,117.45905 L26.173018,117.683716 L25.211266,118.03896 L24.488268,118.51493 L24.023874,119.44565" fill="transparent" stroke="rgb(222,128,255)" stroke-width="1"/>
<path d="M22.027636,115.88756 L23.273947,117.511086 L24.291706,117.88249 L25.100388,118.013145 L25.757599,118.0559 L26.341417,118.078064 L26.935366,118.09353 L27.616049,118.070694 L28.44343,117.933395 L29.453768,117.534836 L30.655201,115.88756 L30.131119,113.881775 L29.415945,112.895195 L28.517813,112.15991 L27.472982,111.68484 L26.341417,111.50654 L25.199722,111.64721 L24.13142,112.10236 L23.21459,112.84429 L22.506836,113.85802 L22.027636,115.88756" fill="transparent" stroke="rgb(222,128,255)" stroke-width="1"/>
<path d="M16.55745,110.14896 L17.76995,112.34448 L18.89405,112.99889 L19.917797,113.26121 L20.821503,113.25499 L21.592047,113.05503 L22.231207,112.72539 L22.758965,112.31813 L23.21272,111.8609 L23.643394,111.32732 L24.109346,110.14896 L23.643394,108.970604 L23.21272,108.43701 L22.758965,107.97978 L22.231207,107.572525 L21.592047,107.24288 L20.821503,107.04293 L19.917797,107.036705 L18.89405,107.29902 L17.76995,107.95343 L16.55745,110.14896" fill="transparent" stroke="rgb(222,128,255)" stroke-width="1"/>
<path d="M21.255856,103.619225 L21.632425,104.645744 L22.142519,105.18719 L22.800982,105.65226 L23.630657,106.04345 L24.644241,106.32912 L25.834028,106.464874 L27.168253,106.4031 L28.59276,106.09398 L30.036703,105.457146 L31.421015,103.619225 L29.993639,101.795975 L28.53093,101.18322 L27.110922,100.89858 L25.799847,100.855316 L24.644241,100.99901 L23.666126,101.27983 L22.862587,101.65413 L22.210999,102.09418 L21.681196,102.60932 L21.255856,103.619225" fill="transparent" stroke="rgb(222,128,255)" stroke-width="1"/>
<path d="M22,150 L22.216555,145 L22.453318,140 L22.71543,135 L22.995968,130 L23.28025,125 L23.549547,120 L23.784246,115 L23.966413,110 L24.08181,105" fill="transparent" stroke="rgb(222,128,255)" stroke-width="1"/>
<path d="M25,150 L25,145 L25,140 L25,135 L25,130 L25,125 L25,120 L25,115 L25,110 L25,105" fill="transparent" stroke="rgb(222,128,255)" stroke-width="1"/>
</svg>