<svg viewBox="0 0 500 300" xmlns="http://www.w3.org/2000/svg">
<path d="M20,200.39641 L0,200 L0,200 L10,199.19122 L20,197.60939" fill="transparent" stroke="rgb(100,100,100)" stroke-width="1"/>
<path d="M40,201.21674 L20,200.39641 L20,197.60939 L30,195.3911 L40,192.61798" fill="transparent" stroke="rgb(100,100,100)" stroke-width="1"/>
<path d="M60,201.72264 L40,201.21674 L40,192.61798 L50,189.44026 L60,186.0791" fill="transparent" stroke="rgb(100,100,100)" stroke-width="1"/>
<path d="M80,201.34483 L60,201.72264 L60,186.0791 L70,182.80367 L80,179.89876" fill="transparent" stroke="rgb(100,100,100)" stroke-width="1"/>
<path d="M100,200 L80,201.34483 L80,179.89876 L90,177.63072 L100,176.21585" fill="transparent" stroke="rgb(100,100,100)" stroke-width="1"/>
<path d="M120,198.14899 L100,200 L100,176.21585 L110,175.79514 L120,176.41737" fill="transparent" stroke="rgb(100,100,100)" stroke-width="1"/>
<path d="M140,196.61913 L120,198.14899 L120,176.41737 L130,178.03271 L140,180.49777" fill="transparent" stroke="rgb(100,100,100)" stroke-width="1"/>
<path d="M160,196.25528 L140,196.61913 L140,180.49777 L150,183.59254 L160,187.04947" fill="transparent" stroke="rgb(100,100,100)" stroke-width="1"/>
<path d="M180,197.49713 L160,196.25528 L160,187.04947 L170,190.59364 L180,193.99309" fill="transparent" stroke="rgb(100,100,100)" stroke-width="1"/>
<path d="M200,200 L180,197.49713 L180,193.99309 L190,197.11707 L200,200" fill="transparent" stroke="rgb(100,100,100)" stroke-width="1"/>
<path d="M220,202.71373 L200,200 L200,200 L210,202.75865 L220,205.14069" fill="transparent" stroke="rgb(100,100,100)" stroke-width="1"/>
<path d="M240,204.96597 L220,202.71373 L220,205.14069 L230,206.88278 L240,207.8381" fill="transparent" stroke="rgb(100,100,100)" stroke-width="1"/>
<path d="M260,206.19965 L240,204.96597 L240,207.8381 L250,207.96478 L260,207.3111" fill="transparent" stroke="rgb(100,100,100)" stroke-width="1"/>
<path d="M280,206.12123 L260,206.19965 L260,207.3111 L270,205.99812 L280,204.20071" fill="transparent" stroke="rgb(100,100,100)" stroke-width="1"/>
<path d="M300,204.89899 L280,206.12123 L280,204.20071 L290,202.12738 L300,200" fill="transparent" stroke="rgb(100,100,100)" stroke-width="1"/>
<path d="M320,203.10251 L300,204.89899 L300,200 L310,198.03395 L320,196.41942" fill="transparent" stroke="rgb(100,100,100)" stroke-width="1"/>
<path d="M340,201.43623 L320,203.10251 L320,196.41942 L330,195.30457 L340,194.78127" fill="transparent" stroke="rgb(100,100,100)" stroke-width="1"/>
<path d="M360,200.3968 L340,201.43623 L340,194.78127 L350,194.87392 L360,195.53215" fill="transparent" stroke="rgb(100,100,100)" stroke-width="1"/>
<path d="M380,200.0334 L360,200.3968 L360,195.53215 L370,196.62758 L380,197.95413" fill="transparent" stroke="rgb(100,100,100)" stroke-width="1"/>
<path d="M400,200 L380,200.0334 L380,197.95413 L390,199.22609 L400,200" fill="transparent" stroke="rgb(100,100,100)" stroke-width="1"/>
</svg>