<svg viewBox="0 0 500 300" xmlns="http://www.w3.org/2000/svg">
<path d="M40,201.21674 L20,200.39641 L0,200 L0,200 L10,199.19122 L20,197.60939 L30,195.3911 L40,192.61798 L50,189.44026" fill="rgb(212,212,212)"/>
<path d="M90,200.7762 L70,201.66273 L50,201.5535 L50,189.44026 L60,186.0791 L70,182.80367 L80,179.89876 L90,177.63072 L100,176.21585" fill="rgb(183,183,183)"/>
<path d="M140,196.61913 L120,198.14899 L100,200 L100,176.21585 L110,175.79514 L120,176.41737 L130,178.03271 L140,180.49777 L150,183.59254" fill="rgb(192,192,192)"/>
<path d="M190,198.65062 L170,196.67505 L150,196.24951 L150,183.59254 L160,187.04947 L170,190.59364 L180,193.99309 L190,197.11707 L200,200" fill="rgb(200,200,200)"/>
<path d="M240,204.96597 L220,202.71373 L200,200 L200,200 L210,202.75865 L220,205.14069 L230,206.88278 L240,207.8381 L250,207.96478" fill="rgb(188,188,188)"/>
<path d="M290,205.62453 L270,206.32529 L250,205.73824 L250,207.96478 L260,207.3111 L270,205.99812 L280,204.20071 L290,202.12738 L300,200" fill="rgb(200,200,200)"/>
<path d="M340,201.43623 L320,203.10251 L300,204.89899 L300,200 L310,198.03395 L320,196.41942 L330,195.30457 L340,194.78127 L350,194.87392" fill="rgb(193,193,193)"/>
<path d="M390,200.0024 L370,200.14633 L350,200.82335 L350,194.87392 L360,195.53215 L370,196.62758 L380,197.95413 L390,199.22609 L400,200" fill="rgb(200,200,200)"/>
</svg>