<svg viewBox="0 0 500 500" xmlns="http://www.w3.org/2000/svg">
<path d="M35.938057,159.61678 L35.43061,161.1576 L34.948315,162.69841 L34.515934,164.23923 L34.1576,165.78003 L33.89687,167.32085 L33.757454,168.86166 L33.765728,170.40248 L33.958572,171.9433 L34.41572,173.48412 L35.938057,175.02493 L37.46039,173.48412 L37.917538,171.9433 L38.110382,170.40248 L38.118656,168.86166 L37.97924,167.32085 L37.71851,165.78003 L37.360176,164.23923 L36.927795,162.69841 L36.4455,161.1576 L35.938057,159.61678" fill="rgb(100,100,100)"/>
<path d="M29.44613,160.71967 L28.938686,162.26048 L28.45639,163.8013 L28.02401,165.34212 L27.665678,166.88293 L27.404945,168.42374 L27.26553,169.96455 L27.273804,171.50537 L27.466648,173.04619 L27.923798,174.587 L29.44613,176.12782 L30.968466,174.587 L31.425615,173.04619 L31.61846,171.50537 L31.626732,169.96455 L31.487316,168.42374 L31.226585,166.88293 L30.868254,165.34212 L30.435873,163.8013 L29.953575,162.26048 L29.44613,160.71967" fill="rgb(100,100,100)"/>
<path d="M35.359978,174.76884 L34.852535,176.30966 L34.37024,177.85048 L33.93786,179.3913 L33.579525,180.93211 L33.318794,182.47293 L33.17938,184.01375 L33.187653,185.55457 L33.380497,187.09537 L33.837646,188.63618 L35.359978,190.177 L36.882313,188.63618 L37.339462,187.09537 L37.532307,185.55457 L37.54058,184.01375 L37.401165,182.47293 L37.140434,180.93211 L36.7821,179.3913 L36.34972,177.85048 L35.867424,176.30966 L35.359978,174.76884" fill="rgb(100,100,100)"/>
<path d="M21.084461,173.57835 L20.577017,175.11917 L20.09472,176.65999 L19.66234,178.2008 L19.304008,179.74161 L19.043276,181.28242 L18.90386,182.82324 L18.912134,184.36406 L19.104979,185.90488 L19.562128,187.4457 L21.084461,188.98651 L22.606796,187.4457 L23.063946,185.90488 L23.25679,184.36406 L23.265062,182.82324 L23.125647,181.28242 L22.864916,179.74161 L22.506584,178.2008 L22.074203,176.65999 L21.591906,175.11917 L21.084461,173.57835" fill="rgb(100,100,100)"/>
<path d="M41.947556,166.62389 L41.440113,168.1647 L40.957813,169.70552 L40.525433,171.24634 L40.167103,172.78716 L39.906372,174.32797 L39.766956,175.86879 L39.77523,177.4096 L39.968075,178.95042 L40.425224,180.49123 L41.947556,182.03204 L43.46989,180.49123 L43.92704,178.95042 L44.119884,177.4096 L44.12816,175.86879 L43.988743,174.32797 L43.72801,172.78716 L43.36968,171.24634 L42.937298,169.70552 L42.455,168.1647 L41.947556,166.62389" fill="rgb(100,100,100)"/>
<path d="M66.7822,169.75606 L66.38184,171.38571 L66.00132,173.01538 L65.66018,174.64503 L65.37747,176.27469 L65.17176,177.90434 L65.06176,179.534 L65.06829,181.16365 L65.220436,182.7933 L65.581116,184.42297 L66.7822,186.05263 L67.983284,184.42297 L68.34396,182.7933 L68.49611,181.16365 L68.50264,179.534 L68.39265,177.90434 L68.186935,176.27469 L67.90422,174.64503 L67.56308,173.01538 L67.18256,171.38571 L66.7822,169.75606" fill="rgb(100,100,100)"/>
<path d="M48.780136,166.40741 L48.379776,168.03706 L47.999256,169.66672 L47.658115,171.29639 L47.375404,172.92604 L47.169693,174.5557 L47.059696,176.18535 L47.066223,177.815 L47.218372,179.44466 L47.579052,181.07431 L48.780136,182.70398 L49.981216,181.07431 L50.341896,179.44466 L50.494045,177.815 L50.500572,176.18535 L50.39058,174.5557 L50.184868,172.92604 L49.902153,171.29639 L49.561016,169.66672 L49.180496,168.03706 L48.780136,166.40741" fill="rgb(100,100,100)"/>
<path d="M66.207504,163.66927 L65.807144,165.29892 L65.42663,166.92857 L65.08549,168.55823 L64.80277,170.1879 L64.59706,171.81755 L64.48707,173.4472 L64.4936,175.07686 L64.645744,176.70651 L65.006424,178.33617 L66.207504,179.96582 L67.40859,178.33617 L67.76927,176.70651 L67.92142,175.07686 L67.92795,173.4472 L67.81795,171.81755 L67.612236,170.1879 L67.32952,168.55823 L66.98839,166.92857 L66.607864,165.29892 L66.207504,163.66927" fill="rgb(100,100,100)"/>
<path d="M53.152325,166.16492 L52.751965,167.79457 L52.371445,169.42422 L52.030308,171.05388 L51.747593,172.68353 L51.54188,174.31319 L51.431885,175.94284 L51.438416,177.5725 L51.590565,179.20216 L51.951244,180.83182 L53.152325,182.46147 L54.35341,180.83182 L54.71409,179.20216 L54.866238,177.5725 L54.872765,175.94284 L54.762768,174.31319 L54.557056,172.68353 L54.27434,171.05388 L53.933205,169.42422 L53.552685,167.79457 L53.152325,166.16492" fill="rgb(100,100,100)"/>
<path d="M60.185814,181.12912 L59.785454,182.75877 L59.404934,184.38843 L59.063793,186.0181 L58.781082,187.64775 L58.57537,189.2774 L58.465374,190.90706 L58.4719,192.53671 L58.62405,194.16637 L58.98473,195.79602 L60.185814,197.42567 L61.386894,195.79602 L61.747574,194.16637 L61.899723,192.53671 L61.90625,190.90706 L61.796257,189.2774 L61.590546,187.64775 L61.30783,186.0181 L60.966694,184.38843 L60.586174,182.75877 L60.185814,181.12912" fill="rgb(100,100,100)"/>
<path d="M76.31318,166.3505 L75.66745,167.17114 L75.05373,167.99178 L74.50352,168.81242 L74.04754,169.63307 L73.71575,170.4537 L73.538345,171.27435 L73.548874,172.09499 L73.79427,172.91563 L74.376,173.73628 L76.31318,174.55692 L78.25037,173.73628 L78.83209,172.91563 L79.077484,172.09499 L79.08801,171.27435 L78.91061,170.4537 L78.57882,169.63307 L78.12284,168.81242 L77.57263,167.99178 L76.95891,167.17114 L76.31318,166.3505" fill="rgb(100,100,100)"/>
<path d="M68.99393,169.39491 L68.3482,170.21556 L67.734474,171.03621 L67.184265,171.85684 L66.72829,172.67749 L66.3965,173.49812 L66.21909,174.31877 L66.22962,175.13942 L66.47502,175.96005 L67.05675,176.7807 L68.99393,177.60133 L70.93111,176.7807 L71.51283,175.96005 L71.75823,175.13942 L71.76876,174.31877 L71.591354,173.49812 L71.25957,172.67749 L70.80359,171.85684 L70.25338,171.03621 L69.639656,170.21556 L68.99393,169.39491" fill="rgb(100,100,100)"/>
<path d="M90.709175,171.2155 L90.063446,172.03613 L89.449715,172.85678 L88.89951,173.67741 L88.44353,174.49806 L88.11175,175.31871 L87.93434,176.13934 L87.94487,176.95999 L88.19026,177.78062 L88.77199,178.60127 L90.709175,179.42192 L92.646355,178.60127 L93.22808,177.78062 L93.47348,176.95999 L93.48401,176.13934 L93.306595,175.31871 L92.974815,174.49806 L92.51884,173.67741 L91.96863,172.85678 L91.3549,172.03613 L90.709175,171.2155" fill="rgb(100,100,100)"/>
<path d="M78.398285,175.46663 L77.752556,176.28728 L77.13883,177.10791 L76.58862,177.92856 L76.132645,178.7492 L75.80086,179.56984 L75.62345,180.39049 L75.63398,181.21112 L75.87937,182.03177 L76.4611,182.85242 L78.398285,183.67305 L80.335464,182.85242 L80.91719,182.03177 L81.16259,181.21112 L81.17312,180.39049 L80.99571,179.56984 L80.663925,178.7492 L80.20795,177.92856 L79.65774,177.10791 L79.044014,176.28728 L78.398285,175.46663" fill="rgb(100,100,100)"/>
<path d="M63.407524,164.10681 L62.761795,164.92744 L62.148067,165.7481 L61.59786,166.56873 L61.14188,167.38937 L60.810097,168.21002 L60.63269,169.03065 L60.64322,169.8513 L60.888615,170.67195 L61.47034,171.49258 L63.407524,172.31323 L65.3447,171.49258 L65.92643,170.67195 L66.17183,169.8513 L66.18236,169.03065 L66.00495,168.21002 L65.673164,167.38937 L65.217186,166.56873 L64.66698,165.7481 L64.05325,164.92744 L63.407524,164.10681" fill="rgb(100,100,100)"/>
<path d="M88.54037,168.86758 L87.89467,170.85579 L87.28097,172.84398 L86.730774,174.83217 L86.27482,176.82037 L85.94305,178.80856 L85.76564,180.79675 L85.77617,182.78496 L86.02156,184.77315 L86.603264,186.76134 L88.54037,188.74954 L90.47748,186.76134 L91.05918,184.77315 L91.304565,182.78496 L91.315094,180.79675 L91.137695,178.80856 L90.80592,176.82037 L90.34996,174.83217 L89.799774,172.84398 L89.18607,170.85579 L88.54037,168.86758" fill="rgb(100,100,100)"/>
<path d="M91.79576,172.76228 L91.15006,174.75047 L90.536354,176.73866 L89.98617,178.72687 L89.530205,180.71506 L89.19844,182.70325 L89.021034,184.69145 L89.03156,186.67964 L89.27695,188.66783 L89.85866,190.65604 L91.79576,192.64423 L93.73287,190.65604 L94.314575,188.66783 L94.55996,186.67964 L94.57049,184.69145 L94.39309,182.70325 L94.06132,180.71506 L93.605354,178.72687 L93.05517,176.73866 L92.44147,174.75047 L91.79576,172.76228" fill="rgb(100,100,100)"/>
<path d="M103.10531,175.85362 L102.4596,177.84181 L101.8459,179.83 L101.295715,181.8182 L100.83975,183.8064 L100.50798,185.79459 L100.33058,187.78279 L100.34111,189.77098 L100.586494,191.75917 L101.1682,193.74738 L103.10531,195.73557 L105.04241,193.74738 L105.624115,191.75917 L105.86951,189.77098 L105.880035,187.78279 L105.70263,185.79459 L105.37086,183.8064 L104.9149,181.8182 L104.36471,179.83 L103.75101,177.84181 L103.10531,175.85362" fill="rgb(100,100,100)"/>
<path d="M104.19308,168.84679 L103.54738,170.83498 L102.93368,172.82318 L102.383484,174.81137 L101.92753,176.79958 L101.59576,178.78777 L101.41835,180.77596 L101.42888,182.76416 L101.67427,184.75235 L102.255974,186.74054 L104.19308,188.72874 L106.13019,186.74054 L106.71189,184.75235 L106.957275,182.76416 L106.967804,180.77596 L106.790405,178.78777 L106.45863,176.79958 L106.00267,174.81137 L105.452484,172.82318 L104.83878,170.83498 L104.19308,168.84679" fill="rgb(100,100,100)"/>
<path d="M104.59012,157.00899 L103.94441,158.99718 L103.33071,160.98537 L102.780525,162.97357 L102.32456,164.96176 L101.99279,166.94995 L101.81539,168.93816 L101.82592,170.92635 L102.071304,172.91454 L102.65301,174.90274 L104.59012,176.89093 L106.52722,174.90274 L107.108925,172.91454 L107.35432,170.92635 L107.364845,168.93816 L107.18744,166.94995 L106.85567,164.96176 L106.39971,162.97357 L105.849525,160.98537 L105.23582,158.99718 L104.59012,157.00899" fill="rgb(100,100,100)"/>
<path d="M128.42924,173.45291 L127.90056,174.64984 L127.39808,175.84679 L126.94761,177.04372 L126.57428,178.24065 L126.30264,179.43759 L126.157394,180.63452 L126.16601,181.83147 L126.36693,183.0284 L126.8432,184.22534 L128.42924,185.42227 L130.01527,184.22534 L130.49155,183.0284 L130.69246,181.83147 L130.70108,180.63452 L130.55583,179.43759 L130.2842,178.24065 L129.91087,177.04372 L129.46039,175.84679 L128.95792,174.64984 L128.42924,173.45291" fill="rgb(100,100,100)"/>
<path d="M104.82103,171.92159 L104.29235,173.11853 L103.78987,174.31546 L103.33939,175.5124 L102.96607,176.70934 L102.69443,177.90628 L102.54918,179.10321 L102.5578,180.30016 L102.75871,181.49709 L103.23499,182.69403 L104.82103,183.89096 L106.40706,182.69403 L106.88334,181.49709 L107.08425,180.30016 L107.09287,179.10321 L106.947624,177.90628 L106.67598,176.70934 L106.30266,175.5124 L105.85218,174.31546 L105.34971,173.11853 L104.82103,171.92159" fill="rgb(100,100,100)"/>
<path d="M109.691055,157.72122 L109.16238,158.91817 L108.6599,160.1151 L108.20942,161.31204 L107.8361,162.50897 L107.56445,163.70592 L107.419205,164.90285 L107.427826,166.0998 L107.62874,167.29672 L108.10502,168.49367 L109.691055,169.6906 L111.277084,168.49367 L111.753365,167.29672 L111.95428,166.0998 L111.9629,164.90285 L111.81765,163.70592 L111.546005,162.50897 L111.17268,161.31204 L110.722206,160.1151 L110.219734,158.91817 L109.691055,157.72122" fill="rgb(100,100,100)"/>
<path d="M103.55247,165.39789 L103.02379,166.59483 L102.52132,167.79176 L102.07084,168.98871 L101.69752,170.18564 L101.42587,171.38258 L101.280624,172.57951 L101.289246,173.77646 L101.49016,174.97339 L101.96644,176.17033 L103.55247,177.36726 L105.138504,176.17033 L105.614784,174.97339 L105.8157,173.77646 L105.82432,172.57951 L105.67907,171.38258 L105.407425,170.18564 L105.0341,168.98871 L104.583626,167.79176 L104.08115,166.59483 L103.55247,165.39789" fill="rgb(100,100,100)"/>
<path d="M105.07493,155.47807 L104.54625,156.67502 L104.04378,157.87195 L103.5933,159.06888 L103.21998,160.26582 L102.94833,161.46275 L102.803085,162.6597 L102.81171,163.85663 L103.01262,165.05357 L103.4889,166.2505 L105.07493,167.44745 L106.660965,166.2505 L107.137245,165.05357 L107.33816,163.85663 L107.34678,162.6597 L107.20153,161.46275 L106.929886,160.26582 L106.55656,159.06888 L106.10609,157.87195 L105.60361,156.67502 L105.07493,155.47807" fill="rgb(100,100,100)"/>
<path d="M138.57675,169.15845 L138.01865,170.45253 L137.48819,171.74663 L137.01265,173.04071 L136.61853,174.33481 L136.33177,175.62889 L136.17844,176.92299 L136.18753,178.21707 L136.39963,179.51117 L136.90242,180.80525 L138.57675,182.09935 L140.25108,180.80525 L140.75388,179.51117 L140.96597,178.21707 L140.97507,176.92299 L140.82173,175.62889 L140.53497,174.33481 L140.14087,173.04071 L139.66531,171.74663 L139.13486,170.45253 L138.57675,169.15845" fill="rgb(100,100,100)"/>
<path d="M131.3094,184.08958 L130.7513,185.38367 L130.22086,186.67776 L129.7453,187.97185 L129.3512,189.26595 L129.06442,190.56003 L128.91109,191.85413 L128.9202,193.14821 L129.1323,194.4423 L129.63509,195.73639 L131.3094,197.03049 L132.98373,195.73639 L133.48653,194.4423 L133.69862,193.14821 L133.70773,191.85413 L133.5544,190.56003 L133.26762,189.26595 L132.87352,187.97185 L132.39796,186.67776 L131.86752,185.38367 L131.3094,184.08958" fill="rgb(100,100,100)"/>
<path d="M140.59329,170.91298 L140.03519,172.20708 L139.50473,173.50116 L139.02919,174.79526 L138.63507,176.08934 L138.34831,177.38344 L138.19498,178.67752 L138.20407,179.97162 L138.41618,181.2657 L138.91898,182.5598 L140.59329,183.85388 L142.26762,182.5598 L142.77042,181.2657 L142.98251,179.97162 L142.99162,178.67752 L142.83829,177.38344 L142.55151,176.08934 L142.15741,174.79526 L141.68185,173.50116 L141.15141,172.20708 L140.59329,170.91298" fill="rgb(100,100,100)"/>
<path d="M127.38833,170.27084 L126.830215,171.56494 L126.29977,172.85902 L125.82421,174.15312 L125.43011,175.4472 L125.14334,176.7413 L124.990005,178.03539 L124.99911,179.32948 L125.211205,180.62357 L125.714,181.91766 L127.38833,183.21175 L129.06265,181.91766 L129.56544,180.62357 L129.77754,179.32948 L129.78665,178.03539 L129.63332,176.7413 L129.34654,175.4472 L128.95244,174.15312 L128.47688,172.85902 L127.946434,171.56494 L127.38833,170.27084" fill="rgb(100,100,100)"/>
<path d="M112.98208,181.12358 L112.42397,182.41768 L111.89352,183.71176 L111.41797,185.00586 L111.02386,186.29994 L110.7371,187.59404 L110.58376,188.88812 L110.59286,190.18222 L110.80496,191.4763 L111.307755,192.7704 L112.98208,194.06448 L114.65641,192.7704 L115.1592,191.4763 L115.3713,190.18222 L115.3804,188.88812 L115.227066,187.59404 L114.9403,186.29994 L114.54619,185.00586 L114.07064,183.71176 L113.54019,182.41768 L112.98208,181.12358" fill="rgb(100,100,100)"/>
<path d="M155.10396,165.4115 L154.67403,167.35025 L154.2654,169.289 L153.89906,171.22777 L153.59546,173.16652 L153.37456,175.10529 L153.25644,177.04404 L153.26344,178.9828 L153.42683,180.92155 L153.81415,182.86032 L155.10396,184.79907 L156.39377,182.86032 L156.7811,180.92155 L156.94449,178.9828 L156.95149,177.04404 L156.83337,175.10529 L156.61246,173.16652 L156.30887,171.22777 L155.94254,169.289 L155.5339,167.35025 L155.10396,165.4115" fill="rgb(100,100,100)"/>
<path d="M154.83093,178.1751 L154.401,180.11385 L153.99237,182.05261 L153.62602,183.99136 L153.32243,185.93013 L153.10152,187.86888 L152.9834,189.80763 L152.99042,191.7464 L153.1538,193.68515 L153.54112,195.62392 L154.83093,197.56267 L156.12074,195.62392 L156.50806,193.68515 L156.67145,191.7464 L156.67847,189.80763 L156.56033,187.86888 L156.33943,185.93013 L156.03583,183.99136 L155.6695,182.05261 L155.26086,180.11385 L154.83093,178.1751" fill="rgb(100,100,100)"/>
<path d="M158.92514,169.57957 L158.4952,171.51833 L158.08658,173.45709 L157.72023,175.39584 L157.41664,177.33461 L157.19572,179.27336 L157.0776,181.21213 L157.08461,183.15088 L157.248,185.08963 L157.63533,187.0284 L158.92514,188.96715 L160.21495,187.0284 L160.60226,185.08963 L160.76566,183.15088 L160.77266,181.21213 L160.65454,179.27336 L160.43364,177.33461 L160.13004,175.39584 L159.7637,173.45709 L159.35507,171.51833 L158.92514,169.57957" fill="rgb(100,100,100)"/>
<path d="M149.15988,164.44572 L148.72993,166.38448 L148.32132,168.32324 L147.95497,170.262 L147.65138,172.20076 L147.43047,174.13951 L147.31235,176.07828 L147.31935,178.01703 L147.48274,179.9558 L147.87007,181.89455 L149.15988,183.83331 L150.44969,181.89455 L150.837,179.9558 L151.0004,178.01703 L151.0074,176.07828 L150.88928,174.13951 L150.66838,172.20076 L150.36478,170.262 L149.99844,168.32324 L149.58981,166.38448 L149.15988,164.44572" fill="rgb(100,100,100)"/>
<path d="M156.31198,148.20314 L155.88205,150.1419 L155.47342,152.08066 L155.10709,154.01942 L154.80348,155.95818 L154.58258,157.89694 L154.46446,159.8357 L154.47147,161.77446 L154.63486,163.71321 L155.02217,165.65198 L156.31198,167.59073 L157.60179,165.65198 L157.98912,163.71321 L158.15251,161.77446 L158.15952,159.8357 L158.0414,157.89694 L157.82048,155.95818 L157.51689,154.01942 L157.15054,152.08066 L156.74193,150.1419 L156.31198,148.20314" fill="rgb(100,100,100)"/>
<path d="M166.07747,164.06067 L165.70297,165.31335 L165.34705,166.56604 L165.02795,167.81874 L164.7635,169.07143 L164.57109,170.32411 L164.4682,171.5768 L164.4743,172.8295 L164.61662,174.08218 L164.954,175.33487 L166.07747,176.58755 L167.20094,175.33487 L167.53831,174.08218 L167.68062,172.8295 L167.68674,171.5768 L167.58385,170.32411 L167.39143,169.07143 L167.12698,167.81874 L166.80789,166.56604 L166.45195,165.31335 L166.07747,164.06067" fill="rgb(100,100,100)"/>
<path d="M177.85454,185.78407 L177.48004,187.03676 L177.12411,188.28944 L176.80502,189.54214 L176.54057,190.79483 L176.34816,192.04752 L176.24527,193.30022 L176.25137,194.5529 L176.39369,195.80559 L176.73106,197.05827 L177.85454,198.31097 L178.978,197.05827 L179.31537,195.80559 L179.45769,194.5529 L179.46379,193.30022 L179.36092,192.04752 L179.16849,190.79483 L178.90405,189.54214 L178.58495,188.28944 L178.22902,187.03676 L177.85454,185.78407" fill="rgb(100,100,100)"/>
<path d="M177.44803,185.26567 L177.07353,186.51837 L176.7176,187.77106 L176.39851,189.02374 L176.13406,190.27643 L175.94165,191.52913 L175.83876,192.78181 L175.84486,194.0345 L175.98718,195.2872 L176.32455,196.53989 L177.44803,197.79257 L178.57149,196.53989 L178.90887,195.2872 L179.05118,194.0345 L179.0573,192.78181 L178.9544,191.52913 L178.76198,190.27643 L178.49754,189.02374 L178.17845,187.77106 L177.82251,186.51837 L177.44803,185.26567" fill="rgb(100,100,100)"/>
<path d="M165.27109,176.08472 L164.8966,177.3374 L164.54066,178.5901 L164.22157,179.84279 L163.95714,181.09547 L163.76471,182.34818 L163.66182,183.60086 L163.66794,184.85355 L163.81026,186.10623 L164.14763,187.35893 L165.27109,188.61162 L166.39456,187.35893 L166.73193,186.10623 L166.87425,184.85355 L166.88036,183.60086 L166.77747,182.34818 L166.58505,181.09547 L166.3206,179.84279 L166.00151,178.5901 L165.64558,177.3374 L165.27109,176.08472" fill="rgb(100,100,100)"/>
<path d="M170.48727,175.16275 L170.11278,176.41544 L169.75685,177.66814 L169.43776,178.92082 L169.17331,180.17351 L168.9809,181.42621 L168.878,182.6789 L168.88411,183.93158 L169.02643,185.18427 L169.3638,186.43697 L170.48727,187.68965 L171.61073,186.43697 L171.9481,185.18427 L172.09042,183.93158 L172.09653,182.6789 L171.99364,181.42621 L171.80122,180.17351 L171.53677,178.92082 L171.21768,177.66814 L170.86176,176.41544 L170.48727,175.16275" fill="rgb(100,100,100)"/>
<path d="M198.04337,174.6544 L197.51872,176.50009 L197.02008,178.34578 L196.57304,180.19145 L196.20256,182.03714 L195.93298,183.88283 L195.78885,185.72852 L195.79741,187.5742 L195.99678,189.41988 L196.46942,191.26556 L198.04337,193.11125 L199.6173,191.26556 L200.08995,189.41988 L200.28932,187.5742 L200.29788,185.72852 L200.15373,183.88283 L199.88417,182.03714 L199.51369,180.19145 L199.06665,178.34578 L198.56801,176.50009 L198.04337,174.6544" fill="rgb(100,100,100)"/>
<path d="M198.25525,169.16219 L197.7306,171.00787 L197.23196,172.85356 L196.78493,174.69925 L196.41444,176.54492 L196.14488,178.39061 L196.00073,180.2363 L196.0093,182.08199 L196.20868,183.92767 L196.68132,185.77335 L198.25525,187.61903 L199.8292,185.77335 L200.30183,183.92767 L200.50122,182.08199 L200.50977,180.2363 L200.36563,178.39061 L200.09605,176.54492 L199.72559,174.69925 L199.27855,172.85356 L198.77989,171.00787 L198.25525,169.16219" fill="rgb(100,100,100)"/>
<path d="M194.74915,164.4874 L194.2245,166.33308 L193.72586,168.17877 L193.27882,170.02444 L192.90834,171.87013 L192.63876,173.71582 L192.49463,175.56151 L192.50319,177.40718 L192.70256,179.25287 L193.1752,181.09856 L194.74915,182.94424 L196.32307,181.09856 L196.79573,179.25287 L196.9951,177.40718 L197.00366,175.56151 L196.85951,173.71582 L196.58995,171.87013 L196.21947,170.02444 L195.77243,168.17877 L195.27379,166.33308 L194.74915,164.4874" fill="rgb(100,100,100)"/>
<path d="M190.08914,175.32562 L189.56448,177.17131 L189.06584,179.017 L188.6188,180.86269 L188.24834,182.70836 L187.97876,184.55405 L187.83463,186.39973 L187.84317,188.24542 L188.04256,190.09111 L188.5152,191.93678 L190.08914,193.78247 L191.66307,191.93678 L192.13571,190.09111 L192.3351,188.24542 L192.34366,186.39973 L192.19951,184.55405 L191.92995,182.70836 L191.55946,180.86269 L191.11243,179.017 L190.61378,177.17131 L190.08914,175.32562" fill="rgb(100,100,100)"/>
<path d="M184.19121,161.8133 L183.66656,163.65897 L183.16792,165.50465 L182.72089,167.35034 L182.3504,169.19603 L182.08084,171.0417 L181.93669,172.88739 L181.94525,174.73308 L182.14464,176.57877 L182.61728,178.42445 L184.19121,180.27013 L185.76515,178.42445 L186.2378,176.57877 L186.43718,174.73308 L186.44572,172.88739 L186.30159,171.0417 L186.03201,169.19603 L185.66154,167.35034 L185.21451,165.50465 L184.71585,163.65897 L184.19121,161.8133" fill="rgb(100,100,100)"/>
<path d="M233.41388,166.62755 L232.94493,168.4376 L232.49922,170.24768 L232.09964,172.05774 L231.76848,173.8678 L231.52753,175.67787 L231.39868,177.48793 L231.40634,179.298 L231.58455,181.10806 L232.00702,182.91812 L233.41388,184.7282 L234.82074,182.91812 L235.24321,181.10806 L235.42143,179.298 L235.42908,177.48793 L235.30023,175.67787 L235.05928,173.8678 L234.72813,172.05774 L234.32855,170.24768 L233.88283,168.4376 L233.41388,166.62755" fill="rgb(100,100,100)"/>
<path d="M215.92947,177.25626 L215.46053,179.06633 L215.01482,180.87639 L214.61523,182.68645 L214.28407,184.49652 L214.04312,186.30658 L213.91428,188.11665 L213.92194,189.92671 L214.10014,191.73677 L214.52261,193.54684 L215.92947,195.3569 L217.33633,193.54684 L217.7588,191.73677 L217.93703,189.92671 L217.94467,188.11665 L217.81583,186.30658 L217.57487,184.49652 L217.24373,182.68645 L216.84415,180.87639 L216.39842,179.06633 L215.92947,177.25626" fill="rgb(100,100,100)"/>
<path d="M222.53812,180.3139 L222.06915,182.12398 L221.62344,183.93404 L221.22386,185.74411 L220.89272,187.55417 L220.65176,189.36423 L220.52292,191.1743 L220.53056,192.98436 L220.70879,194.79443 L221.13126,196.60449 L222.53812,198.41455 L223.94498,196.60449 L224.36745,194.79443 L224.54565,192.98436 L224.5533,191.1743 L224.42447,189.36423 L224.1835,187.55417 L223.85236,185.74411 L223.45277,183.93404 L223.00706,182.12398 L222.53812,180.3139" fill="rgb(100,100,100)"/>
<path d="M216.29652,175.08965 L215.82756,176.8997 L215.38185,178.70978 L214.98227,180.51984 L214.65112,182.3299 L214.41017,184.13997 L214.28133,185.95003 L214.28897,187.7601 L214.4672,189.57016 L214.88966,191.38022 L216.29652,193.19029 L217.70338,191.38022 L218.12585,189.57016 L218.30406,187.7601 L218.3117,185.95003 L218.18288,184.13997 L217.94193,182.3299 L217.61076,180.51984 L217.21118,178.70978 L216.76547,176.8997 L216.29652,175.08965" fill="rgb(100,100,100)"/>
<path d="M210.44563,162.34239 L209.97668,164.15247 L209.53096,165.96252 L209.13138,167.77258 L208.80023,169.58266 L208.55928,171.39272 L208.43044,173.20279 L208.43808,175.01285 L208.6163,176.8229 L209.03877,178.63298 L210.44563,180.44304 L211.8525,178.63298 L212.27496,176.8229 L212.45319,175.01285 L212.46083,173.20279 L212.33199,171.39272 L212.09103,169.58266 L211.75989,167.77258 L211.36029,165.96252 L210.91458,164.15247 L210.44563,162.34239" fill="rgb(100,100,100)"/>
</svg>