<svg viewBox="0 0 500 300" xmlns="http://www.w3.org/2000/svg">
<path d="M15.638311,165.7671 L14.92795,167.4712 L14.252792,169.17531 L13.647512,170.8794 L13.145891,172.5835 L12.780898,174.2876 L12.585733,175.9917 L12.597315,177.69579 L12.867274,179.39989 L13.507228,181.10399 L15.638311,182.80809 L17.769394,181.10399 L18.409348,179.39989 L18.679308,177.69579 L18.69089,175.9917 L18.495724,174.2876 L18.130732,172.5835 L17.62911,170.8794 L17.02383,169.17531 L16.348673,167.4712 L15.638311,165.7671" fill="rgb(100,100,100)"/>
<path d="M14.695889,160.53658 L13.985528,162.24068 L13.310371,163.94478 L12.7050905,165.64886 L12.20347,167.35297 L11.838476,169.05707 L11.6433115,170.76117 L11.654894,172.46526 L11.924852,174.16936 L12.564806,175.87346 L14.695889,177.57756 L16.826973,175.87346 L17.466927,174.16936 L17.736885,172.46526 L17.748468,170.76117 L17.553303,169.05707 L17.188309,167.35297 L16.68669,165.64886 L16.081408,163.94478 L15.406251,162.24068 L14.695889,160.53658" fill="rgb(100,100,100)"/>
<path d="M14.938675,165.99844 L14.228314,167.70255 L13.553157,169.40665 L12.947876,171.11073 L12.446256,172.81483 L12.081263,174.51894 L11.886097,176.22304 L11.897679,177.92714 L12.167638,179.63123 L12.807591,181.33533 L14.938675,183.03943 L17.06976,181.33533 L17.709713,179.63123 L17.979671,177.92714 L17.991253,176.22304 L17.79609,174.51894 L17.431095,172.81483 L16.929474,171.11073 L16.324194,169.40665 L15.649036,167.70255 L14.938675,165.99844" fill="rgb(100,100,100)"/>
<path d="M22.105467,159.97581 L21.395107,161.67992 L20.71995,163.38402 L20.114668,165.08812 L19.613049,166.7922 L19.248055,168.4963 L19.052889,170.20041 L19.064472,171.90451 L19.33443,173.60861 L19.974384,175.3127 L22.105467,177.0168 L24.236551,175.3127 L24.876505,173.60861 L25.146463,171.90451 L25.158047,170.20041 L24.962881,168.4963 L24.597887,166.7922 L24.096268,165.08812 L23.490986,163.38402 L22.815828,161.67992 L22.105467,159.97581" fill="rgb(100,100,100)"/>
<path d="M16.60677,166.33176 L15.896408,168.03586 L15.221251,169.73996 L14.61597,171.44406 L14.114349,173.14815 L13.749355,174.85225 L13.554191,176.55635 L13.565773,178.26045 L13.8357315,179.96454 L14.475685,181.66864 L16.60677,183.37274 L18.737852,181.66864 L19.377806,179.96454 L19.647764,178.26045 L19.659348,176.55635 L19.464182,174.85225 L19.099188,173.14815 L18.597569,171.44406 L17.992287,169.73996 L17.31713,168.03586 L16.60677,166.33176" fill="rgb(100,100,100)"/>
<path d="M39.873524,166.52911 L39.085888,167.82397 L38.337284,169.11884 L37.66616,170.4137 L37.10997,171.70856 L36.705273,173.00342 L36.488876,174.29828 L36.501717,175.59314 L36.801044,176.888 L37.510612,178.18286 L39.873524,179.47772 L42.23643,178.18286 L42.946003,176.888 L43.245327,175.59314 L43.25817,174.29828 L43.041775,173.00342 L42.637077,171.70856 L42.080887,170.4137 L41.409763,169.11884 L40.66116,167.82397 L39.873524,166.52911" fill="rgb(100,100,100)"/>
<path d="M37.269978,163.85109 L36.48234,165.14595 L35.733738,166.44081 L35.062614,167.73567 L34.506428,169.03053 L34.101727,170.3254 L33.885334,171.62025 L33.898174,172.91513 L34.1975,174.20999 L34.90707,175.50485 L37.269978,176.79971 L39.63289,175.50485 L40.342457,174.20999 L40.641785,172.91513 L40.654625,171.62025 L40.438232,170.3254 L40.03353,169.03053 L39.477345,167.73567 L38.806217,166.44081 L38.057617,165.14595 L37.269978,163.85109" fill="rgb(100,100,100)"/>
<path d="M38.293087,163.3539 L37.50545,164.64876 L36.756847,165.94362 L36.085724,167.23848 L35.529533,168.53336 L35.124836,169.82822 L34.90844,171.12308 L34.921284,172.41794 L35.220608,173.7128 L35.93018,175.00766 L38.293087,176.30252 L40.656,175.00766 L41.365566,173.7128 L41.664894,172.41794 L41.677734,171.12308 L41.461338,169.82822 L41.05664,168.53336 L40.500454,167.23848 L39.829327,165.94362 L39.080723,164.64876 L38.293087,163.3539" fill="rgb(100,100,100)"/>
<path d="M38.00595,163.45328 L37.218315,164.74814 L36.46971,166.043 L35.798588,167.33786 L35.242397,168.63272 L34.8377,169.92758 L34.621304,171.22244 L34.634144,172.5173 L34.93347,173.81216 L35.64304,175.10703 L38.00595,176.40189 L40.36886,175.10703 L41.07843,173.81216 L41.377754,172.5173 L41.3906,171.22244 L41.174202,169.92758 L40.769505,168.63272 L40.213314,167.33786 L39.54219,166.043 L38.793587,164.74814 L38.00595,163.45328" fill="rgb(100,100,100)"/>
<path d="M36.949635,162.14381 L36.162,163.43867 L35.413395,164.73354 L34.74227,166.02841 L34.18608,167.32327 L33.781384,168.61813 L33.564987,169.913 L33.577827,171.20786 L33.877155,172.50272 L34.586723,173.79758 L36.949635,175.09244 L39.312542,173.79758 L40.022114,172.50272 L40.321438,171.20786 L40.334282,169.913 L40.117886,168.61813 L39.71319,167.32327 L39.156998,166.02841 L38.485874,164.73354 L37.73727,163.43867 L36.949635,162.14381" fill="rgb(100,100,100)"/>
<path d="M58.388897,165.70718 L57.95094,166.67232 L57.534687,167.63745 L57.161514,168.60258 L56.85225,169.56772 L56.62722,170.53285 L56.506897,171.49799 L56.514038,172.46312 L56.680473,173.42825 L57.075024,174.39339 L58.388897,175.35852 L59.70277,174.39339 L60.09732,173.42825 L60.263756,172.46312 L60.270897,171.49799 L60.150574,170.53285 L59.925545,169.56772 L59.61628,168.60258 L59.243107,167.63745 L58.826855,166.67232 L58.388897,165.70718" fill="rgb(100,100,100)"/>
<path d="M60.097588,170.79294 L59.65963,171.75807 L59.243378,172.7232 L58.870205,173.68834 L58.560944,174.65347 L58.335915,175.6186 L58.215588,176.58374 L58.22273,177.54887 L58.389168,178.514 L58.783714,179.47914 L60.097588,180.44427 L61.41146,179.47914 L61.80601,178.514 L61.97245,177.54887 L61.979588,176.58374 L61.859264,175.6186 L61.634235,174.65347 L61.324974,173.68834 L60.9518,172.7232 L60.535545,171.75807 L60.097588,170.79294" fill="rgb(100,100,100)"/>
<path d="M59.607105,161.15395 L59.169147,162.11908 L58.752895,163.08421 L58.379723,164.04935 L58.070457,165.01448 L57.84543,165.97961 L57.725105,166.94475 L57.732246,167.90987 L57.89868,168.875 L58.293232,169.84013 L59.607105,170.80527 L60.92098,169.84013 L61.31553,168.875 L61.481964,167.90987 L61.489105,166.94475 L61.368782,165.97961 L61.143753,165.01448 L60.834488,164.04935 L60.461315,163.08421 L60.045063,162.11908 L59.607105,161.15395" fill="rgb(100,100,100)"/>
<path d="M59.61359,164.16171 L59.175632,165.12685 L58.759377,166.09198 L58.386204,167.05711 L58.076942,168.02225 L57.851913,168.98738 L57.73159,169.95251 L57.738728,170.91765 L57.905167,171.88278 L58.299717,172.84792 L59.61359,173.81305 L60.92746,172.84792 L61.32201,171.88278 L61.48845,170.91765 L61.49559,169.95251 L61.375263,168.98738 L61.150234,168.02225 L60.840973,167.05711 L60.4678,166.09198 L60.051548,165.12685 L59.61359,164.16171" fill="rgb(100,100,100)"/>
<path d="M57.079247,168.48582 L56.64129,169.45096 L56.225037,170.41609 L55.851864,171.38123 L55.5426,172.34636 L55.317574,173.3115 L55.197247,174.27663 L55.204388,175.24176 L55.370827,176.2069 L55.765373,177.17203 L57.079247,178.13716 L58.39312,177.17203 L58.78767,176.2069 L58.954105,175.24176 L58.961246,174.27663 L58.840923,173.3115 L58.615894,172.34636 L58.30663,171.38123 L57.93346,170.41609 L57.517204,169.45096 L57.079247,168.48582" fill="rgb(100,100,100)"/>
<path d="M75.22352,162.83029 L74.59669,163.73537 L74.00092,164.64044 L73.46682,165.54553 L73.024185,166.4506 L72.70211,167.35568 L72.52989,168.26076 L72.540115,169.16583 L72.77833,170.07092 L73.343025,170.976 L75.22352,171.88107 L77.10401,170.976 L77.66872,170.07092 L77.90693,169.16583 L77.91715,168.26076 L77.744934,167.35568 L77.42286,166.4506 L76.980225,165.54553 L76.44612,164.64044 L75.85035,163.73537 L75.22352,162.83029" fill="rgb(100,100,100)"/>
<path d="M80.60555,158.83379 L79.97872,159.73886 L79.38296,160.64395 L78.848854,161.54903 L78.40622,162.4541 L78.084145,163.35918 L77.91193,164.26425 L77.92215,165.16934 L78.16036,166.07442 L78.72507,166.97949 L80.60555,167.88457 L82.486046,166.97949 L83.05075,166.07442 L83.28896,165.16934 L83.29919,164.26425 L83.12697,163.35918 L82.80489,162.4541 L82.36226,161.54903 L81.828156,160.64395 L81.23238,159.73886 L80.60555,158.83379" fill="rgb(100,100,100)"/>
<path d="M75.7885,160.97389 L75.16167,161.87897 L74.5659,162.78404 L74.0318,163.68912 L73.589165,164.59421 L73.26709,165.49928 L73.09487,166.40436 L73.105095,167.30943 L73.34331,168.21451 L73.908005,169.1196 L75.7885,170.02467 L77.66899,169.1196 L78.233696,168.21451 L78.47191,167.30943 L78.48213,166.40436 L78.30991,165.49928 L77.98784,164.59421 L77.545204,163.68912 L77.0111,162.78404 L76.41533,161.87897 L75.7885,160.97389" fill="rgb(100,100,100)"/>
<path d="M75.08631,160.42448 L74.45948,161.32956 L73.863716,162.23463 L73.32961,163.13971 L72.88698,164.04478 L72.5649,164.94987 L72.392685,165.85495 L72.40291,166.76003 L72.64112,167.6651 L73.205826,168.57018 L75.08631,169.47527 L76.966805,168.57018 L77.53151,167.6651 L77.76972,166.76003 L77.779945,165.85495 L77.60773,164.94987 L77.28565,164.04478 L76.84302,163.13971 L76.308914,162.23463 L75.71314,161.32956 L75.08631,160.42448" fill="rgb(100,100,100)"/>
<path d="M70.005325,167.76732 L69.378494,168.67241 L68.78272,169.57748 L68.24862,170.48256 L67.805984,171.38763 L67.48391,172.29272 L67.31169,173.1978 L67.321915,174.10287 L67.56013,175.00795 L68.12483,175.91302 L70.005325,176.81812 L71.88582,175.91302 L72.450516,175.00795 L72.68873,174.10287 L72.69895,173.1978 L72.52673,172.29272 L72.20466,171.38763 L71.762024,170.48256 L71.22792,169.57748 L70.63216,168.67241 L70.005325,167.76732" fill="rgb(100,100,100)"/>
<path d="M98.20775,157.68547 L97.38187,159.50018 L96.596924,161.31491 L95.89321,163.12962 L95.31002,164.94435 L94.88567,166.75906 L94.658775,168.57379 L94.67224,170.3885 L94.9861,172.20323 L95.73012,174.01794 L98.20775,175.83267 L100.68538,174.01794 L101.4294,172.20323 L101.743256,170.3885 L101.75672,168.57379 L101.529816,166.75906 L101.10547,164.94435 L100.52228,163.12962 L99.81857,161.31491 L99.03362,159.50018 L98.20775,157.68547" fill="rgb(100,100,100)"/>
<path d="M92.01367,159.4565 L91.1878,161.27122 L90.40285,163.08594 L89.69914,164.90067 L89.11595,166.71538 L88.691605,168.5301 L88.4647,170.34482 L88.478165,172.15955 L88.79202,173.97426 L89.53605,175.78899 L92.01367,177.6037 L94.4913,175.78899 L95.23533,173.97426 L95.54919,172.15955 L95.56265,170.34482 L95.33575,168.5301 L94.9114,166.71538 L94.32821,164.90067 L93.624504,163.08594 L92.839554,161.27122 L92.01367,159.4565" fill="rgb(100,100,100)"/>
<path d="M94.47358,155.59906 L93.647705,157.41377 L92.862755,159.2285 L92.15904,161.04321 L91.57585,162.85794 L91.151505,164.67265 L90.92461,166.48738 L90.93807,168.3021 L91.25193,170.11682 L91.99595,171.93153 L94.47358,173.74626 L96.95121,171.93153 L97.69523,170.11682 L98.00909,168.3021 L98.02255,166.48738 L97.79565,164.67265 L97.3713,162.85794 L96.78811,161.04321 L96.084404,159.2285 L95.29945,157.41377 L94.47358,155.59906" fill="rgb(100,100,100)"/>
<path d="M90.25975,159.16637 L89.433876,160.9811 L88.648926,162.7958 L87.94521,164.61053 L87.36202,166.42525 L86.937675,168.23997 L86.71078,170.05469 L86.72424,171.86942 L87.0381,173.68413 L87.78212,175.49886 L90.25975,177.31357 L92.73738,175.49886 L93.4814,173.68413 L93.79526,171.86942 L93.80872,170.05469 L93.58182,168.23997 L93.15747,166.42525 L92.57428,164.61053 L91.870575,162.7958 L91.085625,160.9811 L90.25975,159.16637" fill="rgb(100,100,100)"/>
<path d="M96.96377,159.55203 L96.137886,161.36676 L95.35294,163.18147 L94.64923,164.9962 L94.06604,166.81091 L93.64169,168.62564 L93.41479,170.44035 L93.42825,172.25508 L93.74211,174.0698 L94.48614,175.88452 L96.96377,177.69923 L99.44139,175.88452 L100.18542,174.0698 L100.499275,172.25508 L100.51274,170.44035 L100.285835,168.62564 L99.86149,166.81091 L99.2783,164.9962 L98.57459,163.18147 L97.78964,161.36676 L96.96377,159.55203" fill="rgb(100,100,100)"/>
<path d="M116.372375,160.77551 L116.01785,162.1766 L115.68089,163.5777 L115.378815,164.97878 L115.12846,166.37987 L114.946304,167.78094 L114.8489,169.18204 L114.85468,170.58313 L114.98941,171.9842 L115.3088,173.3853 L116.372375,174.78638 L117.43595,173.3853 L117.75534,171.9842 L117.89007,170.58313 L117.89585,169.18204 L117.79845,167.78094 L117.61629,166.37987 L117.365944,164.97878 L117.06386,163.5777 L116.726906,162.1766 L116.372375,160.77551" fill="rgb(100,100,100)"/>
<path d="M116.00396,167.56108 L115.64944,168.96216 L115.31248,170.36325 L115.01039,171.76433 L114.76005,173.16542 L114.57789,174.56651 L114.480484,175.96759 L114.48627,177.36868 L114.620995,178.76976 L114.940384,180.17085 L116.00396,181.57195 L117.067535,180.17085 L117.386925,178.76976 L117.52165,177.36868 L117.527435,175.96759 L117.43003,174.56651 L117.24787,173.16542 L116.99752,171.76433 L116.69544,170.36325 L116.35848,168.96216 L116.00396,167.56108" fill="rgb(100,100,100)"/>
<path d="M117.78673,161.0186 L117.4322,162.4197 L117.095245,163.82079 L116.79316,165.22186 L116.542816,166.62296 L116.36066,168.02403 L116.26325,169.42513 L116.269035,170.8262 L116.40376,172.2273 L116.72315,173.62839 L117.78673,175.02946 L118.8503,173.62839 L119.16969,172.2273 L119.30442,170.8262 L119.3102,169.42513 L119.2128,168.02403 L119.03064,166.62296 L118.78029,165.22186 L118.47821,163.82079 L118.14125,162.4197 L117.78673,161.0186" fill="rgb(100,100,100)"/>
<path d="M119.734566,163.41014 L119.38004,164.81123 L119.04309,166.21231 L118.741005,167.6134 L118.490654,169.01448 L118.308495,170.41557 L118.2111,171.81665 L118.21687,173.21774 L118.35161,174.61884 L118.67099,176.01991 L119.734566,177.421 L120.79815,176.01991 L121.11753,174.61884 L121.252266,173.21774 L121.25804,171.81665 L121.160645,170.41557 L120.978485,169.01448 L120.728134,167.6134 L120.42605,166.21231 L120.089096,164.81123 L119.734566,163.41014" fill="rgb(100,100,100)"/>
<path d="M116.666245,164.01273 L116.311714,165.41382 L115.97476,166.8149 L115.672676,168.21599 L115.42233,169.61708 L115.24017,171.01816 L115.14277,172.41925 L115.148544,173.82033 L115.28328,175.22142 L115.60267,176.62251 L116.666245,178.02359 L117.72982,176.62251 L118.04921,175.22142 L118.18394,173.82033 L118.18972,172.41925 L118.092316,171.01816 L117.91016,169.61708 L117.659805,168.21599 L117.35773,166.8149 L117.02077,165.41382 L116.666245,164.01273" fill="rgb(100,100,100)"/>
<path d="M138.37108,165.44313 L137.55426,166.95659 L136.77792,168.47006 L136.08195,169.98352 L135.50516,171.49698 L135.08546,173.01044 L134.86105,174.5239 L134.87437,176.03735 L135.18478,177.55081 L135.92064,179.06429 L138.37108,180.57774 L140.8215,179.06429 L141.55736,177.55081 L141.86777,176.03735 L141.88109,174.5239 L141.65668,173.01044 L141.23698,171.49698 L140.66019,169.98352 L139.96422,168.47006 L139.18788,166.95659 L138.37108,165.44313" fill="rgb(100,100,100)"/>
<path d="M141.01375,157.25798 L140.19693,158.77144 L139.42061,160.2849 L138.72462,161.79836 L138.14783,163.31181 L137.72815,164.82529 L137.50374,166.33875 L137.51704,167.8522 L137.82747,169.36566 L138.56331,170.87912 L141.01375,172.39258 L143.46417,170.87912 L144.20003,169.36566 L144.51044,167.8522 L144.52376,166.33875 L144.29935,164.82529 L143.87965,163.31181 L143.30287,161.79836 L142.60689,160.2849 L141.83055,158.77144 L141.01375,157.25798" fill="rgb(100,100,100)"/>
<path d="M142.78485,156.75945 L141.96805,158.2729 L141.19171,159.78636 L140.49573,161.29982 L139.91895,162.8133 L139.49925,164.32675 L139.27484,165.84021 L139.28816,167.35367 L139.59857,168.86713 L140.33443,170.38058 L142.78485,171.89404 L145.23528,170.38058 L145.97113,168.86713 L146.28154,167.35367 L146.29486,165.84021 L146.07045,164.32675 L145.65077,162.8133 L145.07397,161.29982 L144.37799,159.78636 L143.60167,158.2729 L142.78485,156.75945" fill="rgb(100,100,100)"/>
<path d="M136.95241,154.25539 L136.13559,155.76884 L135.35927,157.2823 L134.66328,158.79576 L134.08649,160.30922 L133.66681,161.8227 L133.4424,163.33615 L133.45572,164.84961 L133.76613,166.36307 L134.50197,167.87653 L136.95241,169.38998 L139.40283,167.87653 L140.13869,166.36307 L140.4491,164.84961 L140.46242,163.33615 L140.238,161.8227 L139.81831,160.30922 L139.24153,158.79576 L138.54555,157.2823 L137.76921,155.76884 L136.95241,154.25539" fill="rgb(100,100,100)"/>
<path d="M136.13837,161.29796 L135.32156,162.81142 L134.54523,164.32487 L133.84924,165.83833 L133.27246,167.35179 L132.85277,168.86525 L132.62836,170.37871 L132.64168,171.89218 L132.95209,173.40564 L133.68794,174.9191 L136.13837,176.43256 L138.58879,174.9191 L139.32465,173.40564 L139.63506,171.89218 L139.64838,170.37871 L139.42397,168.86525 L139.00429,167.35179 L138.42749,165.83833 L137.7315,164.32487 L136.95518,162.81142 L136.13837,161.29796" fill="rgb(100,100,100)"/>
<path d="M158.1967,155.31046 L157.33124,157.23131 L156.50865,159.15218 L155.7712,161.07303 L155.16005,162.9939 L154.71536,164.91475 L154.47757,166.83562 L154.49168,168.75647 L154.82059,170.67732 L155.60028,172.59819 L158.1967,174.51904 L160.79312,172.59819 L161.57281,170.67732 L161.90172,168.75647 L161.91583,166.83562 L161.67805,164.91475 L161.23335,162.9939 L160.62221,161.07303 L159.88477,159.15218 L159.06218,157.23131 L158.1967,155.31046" fill="rgb(100,100,100)"/>
<path d="M157.95819,155.47336 L157.09271,157.39421 L156.27013,159.31508 L155.53268,161.23593 L154.92152,163.1568 L154.47684,165.07765 L154.23906,166.99852 L154.25317,168.91937 L154.58208,170.84023 L155.36177,172.7611 L157.95819,174.68195 L160.5546,172.7611 L161.33429,170.84023 L161.66321,168.91937 L161.6773,166.99852 L161.43953,165.07765 L160.99484,163.1568 L160.38368,161.23593 L159.64624,159.31508 L158.82365,157.39421 L157.95819,155.47336" fill="rgb(100,100,100)"/>
<path d="M157.14395,154.6001 L156.27847,156.52095 L155.4559,158.4418 L154.71844,160.36267 L154.1073,162.28352 L153.6626,164.20439 L153.42482,166.12524 L153.43893,168.04611 L153.76784,169.96696 L154.54753,171.88783 L157.14395,173.80869 L159.74037,171.88783 L160.52007,169.96696 L160.84897,168.04611 L160.86308,166.12524 L160.6253,164.20439 L160.1806,162.28352 L159.56946,160.36267 L158.832,158.4418 L158.00943,156.52095 L157.14395,154.6001" fill="rgb(100,100,100)"/>
<path d="M161.37807,154.0118 L160.51259,155.93266 L159.69,157.85352 L158.95256,159.77438 L158.34142,161.69524 L157.89671,163.6161 L157.65894,165.53696 L157.67305,167.45782 L158.00195,169.37868 L158.78165,171.29955 L161.37807,173.2204 L163.97449,171.29955 L164.75418,169.37868 L165.08308,167.45782 L165.0972,165.53696 L164.8594,163.6161 L164.41472,161.69524 L163.80356,159.77438 L163.06612,157.85352 L162.24353,155.93266 L161.37807,154.0118" fill="rgb(100,100,100)"/>
<path d="M153.26309,160.76675 L152.39761,162.68762 L151.57504,164.60847 L150.83759,166.52933 L150.22644,168.4502 L149.78174,170.37105 L149.54396,172.29192 L149.55807,174.21277 L149.88698,176.13364 L150.66667,178.05449 L153.26309,179.97536 L155.85951,178.05449 L156.6392,176.13364 L156.96811,174.21277 L156.98222,172.29192 L156.74445,170.37105 L156.29974,168.4502 L155.6886,166.52933 L154.95114,164.60847 L154.12857,162.68762 L153.26309,160.76675" fill="rgb(100,100,100)"/>
<path d="M177.22136,153.5484 L176.57341,155.37117 L175.95757,157.19395 L175.40547,159.01672 L174.94792,160.8395 L174.615,162.66226 L174.43698,164.48505 L174.44754,166.30782 L174.69379,168.13058 L175.27751,169.95335 L177.22136,171.77614 L179.16519,169.95335 L179.74892,168.13058 L179.99516,166.30782 L180.00572,164.48505 L179.8277,162.66226 L179.49478,160.8395 L179.03723,159.01672 L178.48514,157.19395 L177.8693,155.37117 L177.22136,153.5484" fill="rgb(100,100,100)"/>
<path d="M177.03897,159.46143 L176.39102,161.28421 L175.77518,163.10698 L175.22308,164.92975 L174.76553,166.75252 L174.43262,168.5753 L174.2546,170.39807 L174.26517,172.22084 L174.5114,174.04361 L175.09512,175.8664 L177.03897,177.68916 L178.9828,175.8664 L179.56653,174.04361 L179.81277,172.22084 L179.82333,170.39807 L179.64532,168.5753 L179.3124,166.75252 L178.85484,164.92975 L178.30275,163.10698 L177.68692,161.28421 L177.03897,159.46143" fill="rgb(100,100,100)"/>
<path d="M185.59743,156.60179 L184.94948,158.42456 L184.33363,160.24733 L183.78154,162.07011 L183.32399,163.89288 L182.99107,165.71565 L182.81305,167.53842 L182.82361,169.3612 L183.06985,171.18398 L183.65358,173.00674 L185.59743,174.82951 L187.54126,173.00674 L188.12498,171.18398 L188.37123,169.3612 L188.38179,167.53842 L188.20378,165.71565 L187.87085,163.89288 L187.4133,162.07011 L186.8612,160.24733 L186.24536,158.42456 L185.59743,156.60179" fill="rgb(100,100,100)"/>
<path d="M180.99492,162.0383 L180.34698,163.86107 L179.73114,165.68384 L179.17905,167.50662 L178.7215,169.32939 L178.38858,171.15216 L178.21056,172.97493 L178.22112,174.79771 L178.46736,176.62048 L179.05109,178.44325 L180.99492,180.26602 L182.93877,178.44325 L183.52249,176.62048 L183.76874,174.79771 L183.7793,172.97493 L183.60127,171.15216 L183.26836,169.32939 L182.8108,167.50662 L182.25871,165.68384 L181.64287,163.86107 L180.99492,162.0383" fill="rgb(100,100,100)"/>
<path d="M183.45627,157.80203 L182.80832,159.6248 L182.19249,161.44757 L181.64038,163.27034 L181.18283,165.09312 L180.84991,166.9159 L180.67189,168.73866 L180.68246,170.56143 L180.9287,172.38422 L181.51242,174.20699 L183.45627,176.02975 L185.4001,174.20699 L185.98383,172.38422 L186.23007,170.56143 L186.24063,168.73866 L186.06262,166.9159 L185.72969,165.09312 L185.27216,163.27034 L184.72005,161.44757 L184.10422,159.6248 L183.45627,157.80203" fill="rgb(100,100,100)"/>
<path d="M198.30501,160.4851 L197.68748,161.99025 L197.10056,163.49539 L196.57437,165.00052 L196.1383,166.50566 L195.82101,168.0108 L195.65135,169.51595 L195.66142,171.02107 L195.8961,172.52621 L196.45242,174.03136 L198.30501,175.53648 L200.1576,174.03136 L200.71391,172.52621 L200.9486,171.02107 L200.95866,169.51595 L200.789,168.0108 L200.47171,166.50566 L200.03564,165.00052 L199.50946,163.49539 L198.92255,161.99025 L198.30501,160.4851" fill="rgb(100,100,100)"/>
<path d="M199.54294,160.55156 L198.9254,162.0567 L198.33849,163.56184 L197.8123,165.06697 L197.37624,166.57211 L197.05893,168.07726 L196.88928,169.58238 L196.89934,171.08752 L197.13402,172.59267 L197.69035,174.09781 L199.54294,175.60294 L201.39552,174.09781 L201.95184,172.59267 L202.18652,171.08752 L202.1966,169.58238 L202.02693,168.07726 L201.70964,166.57211 L201.27356,165.06697 L200.74739,163.56184 L200.16046,162.0567 L199.54294,160.55156" fill="rgb(100,100,100)"/>
<path d="M197.9683,162.15468 L197.35077,163.6598 L196.76385,165.16495 L196.23767,166.67009 L195.8016,168.17523 L195.48431,169.68036 L195.31465,171.1855 L195.32472,172.69064 L195.5594,174.19577 L196.11572,175.70091 L197.9683,177.20605 L199.82089,175.70091 L200.37721,174.19577 L200.6119,172.69064 L200.62196,171.1855 L200.4523,169.68036 L200.13501,168.17523 L199.69894,166.67009 L199.17276,165.16495 L198.58583,163.6598 L197.9683,162.15468" fill="rgb(100,100,100)"/>
<path d="M197.76985,161.92702 L197.15233,163.43214 L196.5654,164.93729 L196.03922,166.44243 L195.60315,167.94756 L195.28586,169.4527 L195.1162,170.95784 L195.12627,172.46298 L195.36095,173.96811 L195.91727,175.47325 L197.76985,176.9784 L199.62244,175.47325 L200.17876,173.96811 L200.41344,172.46298 L200.42351,170.95784 L200.25385,169.4527 L199.93655,167.94756 L199.50049,166.44243 L198.9743,164.93729 L198.38737,163.43214 L197.76985,161.92702" fill="rgb(100,100,100)"/>
<path d="M206.11179,162.48141 L205.49426,163.98656 L204.90733,165.49168 L204.38115,166.99683 L203.94508,168.50197 L203.62779,170.00711 L203.45813,171.51224 L203.4682,173.01738 L203.70288,174.52252 L204.2592,176.02765 L206.11179,177.53279 L207.96437,176.02765 L208.52069,174.52252 L208.75537,173.01738 L208.76544,171.51224 L208.59578,170.00711 L208.27849,168.50197 L207.84242,166.99683 L207.31624,165.49168 L206.72931,163.98656 L206.11179,162.48141" fill="rgb(100,100,100)"/>
</svg>