<svg viewBox="0 0 500 500" xmlns="http://www.w3.org/2000/svg">
<path d="M-14.336675,145.10477 L-13.397015,146.68663 L-11.895566,147.50426 L-9.8733015,148.11996 L-7.456974,148.51474 L-4.82317,148.65971 L-2.1663923,148.54448 L0.32847932,148.18057 L2.5090213,147.59239 L4.2730536,146.78302 L5.5810437,145.10477 L2.7008045,143.7166 L0.25164315,143.383 L-1.7646743,143.27867 L-3.4142938,143.2807 L-4.82317,143.32224 L-6.162044,143.37132 L-7.6241603,143.43242 L-9.395389,143.55353 L-11.616417,143.85141 L-14.336675,145.10477" fill="rgb(100,100,100)"/>
<path d="M1.2685679,146.0366 L1.9944049,147.936 L2.987896,148.84677 L4.2217503,149.48996 L5.618835,149.86192 L7.077741,149.94662 L8.493623,149.74911 L9.7745495,149.29749 L10.853569,148.631 L11.696715,147.7625 L12.307177,146.0366 L10.843141,144.62965 L9.628037,144.28427 L8.638176,144.14978 L7.816137,144.1005 L7.077741,144.07535 L6.321853,144.05463 L5.4428096,144.0597 L4.3452435,144.15907 L2.9610918,144.4984 L1.2685679,146.0366" fill="rgb(100,100,100)"/>
<path d="M1.7613527,141.15924 L3.4784665,142.40552 L4.8806915,142.69063 L5.994857,142.79092 L6.9003344,142.82375 L7.704693,142.84076 L8.523009,142.85263 L9.460823,142.8351 L10.600753,142.7297 L11.992753,142.42375 L13.648033,141.15924 L12.925978,139.61954 L11.940642,138.8622 L10.703236,138.29778 L9.263713,137.93309 L7.704693,137.79622 L6.131716,137.9042 L4.659857,138.2536 L3.396686,138.82314 L2.421575,139.6013 L1.7613527,141.15924" fill="rgb(100,100,100)"/>
<path d="M-3.995101,140.24176 L-1.0128442,141.64923 L1.7533524,142.06924 L4.273938,142.23795 L6.500046,142.23436 L8.398842,142.10634 L9.974136,141.89488 L11.2745905,141.63344 L12.391869,141.33983 L13.451073,140.9973 L14.595814,140.24176 L13.446439,139.48692 L12.385215,139.14552 L11.268421,138.85307 L9.970459,138.5925 L8.398842,138.38144 L6.5038624,138.25317 L4.280567,138.24878 L1.7607216,138.4163 L-1.0075959,138.83508 L-3.995101,140.24176" fill="rgb(100,100,100)"/>
<path d="M-3.27027,135.39105 L-0.87654954,137.23029 L1.4608963,137.84311 L3.7058082,138.13417 L5.783921,138.1839 L7.6231713,138.04114 L9.179796,137.75473 L10.452322,137.37216 L11.485454,136.92792 L12.365868,136.41731 L13.211915,135.39105 L11.980548,134.44817 L10.932226,134.07433 L9.939342,133.76915 L8.873966,133.49174 L7.6231713,133.25041 L6.1012764,133.0801 L4.257017,133.0339 L2.073628,133.1828 L-0.44016913,133.64622 L-3.27027,135.39105" fill="rgb(100,100,100)"/>
<path d="M-11.047913,135.39218 L-10.14092,135.85498 L-8.964755,136.09511 L-7.4830356,136.30081 L-5.635805,136.47478 L-3.383115,136.60353 L-0.73038375,136.66704 L2.2615535,136.64316 L5.4788136,136.50822 L8.766354,136.22423 L11.94648,135.39218 L8.766354,134.56012 L5.4788136,134.27614 L2.2615535,134.14119 L-0.73038375,134.11732 L-3.383115,134.18083 L-5.635805,134.30957 L-7.4830356,134.48355 L-8.964755,134.68924 L-10.14092,134.92937 L-11.047913,135.39218" fill="rgb(100,100,100)"/>
<path d="M-12.274927,131.4963 L-8.897273,133.65543 L-5.7471714,134.30817 L-2.8600786,134.57605 L-0.29680046,134.57722 L1.8984447,134.38332 L3.7228765,134.0568 L5.2255974,133.64966 L6.5063076,133.19096 L7.7049747,132.6576 L8.98513,131.4963 L7.641799,130.34766 L6.415602,129.835 L5.141491,129.39738 L3.6727338,129.00618 L1.8984447,128.6865 L-0.24476798,128.48842 L-2.769704,128.47505 L-5.64671,128.72139 L-8.825726,129.3515 L-12.274927,131.4963" fill="rgb(100,100,100)"/>
<path d="M-0.4723075,131.40149 L0.3507707,133.1739 L1.5498127,134.05324 L3.0918097,134.69312 L4.8798933,135.08203 L6.7834606,135.19739 L8.663587,135.03671 L10.393776,134.62059 L11.8761,133.9818 L13.05276,133.12888 L13.91314,131.40149 L11.925406,129.98473 L10.257486,129.6413 L8.892918,129.52061 L7.7688007,129.49634 L6.7834606,129.50356 L5.8084,129.51622 L4.7045164,129.54782 L3.3425205,129.65807 L1.6275163,129.98087 L-0.4723075,131.40149" fill="rgb(100,100,100)"/>
<path d="M5.212564,125.029724 L6.010072,125.81278 L6.8445086,126.17167 L7.74895,126.47088 L8.792131,126.73311 L10.041984,126.94497 L11.541771,127.07374 L13.297059,127.075516 L15.271742,126.897484 L17.39136,126.457085 L19.551939,125.029724 L17.769054,123.529015 L15.814023,122.96829 L13.79989,122.66791 L11.84155,122.57715 L10.041984,122.66628 L8.481055,122.90238 L7.2086477,123.24899 L6.243901,123.67328 L5.5823264,124.1636 L5.212564,125.029724" fill="rgb(100,100,100)"/>
<path d="M-0.8173184,121.74656 L-0.12411551,122.73789 L0.6644068,123.220116 L1.576986,123.62809 L2.6690078,123.98006 L3.9898686,124.25342 L5.56249,124.40577 L7.373182,124.38481 L9.370053,124.130585 L11.468179,123.548584 L13.559706,121.74656 L11.681368,119.89317 L9.676143,119.22691 L7.657003,118.88699 L5.7316995,118.80123 L3.9898686,118.92582 L2.4934216,119.21616 L1.2720134,119.62723 L0.32539493,120.122795 L-0.36555582,120.69705 L-0.8173184,121.74656" fill="rgb(100,100,100)"/>
<path d="M-1.4499551,115.56229 L-0.93235445,116.83324 L-0.261144,117.49267 L0.58444035,118.057556 L1.6386133,118.5353 L2.924173,118.888855 L4.4380274,119.06326 L6.1454587,118.99771 L7.9814773,118.62714 L9.857602,117.84726 L11.672429,115.56229 L9.857602,113.277306 L7.9814773,112.49744 L6.1454587,112.12686 L4.4380274,112.06131 L2.924173,112.23571 L1.6386133,112.589264 L0.58444035,113.06702 L-0.261144,113.631905 L-0.93235445,114.29133 L-1.4499551,115.56229" fill="rgb(100,100,100)"/>
<path d="M3.0365765,109.86324 L4.4442644,110.66449 L5.5938067,110.847786 L6.5071983,110.91227 L7.2495074,110.93337 L7.90892,110.944305 L8.579774,110.951935 L9.348593,110.94067 L10.283106,110.87291 L11.424266,110.676216 L12.781262,109.86324 L12.189322,108.87335 L11.381545,108.38645 L10.367121,108.023575 L9.187002,107.789116 L7.90892,107.701126 L6.619395,107.77055 L5.4127665,107.99518 L4.3772206,108.361336 L3.577826,108.861626 L3.0365765,109.86324" fill="rgb(100,100,100)"/>
<path d="M3.451526,155.4788 L3.66808,150.4788 L3.9048436,145.4788 L4.1669555,140.4788 L4.4474945,135.4788 L4.7317758,130.4788 L5.0010743,125.4788 L5.235772,120.4788 L5.417939,115.4788 L5.5333357,110.4788" fill="transparent" stroke="rgb(100,100,100)" stroke-width="1"/>
<path d="M6.451526,155.4788 L6.451526,150.4788 L6.451526,145.4788 L6.451526,140.4788 L6.451526,135.4788 L6.451526,130.4788 L6.451526,125.4788 L6.451526,120.4788 L6.451526,115.4788 L6.451526,110.4788" fill="transparent" stroke="rgb(100,100,100)" stroke-width="1"/>
<path d="M23.799383,142.6708 L26.535875,145.03261 L29.072855,145.73659 L31.38335,146.01877 L33.422924,146.01208 L35.16196,145.79698 L36.60448,145.44237 L37.795574,145.00427 L38.819656,144.5124 L39.791645,143.9384 L40.84325,142.6708 L39.791645,141.4032 L38.819656,140.8292 L37.795574,140.33734 L36.60448,139.89923 L35.16196,139.54463 L33.422924,139.32953 L31.38335,139.32283 L29.072855,139.60501 L26.535875,140.30899 L23.799383,142.6708" fill="rgb(100,100,100)"/>
<path d="M30.932472,141.28154 L33.134567,142.44753 L34.932835,142.71426 L36.361683,142.8081 L37.522903,142.8388 L38.554443,142.85472 L39.603886,142.86583 L40.806576,142.84943 L42.268463,142.75082 L44.05362,142.46458 L46.17642,141.28154 L45.250423,139.84102 L43.986794,139.13248 L42.399895,138.60442 L40.553795,138.26323 L38.554443,138.13518 L36.537197,138.2362 L34.649628,138.56308 L33.029686,139.09592 L31.779167,139.82396 L30.932472,141.28154" fill="rgb(100,100,100)"/>
<path d="M24.611504,136.03848 L24.949028,137.03625 L25.665218,137.59798 L26.744535,138.05273 L28.127563,138.37756 L29.722132,138.54134 L31.41606,138.52332 L33.090714,138.31723 L34.63455,137.92683 L35.95582,137.34158 L36.993652,136.03848 L35.05848,134.92297 L33.34618,134.6454 L31.896074,134.56789 L30.703836,134.59842 L29.722132,134.68178 L28.866629,134.78355 L28.028204,134.89261 L27.092161,135.02753 L25.96528,135.25316 L24.611504,136.03848" fill="rgb(100,100,100)"/>
<path d="M30.957363,136.70392 L31.498499,137.72342 L32.20023,138.25237 L33.084263,138.70549 L34.186367,139.08871 L35.53038,139.37231 L37.11307,139.51222 L38.89814,139.45964 L40.81764,139.16238 L42.77907,138.5368 L44.67642,136.70392 L42.77907,134.87103 L40.81764,134.24547 L38.89814,133.94821 L37.11307,133.89563 L35.53038,134.03552 L34.186367,134.31912 L33.084263,134.70235 L32.20023,135.15547 L31.498499,135.68443 L30.957363,136.70392" fill="rgb(100,100,100)"/>
<path d="M9.931852,131.61546 L10.684488,132.19302 L11.660486,132.49269 L12.890039,132.74939 L14.422899,132.96649 L16.292215,133.12715 L18.49349,133.2064 L20.976244,133.17662 L23.645975,133.00822 L26.374023,132.65382 L29.01294,131.61546 L26.374023,130.5771 L23.645975,130.22272 L20.976244,130.0543 L18.49349,130.02452 L16.292215,130.10378 L14.422899,130.26443 L12.890039,130.48155 L11.660486,130.73825 L10.684488,131.0379 L9.931852,131.61546" fill="rgb(100,100,100)"/>
<path d="M23.39665,131.4343 L24.18541,132.14507 L25.23776,132.51791 L26.584995,132.83786 L28.27647,133.10748 L30.341654,133.30527 L32.768436,133.40045 L35.4951,133.35974 L38.413277,133.148 L41.379364,132.70866 L44.23166,131.4343 L41.320984,130.16667 L38.329453,129.7384 L35.417374,129.53789 L32.7221,129.50568 L30.341654,129.6045 L28.324554,129.80006 L26.668512,130.06192 L25.330599,130.37039 L24.251528,130.73116 L23.39665,131.4343" fill="rgb(100,100,100)"/>
<path d="M20.366703,128.09138 L20.750526,129.17607 L21.213097,129.72089 L21.77023,130.18503 L22.450611,130.58195 L23.277431,130.88345 L24.257206,131.0427 L25.374704,131.0047 L26.592834,130.70842 L27.856443,130.05695 L29.098886,128.09138 L27.926006,126.09597 L26.69271,125.39553 L25.467314,125.04944 L24.312418,124.973785 L23.277431,125.11688 L22.393318,125.42825 L21.67072,125.85952 L21.102478,126.37459 L20.671745,126.97289 L20.366703,128.09138" fill="rgb(100,100,100)"/>
<path d="M29.957117,127.94157 L30.280714,129.21492 L30.700346,129.87561 L31.228994,130.44156 L31.888048,130.92021 L32.691765,131.27444 L33.638203,131.44917 L34.70567,131.3835 L35.853523,131.01222 L37.02645,130.23087 L38.161057,127.94157 L37.02645,125.65226 L35.853523,124.87091 L34.70567,124.49963 L33.638203,124.43396 L32.691765,124.608696 L31.888048,124.96291 L31.228994,125.441574 L30.700346,126.00753 L30.280714,126.668205 L29.957117,127.94157" fill="rgb(100,100,100)"/>
<path d="M29.233795,121.15033 L29.715864,122.74582 L30.448856,123.55352 L31.412628,124.15136 L32.546593,124.52466 L33.767776,124.64881 L34.986416,124.517624 L36.119015,124.14638 L37.098846,123.56232 L37.88376,122.77105 L38.461323,121.15033 L37.15671,119.81589 L36.054977,119.494194 L35.15109,119.38765 L34.409355,119.37754 L33.767776,119.401085 L33.1454,119.4306 L32.452686,119.47459 L31.605001,119.58429 L30.539257,119.87906 L29.233795,121.15033" fill="rgb(100,100,100)"/>
<path d="M25.613857,115.851036 L26.221354,116.64544 L27.04542,117.06466 L28.109991,117.424774 L29.451809,117.72763 L31.091148,117.94871 L33.015285,118.05364 L35.172626,118.00563 L37.47544,117.766174 L39.80909,117.27318 L42.04573,115.851036 L39.737312,114.4406 L37.372383,113.96681 L35.07707,113.74689 L32.958313,113.71364 L31.091148,113.824905 L29.510927,114.04211 L28.212671,114.3315 L27.15956,114.671646 L26.302643,115.06989 L25.613857,115.851036" fill="rgb(100,100,100)"/>
<path d="M18.434902,110.88678 L19.912308,111.9209 L21.11858,112.15928 L22.077608,112.245895 L22.859426,112.27795 L23.55841,112.297646 L24.274878,112.312744 L25.100094,112.301765 L26.10462,112.21476 L27.32998,111.95648 L28.783598,110.88678 L28.14411,109.58618 L27.273518,108.949165 L26.183952,108.47701 L24.921057,108.17476 L23.55841,108.065056 L22.188896,108.16109 L20.912975,108.458755 L19.823957,108.93908 L18.990294,109.59116 L18.434902,110.88678" fill="rgb(100,100,100)"/>
<path d="M22.0728,106.50605 L22.566095,107.9393 L23.29354,108.654655 L24.235115,109.17788 L25.331661,109.49854 L26.503044,109.597206 L27.663588,109.470856 L28.734781,109.13525 L29.65524,108.616295 L30.387941,107.92035 L30.92474,106.50605 L29.693113,105.344696 L28.65763,105.06365 L27.80975,104.96662 L27.1121,104.95011 L26.503044,104.960464 L25.903933,104.97552 L25.229084,105.0052 L24.398449,105.09712 L23.352999,105.35927 L22.0728,106.50605" fill="rgb(100,100,100)"/>
<path d="M23.741692,151.71652 L23.958246,146.71652 L24.19501,141.71652 L24.45712,136.71652 L24.73766,131.71652 L25.021942,126.71652 L25.29124,121.71652 L25.525938,116.71652 L25.708105,111.71652 L25.823502,106.71652" fill="transparent" stroke="rgb(100,100,100)" stroke-width="1"/>
<path d="M26.741692,151.71652 L26.741692,146.71652 L26.741692,141.71652 L26.741692,136.71652 L26.741692,131.71652 L26.741692,126.71652 L26.741692,121.71652 L26.741692,116.71652 L26.741692,111.71652 L26.741692,106.71652" fill="transparent" stroke="rgb(100,100,100)" stroke-width="1"/>
<path d="M38.884567,141.65147 L39.434017,142.57251 L40.169422,143.05621 L41.11255,143.47139 L42.29756,143.82112 L43.744576,144.07741 L45.44456,144.20042 L47.353832,144.1471 L49.39616,143.87209 L51.470818,143.30234 L53.464592,141.65147 L51.425526,140.01028 L49.33113,139.45642 L47.293533,139.19754 L45.408615,139.15642 L43.744576,139.28467 L42.334866,139.53777 L41.177338,139.87636 L40.241444,140.27504 L39.48531,140.7414 L38.884567,141.65147" fill="rgb(100,100,100)"/>
<path d="M31.098124,140.77197 L33.490948,142.47656 L36.130642,143.15826 L38.956356,143.56177 L41.820084,143.72385 L44.54897,143.66385 L46.990402,143.4129 L49.041924,143.01323 L50.667797,142.50644 L51.90426,141.90578 L52.855354,140.77197 L50.637203,139.83348 L48.848606,139.55319 L47.35508,139.3722 L45.984734,139.21889 L44.54897,139.0735 L42.86365,138.94894 L40.76891,138.88634 L38.145504,138.95683 L34.925907,139.28859 L31.098124,140.77197" fill="rgb(100,100,100)"/>
<path d="M32.5682,136.74796 L33.195805,137.5877 L34.04248,138.03 L35.13302,138.4098 L36.50581,138.72943 L38.182636,138.96312 L40.15152,139.07455 L42.360554,139.02466 L44.720577,138.7725 L47.11454,138.25204 L49.411507,136.74796 L47.049614,135.25479 L44.627354,134.75227 L42.274117,134.51834 L40.099983,134.48224 L38.182636,134.59958 L36.559288,134.82967 L35.2259,135.1367 L34.14573,135.49788 L33.269337,135.92058 L32.5682,136.74796" fill="rgb(100,100,100)"/>
<path d="M54.733044,134.17494 L55.12669,134.96243 L55.652237,135.37561 L56.325294,135.73021 L57.170467,136.02899 L58.202396,136.24811 L59.41495,136.35352 L60.77722,136.3083 L62.235023,136.0736 L63.71658,135.58676 L65.1411,134.17494 L63.68675,132.77075 L62.192196,132.29646 L60.73751,132.07448 L59.391273,132.03891 L58.202396,132.14844 L57.195034,132.36504 L56.367966,132.65503 L55.699673,132.99661 L55.160473,133.3961 L54.733044,134.17494" fill="rgb(100,100,100)"/>
<path d="M39.404198,131.25327 L40.1329,132.08958 L40.885216,132.46855 L41.69136,132.78358 L42.614845,133.06056 L43.719284,133.28603 L45.046562,133.42522 L46.604733,133.43071 L48.364098,133.24504 L50.259857,132.77847 L52.19981,131.25327 L50.623417,129.64326 L48.886086,129.03764 L47.088745,128.71056 L45.33512,128.60912 L43.719284,128.70248 L42.31541,128.95596 L41.171276,129.33046 L40.307083,129.79004 L39.721165,130.32092 L39.404198,131.25327" fill="rgb(100,100,100)"/>
<path d="M45.381393,129.51303 L46.18721,131.06964 L47.375877,131.84668 L48.914692,132.41508 L50.70696,132.7635 L52.621704,132.87082 L54.518875,132.73367 L56.27011,132.36922 L57.775024,131.80553 L58.973045,131.04953 L59.850792,129.51303 L57.837234,128.25131 L56.144268,127.94599 L54.75799,127.84062 L53.61738,127.82278 L52.621704,127.834145 L51.642433,127.85062 L50.539497,127.882965 L49.182037,127.98287 L47.473534,128.26761 L45.381393,129.51303" fill="rgb(100,100,100)"/>
<path d="M44.4922,126.08014 L44.78971,126.93364 L45.18078,127.37884 L45.67728,127.76054 L46.298378,128.0828 L47.056244,128.32025 L47.947773,128.436 L48.951443,128.38962 L50.02823,128.13814 L51.125717,127.61257 L52.184334,126.08014 L51.115303,124.55163 L50.01328,124.03248 L48.937576,123.787544 L47.939507,123.74611 L47.056244,123.86398 L46.306957,124.10014 L45.692177,124.417885 L45.19734,124.79291 L44.801502,125.23107 L44.4922,126.08014" fill="rgb(100,100,100)"/>
<path d="M28.572355,126.12643 L31.424189,127.149925 L33.75179,127.38979 L35.604702,127.4829 L37.12559,127.5251 L38.504395,127.556725 L39.940346,127.58307 L41.611572,127.57996 L43.652054,127.49481 L46.13571,127.22959 L49.06737,126.12643 L47.755035,124.78917 L45.977016,124.13999 L43.76739,123.66439 L41.22561,123.36599 L38.504395,123.265816 L35.79189,123.374825 L33.288223,123.686295 L31.176758,124.178535 L29.590282,124.837814 L28.572355,126.12643" fill="rgb(100,100,100)"/>
<path d="M49.773533,121.4109 L50.79548,122.47462 L51.63766,122.7583 L52.324047,122.90908 L52.91861,123.0199 L53.502018,123.122154 L54.153534,123.20774 L54.937702,123.23685 L55.895374,123.14062 L57.038666,122.800865 L58.349438,121.4109 L57.687897,119.76577 L56.827515,119.0075 L55.802032,118.485664 L54.66883,118.192894 L53.502018,118.14058 L52.383892,118.32718 L51.395306,118.731514 L50.60526,119.31735 L50.060215,120.058205 L49.773533,121.4109" fill="rgb(100,100,100)"/>
<path d="M42.294952,114.68039 L43.175877,116.01217 L44.476578,116.677284 L46.161266,117.16402 L48.124084,117.46255 L50.221584,117.55474 L52.300323,117.43767 L54.219593,117.1259 L55.869278,116.64346 L57.182823,115.99621 L58.145348,114.68039 L55.938454,113.599785 L54.082657,113.338326 L52.56295,113.24822 L51.31266,113.23317 L50.221584,113.24322 L49.148968,113.25765 L47.94137,113.28562 L46.455364,113.3713 L44.585148,113.61499 L42.294952,114.68039" fill="rgb(100,100,100)"/>
<path d="M41.285995,109.56107 L42.57924,110.813705 L43.634964,111.10472 L44.474808,111.21388 L45.161667,111.25874 L45.779804,111.28958 L46.41822,111.31444 L47.15722,111.3056 L48.058094,111.20077 L49.15587,110.88239 L50.45502,109.56107 L49.878677,107.95686 L49.09588,107.174484 L48.119503,106.59778 L46.991917,106.232086 L45.779804,106.10404 L44.56635,106.2284 L43.44081,106.59867 L42.485558,107.19019 L41.760647,107.98806 L41.285995,109.56107" fill="rgb(100,100,100)"/>
<path d="M43.36725,104.362526 L44.776394,105.949104 L45.927086,106.312614 L46.841496,106.44134 L47.5851,106.484604 L48.246513,106.50798 L48.920425,106.52471 L49.693535,106.503494 L50.633545,106.36945 L51.78117,105.978615 L53.145184,104.36253 L52.549152,102.39532 L51.736187,101.42854 L50.715958,100.708824 L49.529976,100.24467 L48.246513,100.071625 L46.952576,100.21107 L45.742878,100.65825 L44.705845,101.38567 L43.90664,102.378296 L43.36725,104.362526" fill="rgb(100,100,100)"/>
<path d="M44.13058,150.47096 L44.347137,145.47096 L44.5839,140.47096 L44.846012,135.47096 L45.12655,130.47096 L45.41083,125.47097 L45.68013,120.47097 L45.91483,115.47097 L46.096996,110.47097 L46.21239,105.47097" fill="transparent" stroke="rgb(100,100,100)" stroke-width="1"/>
<path d="M47.13058,150.47096 L47.13058,145.47096 L47.13058,140.47096 L47.13058,135.47096 L47.13058,130.47096 L47.13058,125.47097 L47.13058,120.47097 L47.13058,115.47097 L47.13058,110.47097 L47.13058,105.47097" fill="transparent" stroke="rgb(100,100,100)" stroke-width="1"/>
<path d="M64.869354,147.21227 L65.60894,148.92715 L66.70127,149.78372 L68.11629,150.41063 L69.76508,150.79521 L71.52715,150.91408 L73.27358,150.76341 L74.886154,150.362 L76.27231,149.7407 L77.3761,148.90707 L78.18495,147.21227 L76.33069,145.82036 L74.77135,145.4836 L73.494385,145.36758 L72.44384,145.34828 L71.52715,145.36134 L70.6261,145.38008 L69.61177,145.41621 L68.36367,145.5266 L66.792885,145.84042 L64.869354,147.21227" fill="rgb(100,100,100)"/>
<path d="M59.660557,146.59267 L61.07772,147.2869 L62.479736,147.58867 L63.924877,147.83643 L65.53973,148.05637 L67.456154,148.23999 L69.769,148.35912 L72.51154,148.37323 L75.64621,148.23186 L79.0675,147.85643 L82.614456,146.59267 L79.87868,145.24062 L76.810875,144.72038 L73.59148,144.43175 L70.412834,144.33449 L67.456154,144.4059 L64.87162,144.61871 L62.76446,144.9402 L61.189804,145.3385 L60.159046,145.79846 L59.660557,146.59267" fill="rgb(100,100,100)"/>
<path d="M54.88422,143.2463 L58.126896,144.18272 L60.77492,144.39694 L62.87896,144.4723 L64.588905,144.49696 L66.107895,144.50975 L67.65324,144.51866 L69.42425,144.5055 L71.57694,144.4263 L74.20566,144.19643 L77.33156,143.2463 L75.968,142.0894 L74.10725,141.52036 L71.77047,141.09627 L69.05202,140.82225 L66.107895,140.7194 L63.13741,140.80054 L60.357887,141.06306 L57.972458,141.491 L56.131016,142.0757 L54.88422,143.2463" fill="rgb(100,100,100)"/>
<path d="M38.14154,143.69003 L42.411922,145.52893 L46.370953,146.07704 L49.97655,146.29675 L53.159367,146.29153 L55.873188,146.12407 L58.124287,145.84796 L59.983025,145.50687 L61.581135,145.1239 L63.09795,144.67699 L64.73901,143.69003 L63.09795,142.70308 L61.581135,142.25616 L59.983025,141.8732 L58.124287,141.53209 L55.873188,141.256 L53.159367,141.08852 L49.97655,141.0833 L46.370953,141.30301 L42.411922,141.85112 L38.14154,143.69003" fill="rgb(100,100,100)"/>
<path d="M70.546074,137.9314 L70.89362,138.60992 L71.480125,138.98969 L72.317024,139.318 L73.41267,139.58757 L74.756165,139.77347 L76.31007,139.84692 L78.01003,139.78114 L79.77017,139.5511 L81.49231,139.11473 L83.077774,137.9314 L81.21207,136.7973 L79.367805,136.44168 L77.63694,136.29376 L76.08763,136.29007 L74.756165,136.39015 L73.64348,136.55977 L72.717926,136.77272 L71.925766,137.01707 L71.211006,137.30862 L70.546074,137.9314" fill="rgb(100,100,100)"/>
<path d="M62.693443,137.8827 L63.85049,138.52892 L64.79535,138.67674 L65.54611,138.72874 L66.15625,138.74577 L66.69825,138.7546 L67.24966,138.76074 L67.881584,138.75165 L68.649704,138.697 L69.58768,138.53838 L70.70306,137.8827 L70.216515,137.08437 L69.55257,136.69168 L68.718765,136.39902 L67.74877,136.20993 L66.69825,136.13896 L65.63833,136.19495 L64.646545,136.37611 L63.795383,136.67142 L63.138325,137.0749 L62.693443,137.8827" fill="rgb(100,100,100)"/>
<path d="M51.534973,132.41284 L53.566395,133.9018 L55.230747,134.27533 L56.570152,134.45052 L57.700497,134.56238 L58.771286,134.6619 L59.933666,134.74625 L61.316036,134.7686 L63.006794,134.64093 L65.04364,134.20715 L67.4089,132.41284 L66.27735,130.2656 L64.778114,129.25296 L62.958496,128.5366 L60.912872,128.11375 L58.771286,128.00737 L56.684387,128.22354 L54.805294,128.7414 L53.268906,129.51833 L52.169193,130.5242 L51.534973,132.41284" fill="rgb(100,100,100)"/>
<path d="M67.29824,132.39217 L69.804245,133.31595 L71.85069,133.52728 L73.47674,133.60162 L74.79822,133.62596 L75.97212,133.63857 L77.1664,133.64737 L78.535065,133.63437 L80.198715,133.55624 L82.23024,133.32947 L84.646,132.39217 L83.59221,131.25087 L82.15418,130.6895 L80.34828,130.27112 L78.2474,130.00081 L75.97212,129.89935 L73.676476,129.9794 L71.5284,130.23837 L69.68489,130.66054 L68.26179,131.23735 L67.29824,132.39217" fill="rgb(100,100,100)"/>
<path d="M52.464912,126.90643 L53.74832,129.02696 L55.4915,130.03906 L57.64663,130.75087 L60.079185,131.1596 L62.61289,131.24863 L65.06616,131.0246 L67.28062,130.51979 L69.141945,129.7785 L70.593575,128.81552 L71.64364,126.90643 L69.11469,125.35111 L67.01863,124.9684 L65.311775,124.8172 L63.89237,124.758644 L62.61289,124.725815 L61.297215,124.69789 L59.7622,124.699684 L57.843197,124.808304 L55.423172,125.18656 L52.464912,126.90643" fill="rgb(100,100,100)"/>
<path d="M63.707233,122.30908 L65.43714,124.46371 L67.04097,125.10598 L68.50168,125.363464 L69.791145,125.3574 L70.89064,125.16119 L71.802666,124.83767 L72.555725,124.437965 L73.203156,123.9892 L73.817604,123.4655 L74.48234,122.30908 L73.81743,121.15273 L73.2029,120.62915 L72.55549,120.1805 L71.80253,119.780876 L70.89064,119.457405 L69.79129,119.26116 L68.50193,119.25502 L67.04125,119.51238 L65.43734,120.154526 L63.707233,122.30908" fill="rgb(100,100,100)"/>
<path d="M66.319115,118.8778 L67.41954,120.06261 L68.31818,120.33365 L69.0322,120.42899 L69.61249,120.4602 L70.12797,120.47637 L70.6524,120.487656 L71.25341,120.47099 L71.98395,120.3708 L72.87602,120.07994 L73.93683,118.8778 L73.47409,117.41403 L72.84263,116.69405 L72.04962,116.15746 L71.12709,115.81077 L70.12797,115.68065 L69.11991,115.78331 L68.17665,116.11546 L67.367134,116.656906 L66.742226,117.3967 L66.319115,118.8778" fill="rgb(100,100,100)"/>
<path d="M64.573166,113.70475 L64.99699,115.463036 L65.622955,116.341286 L66.43384,116.984055 L67.378685,117.37837 L68.38844,117.50024 L69.389244,117.34577 L70.31333,116.93419 L71.10767,116.29718 L71.740204,115.44246 L72.20372,113.70475 L71.14113,112.27763 L70.24754,111.93234 L69.51578,111.81339 L68.91376,111.79361 L68.38844,111.80701 L67.87209,111.82621 L67.290825,111.86325 L66.5756,111.97644 L65.67545,112.29821 L64.573166,113.70475" fill="rgb(100,100,100)"/>
<path d="M64.34509,158.01573 L64.561646,153.01573 L64.79841,148.01573 L65.06052,143.01573 L65.34106,138.01573 L65.62534,133.01573 L65.89464,128.01573 L66.12933,123.01573 L66.3115,118.01573 L66.4269,113.01573" fill="transparent" stroke="rgb(100,100,100)" stroke-width="1"/>
<path d="M67.34509,158.01573 L67.34509,153.01573 L67.34509,148.01573 L67.34509,143.01573 L67.34509,138.01573 L67.34509,133.01573 L67.34509,128.01573 L67.34509,123.01573 L67.34509,118.01573 L67.34509,113.01573" fill="transparent" stroke="rgb(100,100,100)" stroke-width="1"/>
<path d="M86.18497,146.16672 L87.49097,146.61015 L88.671875,146.7797 L89.777985,146.91173 L90.92623,147.03107 L92.24747,147.13737 L93.84952,147.21478 L95.793945,147.23665 L98.084656,147.1674 L100.666435,146.95158 L103.43141,146.16672 L101.57018,145.29759 L99.382225,144.94357 L96.99711,144.73381 L94.566826,144.64938 L92.24747,144.68126 L90.18189,144.81541 L88.48516,145.03168 L87.23475,145.30736 L86.46746,145.62787 L86.18497,146.16672" fill="rgb(100,100,100)"/>
<path d="M83.33579,146.88718 L84.077644,148.09747 L85.17331,148.70201 L86.59264,149.14445 L88.246475,149.41588 L90.01392,149.49977 L91.765686,149.39343 L93.38318,149.11014 L94.77357,148.67165 L95.88072,148.08331 L96.69205,146.88718 L94.83212,145.90485 L93.26803,145.66716 L91.98717,145.58528 L90.93341,145.57167 L90.01392,145.58089 L89.110115,145.5941 L88.0927,145.61961 L86.84078,145.69753 L85.2652,145.919 L83.33579,146.88718" fill="rgb(100,100,100)"/>
<path d="M76.23545,140.9004 L76.9551,141.76857 L77.88831,142.21901 L79.06397,142.60487 L80.52965,142.93121 L82.317024,143.17271 L84.421814,143.29184 L86.79574,143.24707 L89.34845,142.99394 L91.956924,142.46121 L94.48017,140.9004 L91.956924,139.33958 L89.34845,138.80687 L86.79574,138.55374 L84.421814,138.50896 L82.317024,138.6281 L80.52965,138.8696 L79.06397,139.19594 L77.88831,139.5818 L76.9551,140.03224 L76.23545,140.9004" fill="rgb(100,100,100)"/>
<path d="M79.00407,140.93321 L80.55077,142.20197 L82.83703,142.83595 L85.799934,143.30011 L89.25331,143.58499 L92.94476,143.67325 L96.60419,143.562 L99.98378,143.26506 L102.88941,142.80525 L105.20355,142.18813 L106.89957,140.93321 L103.013245,139.9025 L99.744644,139.65315 L97.067795,139.56735 L94.86573,139.55325 L92.94476,139.56319 L91.05728,139.57732 L88.93322,139.60428 L86.32004,139.68613 L83.031334,139.91838 L79.00407,140.93321" fill="rgb(100,100,100)"/>
<path d="M83.43789,135.61499 L83.800735,136.72643 L84.27628,137.3055 L84.87902,137.8019 L85.63248,138.22115 L86.55173,138.53035 L87.63334,138.68147 L88.851494,138.62173 L90.15903,138.29498 L91.49243,137.6111 L92.779396,135.61499 L91.482506,133.6229 L90.14477,132.94559 L88.83827,132.62552 L87.62546,132.57085 L86.55173,132.72414 L85.640656,133.03201 L84.89323,133.44664 L84.29207,133.9362 L83.81198,134.50809 L83.43789,135.61499" fill="rgb(100,100,100)"/>
<path d="M68.26261,134.27058 L69.234535,135.47545 L70.67237,136.07774 L72.536575,136.51884 L74.70999,136.78973 L77.033775,136.87386 L79.337875,136.7684 L81.466194,136.48647 L83.29639,136.04968 L84.75429,135.46329 L85.8229,134.27058 L83.375336,133.2909 L81.31654,133.05391 L79.63038,132.97247 L78.24339,132.95926 L77.033775,132.96895 L75.84572,132.98264 L74.5092,133.00847 L72.86517,133.08635 L70.79622,133.30696 L68.26261,134.27058" fill="rgb(100,100,100)"/>
<path d="M82.557434,131.41618 L83.39036,132.64389 L84.62054,133.25713 L86.21413,133.70593 L88.07099,133.98126 L90.05542,134.06636 L92.02225,133.9585 L93.83832,133.67111 L95.39941,133.22633 L96.64248,132.62953 L97.55341,131.41618 L95.46515,130.41971 L93.70903,130.1786 L92.27092,130.09555 L91.08779,130.08174 L90.05542,130.0911 L89.040665,130.10449 L87.89833,130.13037 L86.49272,130.2094 L84.72371,130.43407 L82.557434,131.41618" fill="rgb(100,100,100)"/>
<path d="M83.83299,131.05869 L84.26048,132.25014 L84.815865,132.86877 L85.51629,133.39877 L86.38991,133.84692 L87.45537,134.17836 L88.70986,134.34158 L90.1244,134.27968 L91.64497,133.93178 L93.19822,133.20033 L94.70012,131.0587 L93.196175,128.91782 L91.642044,128.18762 L90.12167,127.840996 L88.70824,127.780045 L87.45537,127.94369 L86.391594,128.27487 L85.51921,128.72214 L84.819115,129.25084 L84.262794,129.86812 L83.83299,131.05869" fill="rgb(100,100,100)"/>
<path d="M89.993164,125.659996 L90.54635,126.37648 L91.25733,126.74688 L92.14839,127.063995 L93.25669,127.33252 L94.607735,127.53181 L96.19981,127.6309 L97.9977,127.59528 L99.93399,127.38786 L101.915985,126.949265 L103.83686,125.659996 L101.92857,124.3685 L99.952065,123.92626 L98.014465,123.71514 L96.20979,123.67672 L94.607735,123.77461 L93.24632,123.97464 L92.13039,124.24571 L91.23731,124.56661 L90.53209,124.940994 L89.993164,125.659996" fill="rgb(100,100,100)"/>
<path d="M79.37891,119.72875 L81.246185,120.838745 L82.98706,121.166695 L84.57705,121.28969 L85.97207,121.269 L87.1369,121.14432 L88.062515,120.952675 L88.7738,120.7269 L89.4643,120.53521 L90.2401,120.31349 L91.0159,119.72875 L90.2401,119.14401 L89.4643,118.922295 L88.6885,118.78262 L87.983574,118.60921 L87.1369,118.42769 L86.05398,118.29682 L84.71932,118.25457 L83.14521,118.34561 L81.35882,118.63998 L79.37891,119.72875" fill="rgb(100,100,100)"/>
<path d="M81.87131,115.64431 L83.592155,116.39783 L84.99743,116.570206 L86.11402,116.630844 L87.02147,116.65069 L87.827576,116.66097 L88.647675,116.66815 L89.58753,116.657555 L90.72994,116.593834 L92.12497,116.40885 L93.78385,115.64431 L93.06023,114.71337 L92.07275,114.25548 L90.83264,113.914215 L89.38999,113.693726 L87.827576,113.61097 L86.251175,113.67626 L84.776115,113.887505 L83.5102,114.23186 L82.53297,114.70235 L81.87131,115.64431" fill="rgb(100,100,100)"/>
<path d="M84.46669,111.80888 L84.85457,112.861626 L85.35757,113.40783 L85.99124,113.87573 L86.781235,114.271454 L87.74461,114.56431 L88.87908,114.70877 L90.158615,114.654465 L91.534515,114.34752 L92.94046,113.701546 L94.300476,111.80888 L92.94046,109.91622 L91.534515,109.27025 L90.158615,108.9633 L88.87908,108.909 L87.74461,109.05346 L86.781235,109.34631 L85.99124,109.742035 L85.35757,110.20994 L84.85457,110.75614 L84.46669,111.80888" fill="rgb(100,100,100)"/>
<path d="M84.68465,155.67854 L84.9012,150.67854 L85.13796,145.67854 L85.40008,140.67854 L85.68062,135.67854 L85.9649,130.67854 L86.2342,125.678535 L86.468895,120.678535 L86.65106,115.678535 L86.76646,110.678535" fill="transparent" stroke="rgb(100,100,100)" stroke-width="1"/>
<path d="M87.68465,155.67854 L87.68465,150.67854 L87.68465,145.67854 L87.68465,140.67854 L87.68465,135.67854 L87.68465,130.67854 L87.68465,125.678535 L87.68465,120.678535 L87.68465,115.678535 L87.68465,110.678535" fill="transparent" stroke="rgb(100,100,100)" stroke-width="1"/>
<path d="M108.53473,149.76935 L109.792915,151.6118 L111.351425,152.43672 L113.16927,152.98402 L115.137596,153.26688 L117.11957,153.2846 L118.981316,153.05472 L120.614555,152.61351 L121.95171,152.00388 L122.9743,151.24165 L123.715256,149.76935 L121.87721,148.57292 L120.37656,148.26321 L119.15399,148.11377 L118.11056,148.02058 L117.11957,147.9398 L116.041176,147.86633 L114.73868,147.83182 L113.096,147.90872 L111.03538,148.23933 L108.53473,149.76935" fill="rgb(100,100,100)"/>
<path d="M96.672806,149.51666 L100.11196,150.45203 L102.92043,150.66602 L105.151955,150.74129 L106.96551,150.76591 L108.57653,150.77869 L110.21551,150.7876 L112.09383,150.77444 L114.37695,150.69534 L117.16495,150.46571 L120.480255,149.51666 L119.03407,148.36105 L117.06058,147.79265 L114.582214,147.36903 L111.69904,147.09532 L108.57653,146.9926 L105.42606,147.07364 L102.47813,147.33588 L99.948166,147.76332 L97.99515,148.34737 L96.672806,149.51666" fill="rgb(100,100,100)"/>
<path d="M99.530075,143.75327 L101.07245,145.1529 L102.33197,145.47308 L103.332756,145.58572 L104.14609,145.62259 L104.86859,145.6417 L105.60363,145.65501 L106.44601,145.63533 L107.46993,145.51697 L108.720276,145.17337 L110.2071,143.75327 L109.558525,142.0241 L108.67346,141.17357 L107.56198,140.53969 L106.26896,140.13013 L104.86859,139.97641 L103.45569,140.09769 L102.13361,140.49007 L100.998985,141.12968 L100.12311,142.00362 L99.530075,143.75327" fill="rgb(100,100,100)"/>
<path d="M103.409164,142.15558 L106.89164,143.75812 L110.56915,144.36374 L114.36405,144.69997 L118.09568,144.8125 L121.561714,144.7279 L124.59523,144.48096 L127.10065,144.1136 L129.07129,143.66408 L130.59181,143.14201 L131.82822,142.15558 L129.19304,141.32195 L127.06299,141.05049 L125.23845,140.85583 L123.48502,140.68123 L121.561714,140.51686 L119.247734,140.38176 L116.36503,140.31853 L112.793465,140.39423 L108.47577,140.72609 L103.409164,142.15558" fill="rgb(100,100,100)"/>
<path d="M93.03194,139.1758 L93.80557,139.83984 L94.80881,140.18439 L96.07266,140.47952 L97.64829,140.72914 L99.56977,140.91386 L101.832466,141.00499 L104.38449,140.97075 L107.128716,140.77713 L109.932884,140.36966 L112.64543,139.1758 L109.932884,137.98195 L107.128716,137.57448 L104.38449,137.38086 L101.832466,137.34662 L99.56977,137.43774 L97.64829,137.62247 L96.07266,137.87207 L94.80881,138.16722 L93.80557,138.51175 L93.03194,139.1758" fill="rgb(100,100,100)"/>
<path d="M101.43542,137.85536 L104.780426,139.60753 L107.88156,140.12979 L110.70584,140.33914 L113.19896,140.33418 L115.32471,140.17459 L117.088005,139.91153 L118.54396,139.5865 L119.79577,139.2216 L120.9839,138.79576 L122.269356,137.85536 L120.9839,136.91495 L119.79577,136.4891 L118.54396,136.1242 L117.088005,135.7992 L115.32471,135.53612 L113.19896,135.37654 L110.70584,135.37157 L107.88156,135.58092 L104.780426,136.10318 L101.43542,137.85536" fill="rgb(100,100,100)"/>
<path d="M91.7964,133.38634 L94.225945,135.12793 L96.506546,135.66232 L98.611,135.88692 L100.49088,135.89412 L102.10834,135.74007 L103.45526,135.47469 L104.56182,135.14058 L105.49618,134.76282 L106.357544,134.32518 L107.2643,133.38634 L106.26232,132.46854 L105.35946,132.06543 L104.43504,131.72276 L103.37968,131.41519 L102.10834,131.16118 L100.56931,131.00017 L98.74723,130.98317 L96.657974,131.17188 L94.33379,131.6686 L91.7964,133.38634" fill="rgb(100,100,100)"/>
<path d="M107.47554,131.89857 L109.52554,133.54361 L111.199615,133.91995 L112.52978,134.05234 L113.610794,134.09566 L114.57109,134.11812 L115.54805,134.13377 L116.66768,134.11064 L118.0286,133.97153 L119.69047,133.56769 L121.66665,131.89857 L120.80461,129.86621 L119.62825,128.86655 L118.150955,128.12152 L116.43236,127.64015 L114.57109,127.459496 L112.69317,127.60203 L110.93597,128.06322 L109.42791,128.81497 L108.263756,129.84213 L107.47554,131.89857" fill="rgb(100,100,100)"/>
<path d="M102.82874,129.36118 L104.98478,130.98747 L106.74519,131.36182 L108.14463,131.49704 L109.28482,131.54604 L110.302986,131.57536 L111.34516,131.59756 L112.544426,131.57925 L114.00388,131.44229 L115.78453,131.03741 L117.897804,129.36118 L116.96957,127.32255 L115.70531,126.32329 L114.12207,125.58187 L112.28573,125.10643 L110.302986,124.93278 L108.30881,125.0819 L106.44941,125.54775 L104.86076,126.30085 L103.64271,127.32448 L102.82874,129.36118" fill="rgb(100,100,100)"/>
<path d="M101.3924,122.95226 L103.314514,123.97507 L105.09649,124.27994 L106.71938,124.40214 L108.15198,124.39924 L109.373474,124.30608 L110.3867,124.15252 L111.22333,123.96279 L111.94264,123.74979 L112.62537,123.50121 L113.36401,122.95226 L112.62537,122.40331 L111.94264,122.15473 L111.22333,121.94173 L110.3867,121.75201 L109.373474,121.598434 L108.15198,121.50529 L106.71938,121.50239 L105.09649,121.62459 L103.314514,121.92945 L101.3924,122.95226" fill="rgb(100,100,100)"/>
<path d="M102.2465,118.7331 L103.9258,119.92341 L105.29714,120.19571 L106.386765,120.291504 L107.2723,120.32285 L108.058945,120.3391 L108.85924,120.35043 L109.7764,120.333694 L110.89123,120.23303 L112.25257,119.94083 L113.8714,118.7331 L113.165245,117.26253 L112.20161,116.5392 L110.991455,116.00012 L109.58363,115.65181 L108.058945,115.52109 L106.520615,115.62423 L105.08117,115.957924 L103.84582,116.501884 L102.89218,117.24511 L102.2465,118.73309" fill="rgb(100,100,100)"/>
<path d="M107.07056,113.04123 L107.38174,114.23963 L107.93268,114.8823 L108.70917,115.38164 L109.66415,115.71745 L110.72952,115.86148 L111.82742,115.799126 L112.88055,115.533 L113.821465,115.07655 L114.60038,114.42688 L115.19115,113.04123 L113.97335,111.88004 L112.921196,111.598526 L112.04577,111.51647 L111.32974,111.53349 L110.72952,111.592445 L110.18058,111.662285 L109.60615,111.7399 L108.92978,111.856514 L108.09186,112.09703 L107.07056,113.04123" fill="rgb(100,100,100)"/>
<path d="M106.351875,158.37811 L106.56843,153.37811 L106.80519,148.37811 L107.06731,143.37811 L107.34785,138.37811 L107.632126,133.37811 L107.90142,128.37811 L108.13612,123.378105 L108.31829,118.378105 L108.433685,113.378105" fill="transparent" stroke="rgb(100,100,100)" stroke-width="1"/>
<path d="M109.351875,158.37811 L109.351875,153.37811 L109.351875,148.37811 L109.351875,143.37811 L109.351875,138.37811 L109.351875,133.37811 L109.351875,128.37811 L109.351875,123.378105 L109.351875,118.378105 L109.351875,113.378105" fill="transparent" stroke="rgb(100,100,100)" stroke-width="1"/>
<path d="M125.90724,146.41399 L126.21874,147.16986 L126.64128,147.56876 L127.18714,147.91139 L127.87516,148.19957 L128.71573,148.40993 L129.70233,148.50977 L130.80852,148.46408 L131.98929,148.23624 L133.18587,147.76717 L134.33272,146.41399 L133.14908,145.07196 L131.93646,144.62115 L130.75952,144.4119 L129.67313,144.38025 L128.71573,144.48613 L127.90547,144.6928 L127.239784,144.96815 L126.6998,145.29181 L126.260414,145.67073 L125.90724,146.41399" fill="rgb(100,100,100)"/>
<path d="M124.119576,147.69722 L124.611496,148.53873 L125.27803,148.98264 L126.13858,149.36394 L127.22295,149.68465 L128.54771,149.91884 L130.10274,150.0301 L131.84648,149.97942 L133.70813,149.72595 L135.59508,149.20386 L137.40399,147.69722 L135.53844,146.20268 L133.6268,145.70045 L131.77107,145.46718 L130.05779,145.43176 L128.54771,145.54958 L127.2696,145.77975 L126.2196,146.08655 L125.368095,146.4472 L124.67564,146.86942 L124.119576,147.69722" fill="rgb(100,100,100)"/>
<path d="M129.39784,142.84903 L129.93544,144.59709 L130.72597,145.46835 L131.74765,146.10487 L132.9363,146.49422 L134.20506,146.61302 L135.46118,146.4579 L136.61981,146.04834 L137.61472,145.41608 L138.40616,144.56905 L138.98575,142.84903 L137.65385,141.43704 L136.53456,141.09521 L135.61824,140.97672 L134.86407,140.95569 L134.20506,140.96704 L133.55592,140.98404 L132.82385,141.01907 L131.92229,141.13039 L130.78746,141.4498 L129.39784,142.84903" fill="rgb(100,100,100)"/>
<path d="M116.05015,140.53624 L119.468666,141.0807 L122.265594,141.21461 L124.508575,141.27441 L126.3859,141.31001 L128.14255,141.34087 L130.02867,141.36705 L132.25986,141.37259 L134.98851,141.32646 L138.28545,141.17291 L142.13118,140.53624 L140.32497,139.77155 L137.9168,139.40802 L134.9751,139.14835 L131.64745,138.9924 L128.14255,138.94939 L124.706116,139.02255 L121.59099,139.20543 L119.02236,139.48352 L117.15887,139.84679 L116.05015,140.53624" fill="rgb(100,100,100)"/>
<path d="M126.223145,137.94745 L126.58348,138.8756 L127.06584,139.36305 L127.6845,139.78146 L128.46187,140.1339 L129.4111,140.39217 L130.52628,140.51611 L131.7787,140.46234 L133.1184,140.18518 L134.47925,139.61102 L135.78702,137.94745 L134.4494,136.29369 L133.07553,135.73561 L131.73897,135.47478 L130.50258,135.43336 L129.4111,135.56262 L128.48645,135.81764 L127.7272,136.15881 L127.113304,136.56052 L126.61729,137.03041 L126.223145,137.94745" fill="rgb(100,100,100)"/>
<path d="M123.99721,135.76634 L127.66548,137.24197 L131.06631,137.68182 L134.16353,137.85812 L136.89758,137.85394 L139.22878,137.71954 L141.16248,137.49799 L142.75914,137.22427 L144.13193,136.91696 L145.43488,136.55832 L146.84456,135.76634 L145.43488,134.97435 L144.13193,134.61572 L142.75914,134.30841 L141.16248,134.03468 L139.22878,133.81313 L136.89758,133.67874 L134.16353,133.67456 L131.06631,133.85086 L127.66548,134.2907 L123.99721,135.76634" fill="rgb(100,100,100)"/>
<path d="M117.51257,132.55257 L119.62056,134.93542 L122.04407,135.93256 L124.72355,136.55136 L127.50912,136.82959 L130.22035,136.78366 L132.69077,136.44969 L134.79842,135.88301 L136.48438,135.14204 L137.76039,134.24759 L138.70784,132.55257 L136.38606,131.16649 L134.51114,130.7788 L132.96875,130.55316 L131.59995,130.37624 L130.22035,130.20923 L128.64105,130.06119 L126.689575,129.98401 L124.22953,130.07602 L121.17702,130.51959 L117.51257,132.55257" fill="rgb(100,100,100)"/>
<path d="M113.686035,132.65993 L114.77483,134.96278 L116.074646,135.96202 L117.55228,136.60524 L119.121704,136.9182 L120.67697,136.90805 L122.11711,136.60297 L123.36383,136.05241 L124.37289,135.31169 L125.13964,134.40114 L125.69976,132.65993 L124.30941,131.24266 L123.18087,130.86343 L122.25854,130.66302 L121.45815,130.5211 L120.67697,130.39108 L119.8055,130.27385 L118.739944,130.2142 L117.394875,130.30508 L115.71508,130.72395 L113.686035,132.65993" fill="rgb(100,100,100)"/>
<path d="M124.99601,125.76947 L126.4936,127.92789 L127.88201,128.57123 L129.14647,128.82912 L130.26266,128.823 L131.21439,128.62642 L132.00383,128.30235 L132.65567,127.90198 L133.21611,127.45248 L133.74806,126.9279 L134.32356,125.76947 L133.74806,124.61103 L133.21611,124.08646 L132.65567,123.636955 L132.00383,123.23658 L131.21439,122.91251 L130.26266,122.715935 L129.14647,122.709816 L127.88201,122.9677 L126.4936,123.61105 L124.99601,125.76947" fill="rgb(100,100,100)"/>
<path d="M120.53907,122.67365 L122.43688,123.74157 L123.98667,123.98587 L125.21809,124.07181 L126.21885,124.09994 L127.10785,124.11451 L128.01228,124.12469 L129.04878,124.109665 L130.30867,124.019356 L131.84717,123.757195 L133.67664,122.67365 L132.87859,121.35431 L131.78957,120.70536 L130.42194,120.22171 L128.83093,119.909225 L127.10785,119.79195 L125.36935,119.884476 L123.7426,120.18386 L122.3465,120.671875 L121.26877,121.338684 L120.53907,122.67365" fill="rgb(100,100,100)"/>
<path d="M124.43501,115.945946 L124.89539,117.21028 L125.493034,117.86655 L126.2464,118.42877 L127.18586,118.9042 L128.33157,119.25591 L129.68065,119.42925 L131.202,119.36376 L132.83762,118.99481 L134.50864,118.21878 L136.1247,115.945946 L134.50739,113.67356 L132.83583,112.898285 L131.20033,112.530106 L129.67966,112.465195 L128.33157,112.63878 L127.18689,112.99034 L126.24819,113.46524 L125.495026,114.02668 L124.89681,114.68213 L124.43501,115.945946" fill="rgb(100,100,100)"/>
<path d="M123.14064,111.40645 L124.3812,112.23163 L125.402435,112.449326 L126.2328,112.56268 L126.94869,112.6443 L127.64678,112.719246 L128.42256,112.782074 L129.3544,112.80281 L130.4927,112.72887 L131.85373,112.469505 L133.41756,111.40645 L132.63538,110.14588 L131.61496,109.56255 L130.39502,109.159164 L129.04295,108.93074 L127.64678,108.88682 L126.30492,109.02705 L125.11464,109.33587 L124.15947,109.786 L123.49598,110.35758 L123.14064,111.40645" fill="rgb(100,100,100)"/>
<path d="M126.42752,156.61685 L126.64407,151.61685 L126.88084,146.61685 L127.14295,141.61685 L127.423485,136.61685 L127.70777,131.61685 L127.977066,126.61686 L128.21176,121.61686 L128.39394,116.61686 L128.50932,111.61686" fill="transparent" stroke="rgb(100,100,100)" stroke-width="1"/>
<path d="M129.42752,156.61685 L129.42752,151.61685 L129.42752,146.61685 L129.42752,141.61685 L129.42752,136.61685 L129.42752,131.61685 L129.42752,126.61686 L129.42752,121.61686 L129.42752,116.61686 L129.42752,111.61686" fill="transparent" stroke="rgb(100,100,100)" stroke-width="1"/>
<path d="M125.89382,141.862 L127.27528,142.53885 L128.61824,142.82733 L129.97919,143.06265 L131.48244,143.27245 L133.25949,143.44963 L135.40778,143.5671 L137.96655,143.58487 L140.90712,143.45264 L144.13483,143.09206 L147.50023,141.862 L144.96448,140.5381 L142.0983,140.02362 L139.07108,139.73485 L136.06628,139.63425 L133.25949,139.70099 L130.79913,139.9092 L128.79234,140.22694 L127.298935,140.62227 L126.33569,141.07887 L125.89382,141.862" fill="rgb(100,100,100)"/>
<path d="M128.2607,140.90842 L130.86586,142.45638 L132.99329,142.81052 L134.68367,142.93513 L136.05748,142.97595 L137.27792,142.99715 L138.5196,143.01195 L139.94267,142.99022 L141.67247,142.85931 L143.78473,142.47925 L146.29648,140.90842 L145.20074,138.99573 L143.70552,138.05496 L141.82784,137.35387 L139.64351,136.9009 L137.27792,136.73094 L134.89122,136.86514 L132.65804,137.2992 L130.74155,138.00668 L129.2622,138.9733 L128.2607,140.90842" fill="rgb(100,100,100)"/>
<path d="M138.42555,135.79239 L141.14218,137.14424 L143.36063,137.4535 L145.12334,137.5623 L146.55588,137.5979 L147.82845,137.61635 L149.1231,137.62923 L150.60681,137.61021 L152.41028,137.4959 L154.61255,137.16403 L157.23135,135.79239 L156.08899,134.12224 L154.5301,133.30075 L152.57242,132.6885 L150.29497,132.29292 L147.82845,132.14447 L145.33986,132.2616 L143.01125,132.64058 L141.01279,133.25836 L139.47008,134.10246 L138.42555,135.79239" fill="rgb(100,100,100)"/>
<path d="M124.27422,138.2871 L125.77638,140.0421 L127.994995,140.9187 L130.86902,141.56027 L134.21785,141.95386 L137.79675,142.0755 L141.3439,141.92133 L144.61916,141.51051 L147.43456,140.8747 L149.67644,140.02156 L151.31929,138.2871 L147.55313,136.86264 L144.38599,136.51799 L141.79237,136.39926 L139.65862,136.37952 L137.79675,136.39288 L135.96664,136.41205 L133.90646,136.44902 L131.37148,136.56201 L128.18106,136.88318 L124.27422,138.2871" fill="rgb(100,100,100)"/>
<path d="M131.22035,133.3006 L132.28864,134.35112 L133.86644,134.87584 L135.91032,135.25987 L138.2919,135.49545 L140.83708,135.56827 L143.35968,135.47598 L145.68893,135.23007 L147.69113,134.84949 L149.28548,134.33882 L150.45381,133.3006 L147.77545,132.44794 L145.5231,132.24164 L143.67862,132.17058 L142.16118,132.15875 L140.83708,132.16676 L139.53557,132.17822 L138.07045,132.20036 L136.26765,132.26799 L133.99876,132.46024 L131.22035,133.3006" fill="rgb(100,100,100)"/>
<path d="M140.34306,131.0258 L140.98,131.62654 L141.80595,131.93822 L142.84648,132.20523 L144.1437,132.43105 L145.72565,132.59816 L147.58852,132.68059 L149.6896,132.64961 L151.94891,132.47444 L154.25758,132.10583 L156.49083,131.0258 L154.25758,129.94577 L151.94891,129.57715 L149.6896,129.402 L147.58852,129.371 L145.72565,129.45345 L144.1437,129.62054 L142.84648,129.84637 L141.80595,130.11337 L140.98,130.42506 L140.34306,131.0258" fill="rgb(100,100,100)"/>
<path d="M129.50304,128.51862 L131.33353,129.99663 L133.60506,130.65933 L136.25783,131.09964 L139.13281,131.32777 L142.0299,131.34302 L144.7531,131.15916 L147.14359,130.80524 L149.10185,130.31557 L150.6,129.70282 L151.68532,128.51862 L148.99403,127.55631 L146.79607,127.30754 L145.00555,127.18803 L143.47844,127.11403 L142.0299,127.05012 L140.4555,126.992004 L138.5552,126.964874 L136.15884,127.026794 L133.1523,127.29191 L129.50304,128.51862" fill="rgb(100,100,100)"/>
<path d="M132.0527,127.20001 L135.074,128.79565 L137.87503,129.27126 L140.426,129.4619 L142.67784,129.45738 L144.59789,129.31206 L146.19054,129.07248 L147.5056,128.7765 L148.63626,128.4442 L149.70941,128.0564 L150.87047,127.20001 L149.70941,126.34362 L148.63626,125.955826 L147.5056,125.62353 L146.19054,125.327545 L144.59789,125.087975 L142.67784,124.94265 L140.426,124.938126 L137.87503,125.12877 L135.074,125.60438 L132.0527,127.20001" fill="rgb(100,100,100)"/>
<path d="M139.15224,122.315254 L140.65958,123.409515 L142.05702,123.73567 L143.32971,123.86641 L144.45317,123.86331 L145.41109,123.76366 L146.20566,123.59936 L146.86176,123.39638 L147.42584,123.168495 L147.96124,122.90255 L148.5405,122.315254 L147.96124,121.72795 L147.42584,121.46201 L146.86176,121.23412 L146.20566,121.03114 L145.41109,120.86685 L144.45317,120.76719 L143.32971,120.76409 L142.05702,120.89483 L140.65958,121.22099 L139.15224,122.315254" fill="rgb(100,100,100)"/>
<path d="M145.3755,118.113266 L145.69148,118.744804 L146.1125,119.07592 L146.65111,119.36005 L147.3271,119.59952 L148.15242,119.775246 L149.12233,119.85992 L150.21228,119.823906 L151.37903,119.63594 L152.56523,119.24571 L153.70624,118.113266 L152.54295,116.98653 L151.34705,116.60568 L150.18262,116.42725 L149.10464,116.39845 L148.15242,116.48622 L147.34546,116.66006 L146.68298,116.892944 L146.14793,117.16733 L145.71672,117.4882 L145.3755,118.113266" fill="rgb(100,100,100)"/>
<path d="M143.44608,112.86141 L145.17416,115.156364 L146.78436,115.84481 L148.25755,116.120316 L149.5605,116.10922 L150.66856,115.88948 L151.57907,115.53016 L152.31706,115.08963 L152.93477,114.60204 L153.55757,114.068115 L154.27982,112.86141 L153.55757,111.65471 L152.87256,111.168564 L152.25938,110.71116 L151.5447,110.293465 L150.66856,109.943924 L149.59619,109.7182 L148.31953,109.686295 L146.85327,109.93094 L145.22322,110.58696 L143.44608,112.86141" fill="rgb(100,100,100)"/>
<path d="M143.80524,108.19076 L144.21445,109.10063 L144.7451,109.57271 L145.4136,109.97711 L146.24702,110.31913 L147.26337,110.572235 L148.4602,110.6971 L149.81007,110.65016 L151.26161,110.38487 L152.74484,109.82656 L154.17963,108.19076 L152.74484,106.554955 L151.26161,105.99664 L149.81007,105.73135 L148.4602,105.684425 L147.26337,105.80928 L146.24702,106.062386 L145.4136,106.4044 L144.7451,106.80881 L144.21445,107.28089 L143.80524,108.19076" fill="rgb(100,100,100)"/>
<path d="M144.62764,152.248 L144.8442,147.248 L145.08096,142.248 L145.34308,137.248 L145.62361,132.248 L145.9079,127.248 L146.17719,122.248 L146.41188,117.248 L146.59406,112.248 L146.70946,107.248" fill="transparent" stroke="rgb(100,100,100)" stroke-width="1"/>
<path d="M147.62764,152.248 L147.62764,147.248 L147.62764,142.248 L147.62764,137.248 L147.62764,132.248 L147.62764,127.248 L147.62764,122.248 L147.62764,117.248 L147.62764,112.248 L147.62764,107.248" fill="transparent" stroke="rgb(100,100,100)" stroke-width="1"/>
<path d="M146.67076,139.83206 L150.06917,140.67502 L152.84782,140.88017 L155.07227,140.96928 L156.92606,141.02003 L158.64917,141.06322 L160.488,141.09982 L162.65659,141.10616 L165.30821,141.03513 L168.51717,140.80156 L172.2695,139.83206 L170.52477,138.66531 L168.19064,138.10823 L165.3293,137.7082 L162.08145,137.46573 L158.64917,137.39572 L155.27257,137.5041 L152.20036,137.78174 L149.65538,138.20717 L147.79553,138.76572 L146.67076,139.83206" fill="rgb(100,100,100)"/>
<path d="M163.16997,141.67873 L163.49629,142.46474 L164.12767,142.91566 L165.07306,143.30624 L166.33084,143.62341 L167.87448,143.8363 L169.64725,143.91208 L171.56422,143.82234 L173.5199,143.54247 L175.39966,143.02971 L177.09367,141.67873 L174.96547,140.4057 L172.89648,140.0208 L170.98618,139.87094 L169.30263,139.87953 L167.87448,139.99745 L166.68845,140.18457 L165.6942,140.41206 L164.81813,140.66974 L163.98804,140.981 L163.16997,141.67873" fill="rgb(100,100,100)"/>
<path d="M151.79735,136.21234 L152.88162,137.27394 L154.28766,137.82474 L156.05898,138.29657 L158.26724,138.69563 L160.96022,138.99094 L164.13141,139.13661 L167.70811,139.08186 L171.55418,138.77232 L175.48427,138.12093 L179.28593,136.21234 L175.48427,134.30376 L171.55418,133.65236 L167.70811,133.34282 L164.13141,133.28807 L160.96022,133.43375 L158.26724,133.72906 L156.05898,134.12811 L154.28766,134.59995 L152.88162,135.15074 L151.79735,136.21234" fill="rgb(100,100,100)"/>
<path d="M162.17122,134.65364 L163.178,135.48357 L164.52295,135.9191 L166.24602,136.29291 L168.41002,136.60783 L171.05226,136.83878 L174.15686,136.9498 L177.6445,136.90205 L181.37634,136.65457 L185.16856,136.14145 L188.81435,134.65364 L185.09062,133.17407 L181.26443,132.67441 L177.54074,132.44064 L174.09499,132.40326 L171.05226,132.51872 L168.47421,132.74693 L166.35751,133.05243 L164.6469,133.41222 L163.26627,133.83304 L162.17122,134.65364" fill="rgb(100,100,100)"/>
<path d="M152.069,130.96251 L154.60088,131.94058 L156.94817,132.23212 L159.08589,132.34897 L160.97296,132.34619 L162.58195,132.25713 L163.91661,132.11028 L165.01865,131.92885 L165.96616,131.72514 L166.86546,131.48744 L167.83844,130.96251 L166.86546,130.43756 L165.96616,130.19986 L165.01865,129.99617 L163.91661,129.81474 L162.58195,129.6679 L160.97296,129.57881 L159.08589,129.57603 L156.94817,129.6929 L154.60088,129.98442 L152.069,130.96251" fill="rgb(100,100,100)"/>
<path d="M160.42429,129.67001 L164.08998,131.58461 L167.51598,132.16629 L170.66295,132.40692 L173.4626,132.41023 L175.86397,132.23914 L177.86102,131.94887 L179.50452,131.58577 L180.90091,131.17621 L182.20139,130.70056 L183.5838,129.67001 L182.10832,128.6546 L180.76729,128.20378 L179.38062,127.81946 L177.78716,127.47545 L175.86397,127.19336 L173.53925,127.017265 L170.79608,127.00317 L167.66397,127.21799 L164.19539,127.77255 L160.42429,129.67001" fill="rgb(100,100,100)"/>
<path d="M153.03207,124.15036 L154.12071,125.34916 L155.00925,125.63019 L155.71658,125.73939 L156.29724,125.78903 L156.82378,125.826324 L157.37228,125.857414 L158.01077,125.85393 L158.79037,125.75421 L159.73927,125.443375 L160.85922,124.15036 L160.35774,122.583046 L159.67836,121.82231 L158.83415,121.265076 L157.86316,120.91558 L156.82378,120.79843 L155.78786,120.92639 L154.83183,121.29155 L154.02576,121.86844 L153.42029,122.640915 L153.03207,124.15036" fill="rgb(100,100,100)"/>
<path d="M157.27785,125.80607 L158.26865,127.468315 L159.732,128.29858 L161.62764,128.90625 L163.83647,129.27902 L166.19704,129.39424 L168.53667,129.24821 L170.69698,128.85912 L172.55396,128.2569 L174.03265,127.44886 L175.11624,125.80607 L172.63216,124.45691 L170.54317,124.13048 L168.83247,124.01803 L167.4251,123.99933 L166.19704,124.011986 L164.98994,124.03014 L163.63109,124.06516 L161.95905,124.17217 L159.85472,124.476364 L157.27785,125.80607" fill="rgb(100,100,100)"/>
<path d="M150.83574,121.751915 L152.34778,123.21267 L154.07549,123.82009 L155.97676,124.19466 L157.94617,124.360664 L159.85732,124.32914 L161.59424,124.122856 L163.07294,123.77609 L164.2541,123.32466 L165.14842,122.78114 L165.81541,121.751915 L164.19046,120.90903 L162.8787,120.67115 L161.79759,120.53054 L160.83391,120.418846 L159.85732,120.31328 L158.73515,120.22015 L157.34715,120.17181 L155.59883,120.22864 L153.4327,120.50219 L150.83574,121.751915" fill="rgb(100,100,100)"/>
<path d="M155.73196,114.272545 L156.77333,115.49718 L157.76625,116.00691 L158.75307,116.4194 L159.82826,116.7891 L161.09332,117.10576 L162.6258,117.32107 L164.46085,117.361786 L166.58333,117.13444 L168.92859,116.49369 L171.39009,114.272545 L169.5858,111.8651 L167.52695,110.91876 L165.33582,110.380646 L163.14745,110.18634 L161.09332,110.300964 L159.28696,110.67921 L157.8129,111.263214 L156.72115,111.99338 L156.029,112.836914 L155.73196,114.272545" fill="rgb(100,100,100)"/>
<path d="M163.83871,109.75167 L164.2916,110.67955 L164.87889,111.16097 L165.61876,111.57338 L166.54115,111.922165 L167.66599,112.18028 L168.99059,112.30761 L170.48454,112.25975 L172.09102,111.98921 L173.7326,111.41985 L175.32054,109.75167 L173.7326,108.08348 L172.09102,107.51412 L170.48454,107.24358 L168.99059,107.195724 L167.66599,107.32305 L166.54115,107.58117 L165.61876,107.929955 L164.87889,108.34236 L164.2916,108.823784 L163.83871,109.75167" fill="rgb(100,100,100)"/>
<path d="M162.43619,106.9753 L163.75304,107.76741 L164.8284,107.94862 L165.68285,108.01237 L166.37724,108.033226 L166.9941,108.04404 L167.62166,108.05158 L168.34087,108.04044 L169.21507,107.97346 L170.2826,107.77901 L171.552,106.9753 L170.99828,105.9967 L170.24261,105.51535 L169.29366,105.15661 L168.1897,104.92483 L166.9941,104.83784 L165.7878,104.90647 L164.65904,105.12853 L163.69032,105.49052 L162.94252,105.98511 L162.43619,106.9753" fill="rgb(100,100,100)"/>
<path d="M162.43095,150.62479 L162.6475,145.62479 L162.88426,140.62479 L163.14638,135.62479 L163.42693,130.62479 L163.7112,125.624794 L163.9805,120.624794 L164.2152,115.624794 L164.39737,110.624794 L164.51276,105.624794" fill="transparent" stroke="rgb(100,100,100)" stroke-width="1"/>
<path d="M165.43095,150.62479 L165.43095,145.62479 L165.43095,140.62479 L165.43095,135.62479 L165.43095,130.62479 L165.43095,125.624794 L165.43095,120.624794 L165.43095,115.624794 L165.43095,110.624794 L165.43095,105.624794" fill="transparent" stroke="rgb(100,100,100)" stroke-width="1"/>
<path d="M189.10487,148.48091 L190.54543,149.30984 L192.47661,149.70229 L194.84558,149.97627 L197.50487,150.1316 L200.26228,150.16263 L202.92122,150.07266 L205.31174,149.8749 L207.3132,149.58702 L208.86867,149.21512 L209.992,148.48091 L207.266,147.88344 L205.01215,147.73578 L203.17809,147.67596 L201.64917,147.65067 L200.26228,147.6346 L198.82484,147.6204 L197.13824,147.61847 L195.02516,147.65935 L192.36047,147.80682 L189.10487,148.48091" fill="rgb(100,100,100)"/>
<path d="M185.05301,146.90979 L186.61191,148.54115 L188.91429,149.35599 L191.89682,149.95235 L195.3721,150.3182 L199.08614,150.43127 L202.76723,150.28796 L206.16615,149.9061 L209.08786,149.31506 L211.41438,148.52205 L213.11926,146.90979 L209.2109,145.58571 L205.92418,145.26535 L203.23264,145.15498 L201.01831,145.13663 L199.08614,145.14906 L197.18694,145.16687 L195.04897,145.20125 L192.41824,145.30626 L189.10738,145.6048 L185.05301,146.90979" fill="rgb(100,100,100)"/>
<path d="M190.05998,142.7107 L190.60098,143.62195 L191.3314,144.10202 L192.27264,144.5143 L193.4577,144.86122 L194.90526,145.11479 L196.60484,145.23564 L198.51155,145.18135 L200.54831,144.90758 L202.61407,144.3427 L204.59581,142.7107 L202.55693,141.09079 L200.46628,140.54576 L198.43549,140.29214 L196.5595,140.25313 L194.90526,140.38051 L193.50476,140.6301 L192.35437,140.96309 L191.42227,141.35475 L190.6657,141.81316 L190.05998,142.7107" fill="rgb(100,100,100)"/>
<path d="M181.06123,142.7064 L181.94913,143.9904 L183.10051,144.6566 L184.55101,145.22728 L186.35931,145.70995 L188.56454,146.06712 L191.16138,146.24332 L194.09029,146.1771 L197.23975,145.80272 L200.45802,145.01483 L203.57115,142.7064 L200.45802,140.39798 L197.23975,139.6101 L194.09029,139.23573 L191.16138,139.16951 L188.56454,139.3457 L186.35931,139.70288 L184.55101,140.18553 L183.10051,140.75623 L181.94913,141.42241 L181.06123,142.7064" fill="rgb(100,100,100)"/>
<path d="M176.38934,136.8486 L177.06688,137.56009 L177.94547,137.92924 L179.05232,138.24547 L180.4322,138.51292 L182.11496,138.71085 L184.09656,138.80847 L186.33154,138.77177 L188.73485,138.56433 L191.19064,138.12775 L193.56621,136.8486 L191.19064,135.56946 L188.73485,135.13287 L186.33154,134.92543 L184.09656,134.88873 L182.11496,134.98636 L180.4322,135.18428 L179.05232,135.45174 L177.94547,135.76796 L177.06688,136.13712 L176.38934,136.8486" fill="rgb(100,100,100)"/>
<path d="M191.82922,138.62576 L193.03345,139.46245 L194.0735,139.74602 L194.98964,139.94873 L195.87988,140.1282 L196.85878,140.29277 L198.0275,140.41957 L199.45409,140.46272 L201.16248,140.35674 L203.1289,139.99718 L205.28473,138.62576 L203.96896,137.07062 L202.3686,136.40968 L200.57248,135.99722 L198.69426,135.80861 L196.85878,135.83609 L195.18799,136.06139 L193.7879,136.45222 L192.73764,136.96823 L192.08208,137.58101 L191.82922,138.62576" fill="rgb(100,100,100)"/>
<path d="M180.90439,133.48247 L182.92606,135.77675 L185.23143,136.72879 L187.76453,137.3146 L190.38525,137.57298 L192.92595,137.52173 L195.23308,137.19693 L197.19579,136.65262 L198.76282,135.94504 L199.94946,135.09387 L200.83578,133.48247 L198.68071,132.16214 L196.9412,131.78844 L195.50667,131.56639 L194.22606,131.38928 L192.92595,131.22182 L191.43022,131.07434 L189.5795,130.99786 L187.249,131.08736 L184.36295,131.51784 L180.90439,133.48247" fill="rgb(100,100,100)"/>
<path d="M175.55034,134.19437 L176.98907,135.81674 L178.16386,136.18944 L179.09761,136.32292 L179.85776,136.3698 L180.5354,136.39674 L181.22766,136.41672 L182.02321,136.39696 L182.99098,136.26015 L184.17209,135.85806 L185.57469,134.19437 L184.95998,132.1702 L184.12222,131.17693 L183.07214,130.43887 L181.85301,129.96443 L180.5354,129.78958 L179.20883,129.93568 L177.9705,130.39719 L176.91096,131.14526 L176.09677,132.16377 L175.55034,134.19437" fill="rgb(100,100,100)"/>
<path d="M178.57466,126.87763 L179.66882,128.35852 L180.56235,128.6973 L181.2723,128.81647 L181.84927,128.85547 L182.36183,128.87569 L182.88327,128.88979 L183.48085,128.86896 L184.20723,128.74373 L185.09422,128.38019 L186.14899,126.87763 L185.68889,125.04807 L185.06102,124.14817 L184.27254,123.47749 L183.35526,123.04415 L182.36183,122.88152 L181.35951,123.009834 L180.42162,123.424995 L179.61671,124.10174 L178.99536,125.026405 L178.57466,126.87763" fill="rgb(100,100,100)"/>
<path d="M182.66032,121.544136 L183.43279,122.69758 L184.20547,123.204865 L185.01028,123.6229 L185.91588,123.99309 L186.99309,124.30008 L188.2918,124.49667 L189.82773,124.51599 L191.57756,124.27536 L193.48087,123.646 L195.4472,121.544136 L193.90909,119.30353 L192.1924,118.446625 L190.39783,117.97459 L188.63168,117.8189 L186.99309,117.940506 L185.56319,118.29336 L184.3977,118.823135 L183.52452,119.47772 L182.94781,120.23357 L182.66032,121.544136" fill="rgb(100,100,100)"/>
<path d="M184.39415,117.22338 L185.0507,118.86147 L186.01987,119.67947 L187.27498,120.27801 L188.73717,120.64506 L190.29956,120.75832 L191.8479,120.614235 L193.27736,120.23074 L194.50597,119.637405 L195.48418,118.84142 L196.20094,117.22338 L194.55728,115.89461 L193.17517,115.57309 L192.04338,115.46225 L191.11223,115.44366 L190.29956,115.45591 L189.50056,115.47356 L188.6009,115.50786 L187.49379,115.613174 L186.10042,115.91289 L184.39415,117.22338" fill="rgb(100,100,100)"/>
<path d="M184.5285,113.83281 L184.89157,114.38517 L185.36256,114.671814 L185.95607,114.91736 L186.69606,115.12502 L187.5985,115.27868 L188.66115,115.35445 L189.85962,115.32591 L191.14825,115.16481 L192.46495,114.82583 L193.7385,113.83281 L192.46457,112.83987 L191.14772,112.50102 L189.85912,112.34004 L188.66086,112.31161 L187.5985,112.38742 L186.69638,112.541046 L185.95662,112.74862 L185.36317,112.99403 L184.892,113.28053 L184.5285,113.83281" fill="rgb(100,100,100)"/>
<path d="M183.78514,157.88121 L184.00171,152.88121 L184.23846,147.88121 L184.50058,142.88121 L184.78111,137.88121 L185.0654,132.88121 L185.3347,127.8812 L185.5694,122.8812 L185.75156,117.8812 L185.86696,112.8812" fill="transparent" stroke="rgb(100,100,100)" stroke-width="1"/>
<path d="M186.78514,157.88121 L186.78514,152.88121 L186.78514,147.88121 L186.78514,142.88121 L186.78514,137.88121 L186.78514,132.88121 L186.78514,127.8812 L186.78514,122.8812 L186.78514,117.8812 L186.78514,112.8812" fill="transparent" stroke="rgb(100,100,100)" stroke-width="1"/>
</svg>