<svg viewBox="0 0 500 500" xmlns="http://www.w3.org/2000/svg">
<path d="M6.921471,148.94966 L6.410573,150.47702 L5.924994,152.0044 L5.4896708,153.53177 L5.128901,155.05914 L4.8663945,156.58652 L4.72603,158.11389 L4.73436,159.64127 L4.928517,161.16864 L5.3887773,162.696 L6.921471,164.22337 L8.4541645,162.696 L8.914425,161.16864 L9.108582,159.64127 L9.116912,158.11389 L8.976547,156.58652 L8.714041,155.05914 L8.3532715,153.53177 L7.9179482,152.0044 L7.4323688,150.47702 L6.921471,148.94966" fill="rgb(100,100,100)"/>
<path d="M7.1072454,148.93903 L6.5963473,150.4664 L6.1107683,151.99377 L5.675445,153.52115 L5.3146753,155.04852 L5.052169,156.5759 L4.9118047,158.10327 L4.9201345,159.63063 L5.114291,161.158 L5.5745516,162.68538 L7.1072454,164.21275 L8.639939,162.68538 L9.1002,161.158 L9.294356,159.63063 L9.302687,158.10327 L9.162322,156.5759 L8.899816,155.04852 L8.539045,153.52115 L8.103723,151.99377 L7.6181436,150.4664 L7.1072454,148.93903" fill="rgb(100,100,100)"/>
<path d="M7.050599,148.93272 L6.5397015,150.4601 L6.0541224,151.98747 L5.618799,153.51485 L5.2580295,155.0422 L4.995523,156.56958 L4.8551583,158.09695 L4.863488,159.62433 L5.0576453,161.1517 L5.5179057,162.67908 L7.050599,164.20645 L8.583293,162.67908 L9.043553,161.1517 L9.23771,159.62433 L9.24604,158.09695 L9.105676,156.56958 L8.843169,155.0422 L8.4824,153.51485 L8.047076,151.98747 L7.561497,150.4601 L7.050599,148.93272" fill="rgb(100,100,100)"/>
<path d="M7.2107534,149.01526 L6.6998553,150.54263 L6.2142763,152.07 L5.778953,153.59737 L5.4181833,155.12474 L5.155677,156.65211 L5.0153127,158.17949 L5.0236425,159.70686 L5.217799,161.23424 L5.6780596,162.76161 L7.2107534,164.28899 L8.743447,162.76161 L9.203708,161.23424 L9.397864,159.70686 L9.406195,158.17949 L9.26583,156.65211 L9.003324,155.12474 L8.642553,153.59737 L8.207231,152.07 L7.7216516,150.54263 L7.2107534,149.01526" fill="rgb(100,100,100)"/>
<path d="M6.9632354,148.66435 L6.4523377,150.19173 L5.9667583,151.7191 L5.5314355,153.24648 L5.1706657,154.77385 L4.9081593,156.30121 L4.7677946,157.82858 L4.7761245,159.35596 L4.9702816,160.88333 L5.4305415,162.4107 L6.9632354,163.93808 L8.49593,162.4107 L8.95619,160.88333 L9.150347,159.35596 L9.158676,157.82858 L9.0183115,156.30121 L8.755806,154.77385 L8.395036,153.24648 L7.9597125,151.7191 L7.4741335,150.19173 L6.9632354,148.66435" fill="rgb(100,100,100)"/>
<path d="M29.18162,151.59877 L28.524563,152.92764 L27.900066,154.2565 L27.340202,155.58536 L26.876223,156.91423 L26.538616,158.24309 L26.358097,159.57195 L26.368809,160.90082 L26.618511,162.22968 L27.210445,163.55853 L29.18162,164.8874 L31.152796,163.55853 L31.74473,162.22968 L31.99443,160.90082 L32.005146,159.57195 L31.824623,158.24309 L31.487019,156.91423 L31.023037,155.58536 L30.463175,154.2565 L29.838678,152.92764 L29.18162,151.59877" fill="rgb(100,100,100)"/>
<path d="M29.054134,151.38092 L28.397076,152.70978 L27.77258,154.03864 L27.212717,155.36751 L26.748735,156.69637 L26.41113,158.02522 L26.23061,159.3541 L26.241323,160.68295 L26.491026,162.01181 L27.08296,163.34068 L29.054134,164.66954 L31.025309,163.34068 L31.617243,162.01181 L31.866945,160.68295 L31.877659,159.3541 L31.697138,158.02522 L31.359531,156.69637 L30.895552,155.36751 L30.335688,154.03864 L29.711193,152.70978 L29.054134,151.38092" fill="rgb(100,100,100)"/>
<path d="M29.103748,151.65135 L28.446692,152.98021 L27.822195,154.30908 L27.262333,155.63794 L26.798351,156.9668 L26.460745,158.29567 L26.280226,159.62453 L26.290937,160.95338 L26.54064,162.28226 L27.132574,163.61111 L29.103748,164.93997 L31.074924,163.61111 L31.666859,162.28226 L31.91656,160.95338 L31.927273,159.62453 L31.746752,158.29567 L31.409147,156.9668 L30.945166,155.63794 L30.385303,154.30908 L29.760807,152.98021 L29.103748,151.65135" fill="rgb(100,100,100)"/>
<path d="M28.983843,151.45029 L28.326786,152.77914 L27.70229,154.108 L27.142426,155.43687 L26.678446,156.76573 L26.34084,158.09459 L26.16032,159.42346 L26.171032,160.75232 L26.420734,162.08118 L27.012669,163.41005 L28.983843,164.7389 L30.955019,163.41005 L31.546953,162.08118 L31.796654,160.75232 L31.807367,159.42346 L31.626846,158.09459 L31.289242,156.76573 L30.82526,155.43687 L30.265398,154.108 L29.640902,152.77914 L28.983843,151.45029" fill="rgb(100,100,100)"/>
<path d="M29.217598,151.47227 L28.56054,152.80113 L27.936043,154.12999 L27.37618,155.45886 L26.912199,156.78772 L26.574594,158.11658 L26.394073,159.44545 L26.404787,160.7743 L26.65449,162.10316 L27.246422,163.43204 L29.217598,164.7609 L31.188772,163.43204 L31.780706,162.10316 L32.030407,160.7743 L32.041122,159.44545 L31.860601,158.11658 L31.522995,156.78772 L31.059015,155.45886 L30.499151,154.12999 L29.874657,152.80113 L29.217598,151.47227" fill="rgb(100,100,100)"/>
<path d="M49.181698,142.71054 L48.742687,144.68585 L48.325436,146.66118 L47.951363,148.6365 L47.641357,150.61182 L47.415787,152.58714 L47.295174,154.56245 L47.30233,156.53778 L47.46917,158.5131 L47.864666,160.48842 L49.181698,162.46375 L50.498734,160.48842 L50.89423,158.5131 L51.06107,156.53778 L51.068226,154.56245 L50.947613,152.58714 L50.722042,150.61182 L50.412037,148.6365 L50.037964,146.66118 L49.620712,144.68585 L49.181698,142.71054" fill="rgb(100,100,100)"/>
<path d="M48.993176,142.67784 L48.554165,144.65317 L48.13691,146.62848 L47.76284,148.6038 L47.45283,150.57913 L47.227264,152.55444 L47.106647,154.52977 L47.113808,156.50508 L47.280643,158.48041 L47.676144,160.45573 L48.993176,162.43105 L50.310207,160.45573 L50.705708,158.48041 L50.872543,156.50508 L50.879704,154.52977 L50.75909,152.55444 L50.53352,150.57913 L50.22351,148.6038 L49.84944,146.62848 L49.432186,144.65317 L48.993176,142.67784" fill="rgb(100,100,100)"/>
<path d="M48.971546,142.99228 L48.532536,144.9676 L48.11528,146.94292 L47.74121,148.91824 L47.431202,150.89355 L47.205635,152.86888 L47.08502,154.84421 L47.09218,156.81952 L47.259014,158.79485 L47.654514,160.77017 L48.971546,162.74548 L50.288578,160.77017 L50.68408,158.79485 L50.850918,156.81952 L50.858074,154.84421 L50.73746,152.86888 L50.51189,150.89355 L50.20188,148.91824 L49.827812,146.94292 L49.410557,144.9676 L48.971546,142.99228" fill="rgb(100,100,100)"/>
<path d="M48.85331,143.05324 L48.4143,145.02855 L47.997044,147.00388 L47.62297,148.97919 L47.312965,150.95451 L47.087395,152.92984 L46.96678,154.90515 L46.973938,156.88048 L47.140778,158.85579 L47.536274,160.83112 L48.85331,162.80644 L50.17034,160.83112 L50.56584,158.85579 L50.732677,156.88048 L50.739838,154.90515 L50.61922,152.92984 L50.39365,150.95451 L50.083645,148.97919 L49.709576,147.00388 L49.29232,145.02855 L48.85331,143.05324" fill="rgb(100,100,100)"/>
<path d="M49.06843,142.7961 L48.62942,144.77142 L48.212166,146.74673 L47.838097,148.72206 L47.528088,150.69739 L47.302517,152.6727 L47.181904,154.64803 L47.18906,156.62334 L47.3559,158.59866 L47.7514,160.57399 L49.06843,162.5493 L50.385464,160.57399 L50.780964,158.59866 L50.9478,156.62334 L50.95496,154.64803 L50.834343,152.6727 L50.608776,150.69739 L50.298767,148.72206 L49.924698,146.74673 L49.507442,144.77142 L49.06843,142.7961" fill="rgb(100,100,100)"/>
<path d="M69.16458,149.83936 L68.77613,151.48306 L68.40693,153.12675 L68.07594,154.77046 L67.801636,156.41415 L67.60204,158.05786 L67.49532,159.70155 L67.501656,161.34526 L67.64928,162.98895 L67.99923,164.63266 L69.16458,166.27635 L70.32993,164.63266 L70.679886,162.98895 L70.82751,161.34526 L70.83384,159.70155 L70.72712,158.05786 L70.52753,156.41415 L70.25323,154.77046 L69.92223,153.12675 L69.55303,151.48306 L69.16458,149.83936" fill="rgb(100,100,100)"/>
<path d="M69.17129,149.70908 L68.78284,151.35278 L68.413635,152.99648 L68.08264,154.64018 L67.80834,156.28387 L67.60875,157.92758 L67.50202,159.57127 L67.50836,161.21498 L67.65598,162.85867 L68.005936,164.50238 L69.17129,166.14607 L70.33664,164.50238 L70.68659,162.85867 L70.83421,161.21498 L70.840546,159.57127 L70.733826,157.92758 L70.53423,156.28387 L70.259926,154.64018 L69.92894,152.99648 L69.55974,151.35278 L69.17129,149.70908" fill="rgb(100,100,100)"/>
<path d="M69.296394,149.4493 L68.90794,151.09299 L68.53874,152.7367 L68.207756,154.38039 L67.93345,156.0241 L67.73386,157.66779 L67.62714,159.3115 L67.63347,160.95518 L67.78109,162.59889 L68.13104,164.24258 L69.296394,165.88629 L70.46175,164.24258 L70.8117,162.59889 L70.95932,160.95518 L70.96565,159.3115 L70.85893,157.66779 L70.65934,156.0241 L70.38503,154.38039 L70.05405,152.7367 L69.684845,151.09299 L69.296394,149.4493" fill="rgb(100,100,100)"/>
<path d="M69.02645,149.49438 L68.638,151.13809 L68.2688,152.78178 L67.93781,154.42549 L67.663506,156.06918 L67.46391,157.71289 L67.35719,159.35658 L67.363525,161.00029 L67.51115,162.64398 L67.8611,164.28769 L69.02645,165.93138 L70.1918,164.28769 L70.541756,162.64398 L70.68938,161.00029 L70.69571,159.35658 L70.58899,157.71289 L70.3894,156.06918 L70.1151,154.42549 L69.7841,152.78178 L69.4149,151.13809 L69.02645,149.49438" fill="rgb(100,100,100)"/>
<path d="M69.28804,149.51828 L68.89958,151.16197 L68.53039,152.80568 L68.199394,154.44937 L67.925095,156.09308 L67.7255,157.73677 L67.618774,159.38046 L67.62511,161.02417 L67.772736,162.66786 L68.12268,164.31157 L69.28804,165.95526 L70.45339,164.31157 L70.80334,162.66786 L70.950966,161.02417 L70.9573,159.38046 L70.85057,157.73677 L70.650986,156.09308 L70.37668,154.44937 L70.04569,152.80568 L69.67649,151.16197 L69.28804,149.51828" fill="rgb(100,100,100)"/>
<path d="M87.83342,144.05855 L87.397316,145.50089 L86.98283,146.94322 L86.61124,148.38556 L86.30328,149.82791 L86.079216,151.27025 L85.9594,152.71259 L85.96651,154.15492 L86.13224,155.59726 L86.525116,157.0396 L87.83342,158.48193 L89.14172,157.0396 L89.5346,155.59726 L89.70033,154.15492 L89.70744,152.71259 L89.58763,151.27025 L89.363556,149.82791 L89.0556,148.38556 L88.68401,146.94322 L88.26952,145.50089 L87.83342,144.05855" fill="rgb(100,100,100)"/>
<path d="M87.76148,144.11234 L87.325386,145.55469 L86.9109,146.99702 L86.53931,148.43936 L86.23135,149.8817 L86.00728,151.32404 L85.88746,152.76637 L85.89457,154.20871 L86.0603,155.65106 L86.45318,157.0934 L87.76148,158.53574 L89.069786,157.0934 L89.46266,155.65106 L89.628395,154.20871 L89.635506,152.76637 L89.51569,151.32404 L89.29162,149.8817 L88.983665,148.43936 L88.612076,146.99702 L88.197586,145.55469 L87.76148,144.11234" fill="rgb(100,100,100)"/>
<path d="M87.75647,143.89442 L87.32037,145.33676 L86.90588,146.7791 L86.534294,148.22144 L86.22634,149.66377 L86.002266,151.10611 L85.88245,152.54846 L85.88956,153.9908 L86.05529,155.43314 L86.448166,156.87547 L87.75647,158.31781 L89.06477,156.87547 L89.45765,155.43314 L89.62338,153.9908 L89.63049,152.54846 L89.51068,151.10611 L89.286606,149.66377 L88.97865,148.22144 L88.60706,146.7791 L88.19257,145.33676 L87.75647,143.89442" fill="rgb(100,100,100)"/>
<path d="M87.59576,144.11102 L87.15965,145.55336 L86.74516,146.9957 L86.37357,148.43803 L86.06562,149.88039 L85.841545,151.32272 L85.72173,152.76506 L85.72884,154.2074 L85.89457,155.64973 L86.28745,157.09207 L87.59576,158.53441 L88.90406,157.09207 L89.296936,155.64973 L89.46266,154.2074 L89.46977,152.76506 L89.34996,151.32272 L89.125885,149.88039 L88.81793,148.43803 L88.44634,146.9957 L88.03185,145.55336 L87.59576,144.11102" fill="rgb(100,100,100)"/>
<path d="M87.870186,143.84676 L87.43409,145.2891 L87.0196,146.73145 L86.64801,148.17378 L86.34006,149.61612 L86.11598,151.05846 L85.99616,152.5008 L86.00327,153.94313 L86.16901,155.38547 L86.56188,156.82782 L87.870186,158.27016 L89.17849,156.82782 L89.571365,155.38547 L89.7371,153.94313 L89.74421,152.5008 L89.6244,151.05846 L89.40032,149.61612 L89.09237,148.17378 L88.72078,146.73145 L88.30629,145.2891 L87.870186,143.84676" fill="rgb(100,100,100)"/>
<path d="M109.96731,145.95604 L109.55336,146.87349 L109.15993,147.79095 L108.80721,148.7084 L108.5149,149.62587 L108.30221,150.54332 L108.188484,151.46078 L108.19523,152.37823 L108.35254,153.2957 L108.725464,154.21317 L109.96731,155.13062 L111.20915,154.21317 L111.58207,153.2957 L111.73938,152.37823 L111.74613,151.46078 L111.6324,150.54332 L111.41971,149.62587 L111.1274,148.7084 L110.77469,147.79095 L110.381256,146.87349 L109.96731,145.95604" fill="rgb(100,100,100)"/>
<path d="M110.05351,145.93776 L109.639565,146.85522 L109.24613,147.77267 L108.89342,148.69014 L108.601105,149.6076 L108.38841,150.52505 L108.27469,151.44252 L108.28143,152.35997 L108.43874,153.27744 L108.81167,154.19489 L110.05351,155.11235 L111.29536,154.19489 L111.668274,153.27744 L111.825584,152.35997 L111.83234,151.44252 L111.718605,150.52505 L111.50591,149.6076 L111.21361,148.69014 L110.86089,147.77267 L110.46746,146.85522 L110.05351,145.93776" fill="rgb(100,100,100)"/>
<path d="M109.980125,146.37187 L109.56618,147.28934 L109.172745,148.20679 L108.82003,149.12425 L108.52772,150.0417 L108.315025,150.95917 L108.2013,151.87662 L108.208046,152.79408 L108.36536,153.71153 L108.73828,154.629 L109.980125,155.54646 L111.22197,154.629 L111.59489,153.71153 L111.7522,152.79408 L111.75895,151.87662 L111.64522,150.95917 L111.432526,150.0417 L111.14022,149.12425 L110.787506,148.20679 L110.39407,147.28934 L109.980125,146.37187" fill="rgb(100,100,100)"/>
<path d="M110.10863,145.97128 L109.69468,146.88875 L109.30124,147.80621 L108.948524,148.72366 L108.65622,149.64113 L108.44353,150.55858 L108.329796,151.47604 L108.33655,152.3935 L108.49386,153.31096 L108.86678,154.22842 L110.10863,155.14587 L111.350464,154.22842 L111.72339,153.31096 L111.8807,152.3935 L111.88745,151.47604 L111.77372,150.55858 L111.56103,149.64113 L111.26872,148.72366 L110.91601,147.80621 L110.52257,146.88875 L110.10863,145.97128" fill="rgb(100,100,100)"/>
<path d="M109.88046,146.09758 L109.466515,147.01505 L109.07308,147.93251 L108.72037,148.84996 L108.428055,149.76743 L108.21536,150.68488 L108.10164,151.60234 L108.10838,152.51979 L108.2657,153.43726 L108.63862,154.35472 L109.88046,155.27217 L111.12231,154.35472 L111.495224,153.43726 L111.652534,152.51979 L111.65929,151.60234 L111.545555,150.68488 L111.33286,149.76743 L111.04056,148.84996 L110.68784,147.93251 L110.29441,147.01505 L109.88046,146.09758" fill="rgb(100,100,100)"/>
<path d="M130.28046,146.6286 L129.88509,148.08891 L129.50932,149.54921 L129.17244,151.00952 L128.89325,152.46982 L128.69011,153.93013 L128.58148,155.39043 L128.58794,156.85074 L128.73819,158.31104 L129.09436,159.77135 L130.28046,161.23164 L131.46655,159.77135 L131.82272,158.31104 L131.97298,156.85074 L131.97943,155.39043 L131.8708,153.93013 L131.66766,152.46982 L131.38847,151.00952 L131.05159,149.54921 L130.67583,148.08891 L130.28046,146.6286" fill="rgb(100,100,100)"/>
<path d="M130.37491,146.73099 L129.97955,148.19128 L129.60378,149.6516 L129.26689,151.1119 L128.98772,152.5722 L128.78456,154.0325 L128.67595,155.49281 L128.68239,156.95311 L128.83264,158.41342 L129.18881,159.87372 L130.37491,161.33403 L131.561,159.87372 L131.91719,158.41342 L132.06743,156.95311 L132.07388,155.49281 L131.96526,154.0325 L131.76212,152.5722 L131.48293,151.1119 L131.14604,149.6516 L130.77028,148.19128 L130.37491,146.73099" fill="rgb(100,100,100)"/>
<path d="M130.32478,146.41365 L129.92941,147.87395 L129.55363,149.33426 L129.21677,150.79456 L128.93758,152.25487 L128.73444,153.71516 L128.62581,155.17548 L128.63225,156.63577 L128.7825,158.09608 L129.13869,159.55638 L130.32478,161.0167 L131.51086,159.55638 L131.86705,158.09608 L132.0173,156.63577 L132.02374,155.17548 L131.91512,153.71516 L131.71198,152.25487 L131.43279,150.79456 L131.09592,149.33426 L130.72014,147.87395 L130.32478,146.41365" fill="rgb(100,100,100)"/>
<path d="M130.24225,146.71867 L129.8469,148.17899 L129.47112,149.63928 L129.13423,151.0996 L128.85506,152.55989 L128.6519,154.0202 L128.54329,155.4805 L128.54973,156.94081 L128.69998,158.40111 L129.05615,159.86142 L130.24225,161.32172 L131.42834,159.86142 L131.78452,158.40111 L131.93477,156.94081 L131.94122,155.4805 L131.8326,154.0202 L131.62946,152.55989 L131.35027,151.0996 L131.01338,149.63928 L130.63762,148.17899 L130.24225,146.71867" fill="rgb(100,100,100)"/>
<path d="M130.57295,146.47882 L130.1776,147.93912 L129.80182,149.39943 L129.46494,150.85973 L129.18576,152.32004 L128.9826,153.78033 L128.874,155.24065 L128.88043,156.70094 L129.03069,158.16125 L129.38687,159.62155 L130.57295,161.08186 L131.75905,159.62155 L132.11523,158.16125 L132.26547,156.70094 L132.27193,155.24065 L132.1633,153.78033 L131.96016,152.32004 L131.68097,150.85973 L131.34409,149.39943 L130.96832,147.93912 L130.57295,146.47882" fill="rgb(100,100,100)"/>
<path d="M148.3778,154.60468 L147.54729,155.72443 L146.75792,156.84416 L146.05026,157.96391 L145.46379,159.08366 L145.03705,160.2034 L144.80888,161.32315 L144.82242,162.4429 L145.13805,163.56264 L145.88625,164.68239 L148.3778,165.80214 L150.86937,164.68239 L151.61757,163.56264 L151.9332,162.4429 L151.94675,161.32315 L151.71857,160.2034 L151.29182,159.08366 L150.70535,157.96391 L149.9977,156.84416 L149.20833,155.72443 L148.3778,154.60468" fill="rgb(100,100,100)"/>
<path d="M148.45769,154.26273 L147.62717,155.38248 L146.8378,156.50221 L146.13014,157.62196 L145.54367,158.74171 L145.11694,159.86145 L144.88876,160.9812 L144.9023,162.10094 L145.21793,163.22069 L145.96613,164.34044 L148.45769,165.46017 L150.94925,164.34044 L151.69746,163.22069 L152.01308,162.10094 L152.02663,160.9812 L151.79845,159.86145 L151.3717,158.74171 L150.78523,157.62196 L150.07758,156.50221 L149.28821,155.38248 L148.45769,154.26273" fill="rgb(100,100,100)"/>
<path d="M148.47153,154.47218 L147.641,155.59192 L146.85164,156.71167 L146.14398,157.83142 L145.55751,158.95116 L145.13077,160.0709 L144.90259,161.19064 L144.91614,162.3104 L145.23175,163.43015 L145.97997,164.54988 L148.47153,165.66963 L150.96309,164.54988 L151.71129,163.43015 L152.02692,162.3104 L152.04045,161.19064 L151.81227,160.0709 L151.38554,158.95116 L150.79907,157.83142 L150.09142,156.71167 L149.30205,155.59192 L148.47153,154.47218" fill="rgb(100,100,100)"/>
<path d="M148.32237,154.59833 L147.49185,155.71808 L146.70248,156.83781 L145.99483,157.95757 L145.40836,159.07732 L144.98161,160.19705 L144.75343,161.3168 L144.76698,162.43655 L145.0826,163.55629 L145.83081,164.67604 L148.32237,165.79579 L150.81393,164.67604 L151.56213,163.55629 L151.87776,162.43655 L151.8913,161.3168 L151.66313,160.19705 L151.23639,159.07732 L150.64992,157.95757 L149.94226,156.83781 L149.1529,155.71808 L148.32237,154.59833" fill="rgb(100,100,100)"/>
<path d="M148.26576,154.60675 L147.43524,155.7265 L146.64589,156.84625 L145.93822,157.96599 L145.35175,159.08574 L144.92502,160.20549 L144.69684,161.32523 L144.71037,162.44498 L145.026,163.56473 L145.7742,164.68446 L148.26576,165.80421 L150.75732,164.68446 L151.50554,163.56473 L151.82115,162.44498 L151.8347,161.32523 L151.60652,160.20549 L151.1798,159.08574 L150.59332,157.96599 L149.88565,156.84625 L149.09628,155.7265 L148.26576,154.60675" fill="rgb(100,100,100)"/>
<path d="M168.97255,150.05457 L168.3533,151.76425 L167.76474,153.47392 L167.2371,155.18361 L166.79982,156.89328 L166.48164,158.60297 L166.31151,160.31265 L166.3216,162.02232 L166.55693,163.73201 L167.1148,165.4417 L168.97255,167.15137 L170.8303,165.4417 L171.38817,163.73201 L171.6235,162.02232 L171.6336,160.31265 L171.46347,158.60297 L171.1453,156.89328 L170.70801,155.18361 L170.18036,153.47392 L169.59181,151.76425 L168.97255,150.05457" fill="rgb(100,100,100)"/>
<path d="M168.89621,150.12393 L168.27696,151.8336 L167.6884,153.54329 L167.16075,155.25298 L166.72346,156.96265 L166.40529,158.67233 L166.23515,160.382 L166.24525,162.09169 L166.48059,163.80138 L167.03845,165.51105 L168.89621,167.22073 L170.75395,165.51105 L171.31183,163.80138 L171.54716,162.09169 L171.55725,160.382 L171.38712,158.67233 L171.06894,156.96265 L170.63167,155.25298 L170.10402,153.54329 L169.51546,151.8336 L168.89621,150.12393" fill="rgb(100,100,100)"/>
<path d="M168.87926,149.94087 L168.26,151.65054 L167.67143,153.36023 L167.1438,155.06992 L166.70651,156.77959 L166.38834,158.48927 L166.2182,160.19896 L166.2283,161.90863 L166.46362,163.61832 L167.0215,165.32799 L168.87926,167.03767 L170.737,165.32799 L171.29488,163.61832 L171.5302,161.90863 L171.5403,160.19896 L171.37016,158.48927 L171.05199,156.77959 L170.6147,155.06992 L170.08707,153.36023 L169.4985,151.65054 L168.87926,149.94087" fill="rgb(100,100,100)"/>
<path d="M168.83214,150.07115 L168.21289,151.78084 L167.62433,153.49051 L167.09668,155.2002 L166.65941,156.90988 L166.34122,158.61955 L166.1711,160.32924 L166.18118,162.03893 L166.41652,163.7486 L166.9744,165.45828 L168.83214,167.16797 L170.6899,165.45828 L171.24776,163.7486 L171.4831,162.03893 L171.4932,160.32924 L171.32306,158.61955 L171.00488,156.90988 L170.5676,155.2002 L170.03995,153.49051 L169.45139,151.78084 L168.83214,150.07115" fill="rgb(100,100,100)"/>
<path d="M168.67592,149.91632 L168.05667,151.626 L167.46811,153.3357 L166.94046,155.04536 L166.50317,156.75505 L166.185,158.46474 L166.01486,160.17441 L166.02496,161.8841 L166.2603,163.59377 L166.81816,165.30345 L168.67592,167.01314 L170.53366,165.30345 L171.09154,163.59377 L171.32687,161.8841 L171.33696,160.17441 L171.16684,158.46474 L170.84865,156.75505 L170.41138,155.04536 L169.88373,153.3357 L169.29517,151.626 L168.67592,149.91632" fill="rgb(100,100,100)"/>
<path d="M188.84778,143.23434 L188.36928,144.6956 L187.91447,146.15688 L187.50676,147.61815 L187.16885,149.07942 L186.92299,150.5407 L186.79153,152.00197 L186.79933,153.46324 L186.98117,154.9245 L187.41226,156.38577 L188.84778,157.84705 L190.28331,156.38577 L190.71439,154.9245 L190.89624,153.46324 L190.90404,152.00197 L190.77257,150.5407 L190.52672,149.07942 L190.18881,147.61815 L189.78108,146.15688 L189.3263,144.6956 L188.84778,143.23434" fill="rgb(100,100,100)"/>
<path d="M188.63669,143.44121 L188.15817,144.90248 L187.70338,146.36375 L187.29565,147.82503 L186.95776,149.28629 L186.7119,150.74756 L186.58043,152.20883 L186.58823,153.6701 L186.77008,155.13138 L187.20116,156.59265 L188.63669,158.05392 L190.0722,156.59265 L190.5033,155.13138 L190.68513,153.6701 L190.69295,152.20883 L190.56148,150.74756 L190.31561,149.28629 L189.9777,147.82503 L189.56999,146.36375 L189.11519,144.90248 L188.63669,143.44121" fill="rgb(100,100,100)"/>
<path d="M188.92328,143.30185 L188.44478,144.7631 L187.98997,146.22438 L187.58226,147.68565 L187.24435,149.14693 L186.99849,150.6082 L186.86703,152.06947 L186.87483,153.53073 L187.05669,154.992 L187.48776,156.45328 L188.92328,157.91455 L190.35881,156.45328 L190.78989,154.992 L190.97174,153.53073 L190.97954,152.06947 L190.84808,150.6082 L190.60222,149.14693 L190.26431,147.68565 L189.85658,146.22438 L189.4018,144.7631 L188.92328,143.30185" fill="rgb(100,100,100)"/>
<path d="M188.56786,143.49312 L188.08934,144.95439 L187.63455,146.41566 L187.22682,147.87694 L186.88893,149.33821 L186.64307,150.79947 L186.5116,152.26074 L186.5194,153.72202 L186.70125,155.18329 L187.13232,156.64456 L188.56786,158.10583 L190.00337,156.64456 L190.43446,155.18329 L190.6163,153.72202 L190.62411,152.26074 L190.49265,150.79947 L190.24678,149.33821 L189.90887,147.87694 L189.50116,146.41566 L189.04636,144.95439 L188.56786,143.49312" fill="rgb(100,100,100)"/>
<path d="M188.87341,143.39532 L188.3949,144.8566 L187.94011,146.31787 L187.53238,147.77914 L187.19449,149.2404 L186.94862,150.70168 L186.81715,152.16295 L186.82495,153.62422 L187.0068,155.0855 L187.43788,156.54677 L188.87341,158.00804 L190.30893,156.54677 L190.74002,155.0855 L190.92186,153.62422 L190.92967,152.16295 L190.7982,150.70168 L190.55234,149.2404 L190.21443,147.77914 L189.80672,146.31787 L189.35191,144.8566 L188.87341,143.39532" fill="rgb(100,100,100)"/>
</svg>