<svg viewBox="0 0 500 500" xmlns="http://www.w3.org/2000/svg">
<path d="M12.182747,143.74 L13.732888,144.42332 L14.965023,144.516 L15.938226,144.50948 L16.726902,144.47325 L17.426943,144.43335 L18.138882,144.38931 L18.95335,144.31906 L19.939478,144.18027 L21.135504,143.89822 L22.516268,142.99075 L21.817652,142.05835 L20.926188,141.63947 L19.824472,141.35898 L18.55625,141.2181 L17.194635,141.22943 L15.832162,141.39717 L14.568711,141.71185 L13.4968195,142.1532 L12.684957,142.70891 L12.182747,143.74" fill="rgb(100,100,100)"/>
<path d="M-0.8915785,143.01387 L0.30301905,143.53584 L1.8952203,143.78336 L3.937879,143.97694 L6.503794,144.11623 L9.634585,144.18314 L13.308735,144.1542 L17.429981,144.00626 L21.832129,143.71669 L26.296024,143.24782 L30.564032,142.1331 L26.131592,141.26851 L21.601284,141.06213 L17.201513,141.02988 L13.137235,141.11932 L9.553776,141.29712 L6.5212874,141.53445 L4.033087,141.80779 L2.021542,142.10379 L0.39550647,142.42976 L-0.8915785,143.01387" fill="rgb(100,100,100)"/>
<path d="M-4.2940855,136.03816 L-3.5695677,137.2448 L-2.5662436,137.90831 L-1.2781821,138.50044 L0.34498578,139.02934 L2.3371708,139.46214 L4.6926684,139.74808 L7.3571925,139.82892 L10.230323,139.64053 L13.178093,139.08139 L16.09675,137.1439 L13.374989,134.90628 L10.49164,134.0403 L7.658288,133.55199 L5.0160766,133.35226 L2.6666596,133.38615 L0.6636916,133.60043 L-0.9889376,133.94511 L-2.3282514,134.38501 L-3.4103575,134.9252 L-4.2940855,136.03816" fill="rgb(100,100,100)"/>
<path d="M-12.697355,138.33356 L-10.850809,139.25082 L-8.339408,139.75934 L-5.246796,140.17505 L-1.7663103,140.48895 L1.8502052,140.68385 L5.344493,140.75139 L8.492677,140.69466 L11.135115,140.5242 L13.196225,140.24269 L14.706135,139.57104 L11.152952,138.80846 L8.198687,138.52632 L5.7917576,138.35751 L3.784664,138.2417 L1.9649134,138.14368 L0.080285184,138.04465 L-2.1304042,137.94315 L-4.901418,137.8593 L-8.400148,137.8497 L-12.697355,138.33356" fill="rgb(100,100,100)"/>
<path d="M-3.405104,131.80125 L-2.9479108,133.11847 L-2.3433115,133.82813 L-1.4961969,134.36998 L-0.43175223,134.71265 L0.797905,134.80772 L2.1202898,134.61633 L3.4494822,134.11752 L4.6933336,133.30392 L5.7550282,132.14236 L6.354839,129.69708 L4.364358,128.02042 L2.7803507,127.77397 L1.4340959,127.86936 L0.32996672,128.1603 L-0.54966307,128.55722 L-1.2501265,128.99895 L-1.8374943,129.45596 L-2.383329,129.93977 L-2.9389455,130.52301 L-3.405104,131.80125" fill="rgb(100,100,100)"/>
<path d="M6.0808687,133.2255 L8.279264,134.58112 L10.652848,135.14352 L13.133995,135.49277 L15.599659,135.65984 L17.910774,135.66052 L19.949844,135.51854 L21.645332,135.26541 L22.984362,134.93205 L24.015678,134.52835 L24.85229,133.73642 L23.080822,133.00447 L21.642015,132.7483 L20.419065,132.56364 L19.25986,132.39803 L18.003954,132.23714 L16.500929,132.09071 L14.626032,131.989 L12.291407,131.98387 L9.450611,132.16975 L6.0808687,133.2255" fill="rgb(100,100,100)"/>
<path d="M-3.1323748,126.55494 L-2.6841342,127.32832 L-2.0469213,127.764366 L-1.2241967,128.16039 L-0.18370984,128.52232 L1.0967355,128.83002 L2.614014,129.05128 L4.333761,129.14851 L6.191956,129.07957 L8.103556,128.77817 L10.017017,127.607445 L8.29304,126.149536 L6.4441504,125.55361 L4.622227,125.1967 L2.919686,125.024994 L1.4028546,125.00555 L0.106992565,125.105705 L-0.96484405,125.29403 L-1.8362325,125.54771 L-2.54364,125.86903 L-3.1323748,126.55494" fill="rgb(100,100,100)"/>
<path d="M-2.3112512,127.69056 L-1.1294798,128.25685 L-0.186558,128.3477 L0.6213538,128.38359 L1.3861002,128.40503 L2.2076485,128.40607 L3.1717873,128.3543 L4.334449,128.20064 L5.7124457,127.88381 L7.2771277,127.31434 L8.86851,125.84497 L7.595901,124.67498 L6.2055497,124.30888 L4.6756334,124.18284 L3.0952637,124.263245 L1.5676271,124.5291 L0.19429412,124.9498 L-0.93668264,125.48368 L-1.7599455,126.08453 L-2.2375548,126.720604 L-2.3112512,127.69056" fill="rgb(100,100,100)"/>
<path d="M-1.4218248,124.4444 L0.61940706,124.82231 L2.2054179,124.69912 L3.4516745,124.52683 L4.459126,124.358116 L5.35273,124.20109 L6.261239,124.038124 L7.2989798,123.83302 L8.551087,123.53415 L10.0605,123.06472 L11.755947,121.97565 L10.785453,121.21812 L9.60947,120.976395 L8.175338,120.90073 L6.539192,120.98476 L4.795724,121.22788 L3.0638185,121.61822 L1.4706699,122.12984 L0.13318418,122.72786 L-0.86191595,123.38903 L-1.4218248,124.4444" fill="rgb(100,100,100)"/>
<path d="M6.086683,118.2945 L7.1792073,119.92027 L8.096685,120.31021 L8.830046,120.45846 L9.427725,120.51663 L9.959079,120.55276 L10.499841,120.58255 L11.120645,120.57686 L11.878146,120.462296 L12.809276,120.09555 L13.947625,118.50662 L13.52329,116.523026 L12.89782,115.53612 L12.098989,114.79161 L11.159594,114.29916 L10.133305,114.09616 L9.089328,114.2063 L8.103886,114.62723 L7.2488513,115.33363 L6.5771112,116.31223 L6.086683,118.2945" fill="rgb(100,100,100)"/>
<path d="M-1.8426576,111.41094 L-0.49212387,113.212166 L0.7664508,113.78974 L1.7933065,114.09473 L2.6381743,114.28322 L3.3912733,114.43586 L4.158596,114.58451 L5.044586,114.71691 L6.139395,114.775314 L7.5139675,114.6305 L9.339949,113.360016 L8.987897,111.36415 L8.221881,110.27911 L7.1777267,109.38797 L5.9009776,108.707245 L4.46339,108.28472 L2.9606333,108.15847 L1.5017003,108.34316 L0.19230747,108.830505 L-0.8904312,109.61949 L-1.8426576,111.41094" fill="rgb(100,100,100)"/>
<path d="M6.080856,108.295395 L6.4199543,109.39041 L6.870758,109.96424 L7.447258,110.4564 L8.170627,110.87085 L9.053509,111.17448 L10.090763,111.31991 L11.256024,111.25578 L12.502971,110.92797 L13.770142,110.249306 L14.987158,108.283394 L13.740703,106.33086 L12.461203,105.67213 L11.215922,105.36444 L10.063497,105.31613 L9.04582,105.469765 L8.183651,105.772415 L7.476048,106.17723 L6.904711,106.65379 L6.444375,107.21082 L6.080856,108.295395" fill="rgb(100,100,100)"/>
<path d="M4.258471,152.50021 L4.475025,147.50021 L4.7117887,142.50021 L4.9739003,137.50021 L5.2544394,132.50021 L5.538721,127.500206 L5.808019,122.500206 L6.042717,117.500206 L6.224884,112.500206 L6.340281,107.500206" fill="transparent" stroke="rgb(100,100,100)" stroke-width="1"/>
<path d="M7.258471,152.50021 L7.258471,147.50021 L7.258471,142.50021 L7.258471,137.50021 L7.258471,132.50021 L7.258471,127.500206 L7.258471,122.500206 L7.258471,117.500206 L7.258471,112.500206 L7.258471,107.500206" fill="transparent" stroke="rgb(100,100,100)" stroke-width="1"/>
<path d="M22.663773,143.00652 L23.663229,144.0515 L24.790194,144.46832 L26.180538,144.73242 L27.879839,144.83723 L29.905424,144.74008 L32.231968,144.3918 L34.78677,143.74957 L37.45311,142.77745 L40.07375,141.41066 L42.267925,138.65428 L39.043,137.1171 L36.063576,137.02002 L33.24978,137.29144 L30.70726,137.80121 L28.512413,138.46542 L26.695753,139.21594 L25.24137,140.00232 L24.099377,140.8011 L23.21472,141.63562 L22.663773,143.00652" fill="rgb(100,100,100)"/>
<path d="M30.515924,140.54025 L31.045422,141.3914 L31.743351,141.82948 L32.638412,142.1983 L33.76159,142.49927 L35.129566,142.7054 L36.73134,142.77957 L38.523464,142.68274 L40.432278,142.37471 L42.36094,141.7901 L44.184643,140.1961 L42.227875,138.70915 L40.248558,138.24236 L38.33295,138.05037 L36.568417,138.05801 L35.016586,138.218 L33.706295,138.48764 L32.633007,138.83029 L31.765982,139.22327 L31.065067,139.67535 L30.515924,140.54025" fill="rgb(100,100,100)"/>
<path d="M24.239393,133.7189 L24.950232,134.99594 L26.119682,135.85748 L27.686758,136.73048 L29.708925,137.63112 L32.22595,138.53458 L35.228615,139.39072 L38.647144,140.1316 L42.35523,140.67369 L46.191463,140.89204 L50.16529,139.8456 L46.964386,137.11984 L43.38135,135.6115 L39.828545,134.46472 L36.49575,133.63062 L33.514614,133.08144 L30.953074,132.7794 L28.813953,132.67802 L27.04597,132.73526 L25.569696,132.94255 L24.239393,133.7189" fill="rgb(100,100,100)"/>
<path d="M15.64616,132.62178 L16.914867,133.33807 L18.253672,133.78214 L19.680477,134.20088 L21.311413,134.62978 L23.268145,135.08055 L25.635643,135.54553 L28.438616,135.99925 L31.633455,136.3988 L35.114647,136.67126 L38.79127,136.32224 L36.120773,134.90242 L33.04982,134.03548 L29.830557,133.31613 L26.657688,132.74379 L23.708157,132.32841 L21.124645,132.07181 L19.003197,131.96518 L17.389458,131.99329 L16.286089,132.14723 L15.64616,132.62178" fill="rgb(100,100,100)"/>
<path d="M8.303965,132.94026 L10.957268,133.1964 L13.069287,133.0336 L14.738005,132.84015 L16.090528,132.65822 L17.291103,132.49045 L18.512104,132.31699 L19.909082,132.1024 L21.600853,131.79887 L23.653486,131.33824 L26.02708,130.33319 L24.8355,129.70984 L23.3098,129.54146 L21.422665,129.52629 L19.249092,129.65686 L16.914362,129.9293 L14.577106,130.32912 L12.4086485,130.82933 L10.567788,131.39552 L9.172008,132.00447 L8.303965,132.94026" fill="rgb(100,100,100)"/>
<path d="M18.348202,128.79607 L19.053728,129.3501 L19.971268,129.64096 L21.127882,129.8924 L22.570412,130.1079 L24.33018,130.27164 L26.403097,130.35983 L28.74178,130.34586 L31.257383,130.20105 L33.82901,129.87956 L36.320683,128.90662 L33.841167,127.903076 L31.273691,127.54998 L28.760057,127.37424 L26.421724,127.331505 L24.34788,127.39418 L22.58623,127.53626 L21.141157,127.734 L19.981539,127.97119 L19.060492,128.25073 L18.348202,128.79607" fill="rgb(100,100,100)"/>
<path d="M19.100697,126.9226 L20.875511,127.951385 L22.977001,128.24835 L25.415543,128.3135 L28.047638,128.17264 L30.690178,127.847496 L33.16392,127.37203 L35.323696,126.78906 L37.077816,126.13944 L38.396793,125.437584 L39.268387,124.29586 L36.67982,123.79753 L34.621372,123.85168 L32.95496,123.96903 L31.543785,124.094284 L30.217443,124.21792 L28.78916,124.359276 L27.077583,124.56245 L24.931032,124.89618 L22.254917,125.47009 L19.100697,126.9226" fill="rgb(100,100,100)"/>
<path d="M12.734996,123.85002 L15.328033,126.16187 L17.668776,127.102585 L19.567122,127.68683 L21.124733,128.09871 L22.512098,128.44888 L23.925196,128.7981 L25.55413,129.15807 L27.559753,129.48691 L30.062878,129.6593 L33.31387,128.69983 L32.532936,126.4146 L31.05782,125.03345 L29.087526,123.79886 L26.70646,122.74004 L24.0491,121.92701 L21.292974,121.424835 L18.638357,121.276024 L16.27796,121.49697 L14.352694,122.105194 L12.734996,123.85002" fill="rgb(100,100,100)"/>
<path d="M21.049166,122.031815 L21.938702,123.772194 L22.885565,124.539246 L24.006481,125.01356 L25.236866,125.19411 L26.48783,125.072754 L27.668926,124.66365 L28.70207,124.003685 L29.52969,123.1392 L30.11453,122.086205 L30.305826,120.1484 L28.712101,118.913185 L27.554373,118.77143 L26.641266,118.82723 L25.906727,118.95507 L25.27233,119.098785 L24.650042,119.24638 L23.952816,119.42873 L23.109335,119.72403 L22.08606,120.283844 L21.049166,122.031815" fill="rgb(100,100,100)"/>
<path d="M21.510006,114.38394 L22.265318,115.05261 L23.322384,115.330574 L24.674875,115.4863 L26.238743,115.521324 L27.899857,115.435074 L29.536863,115.23594 L31.039242,114.94101 L32.32104,114.57056 L33.3299,114.132095 L34.031372,113.35191 L32.239143,112.90637 L30.761066,112.88466 L29.556223,112.93452 L28.567661,113.007774 L27.706106,113.08436 L26.859453,113.16212 L25.906889,113.25603 L24.737083,113.3995 L23.270937,113.6541 L21.510006,114.38394" fill="rgb(100,100,100)"/>
<path d="M21.708685,110.820305 L22.320898,111.57843 L22.985676,111.90357 L23.788588,112.13618 L24.760027,112.27533 L25.914705,112.2925 L27.242678,112.15167 L28.705978,111.818275 L30.240013,111.260086 L31.754831,110.42277 L33.019527,108.59438 L31.15568,107.381874 L29.4363,107.18133 L27.80528,107.24631 L26.325182,107.49239 L25.04344,107.865234 L23.98193,108.31848 L23.136038,108.81507 L22.481188,109.33424 L21.988804,109.88679 L21.708685,110.820305" fill="rgb(100,100,100)"/>
<path d="M19.800846,105.091156 L21.497635,106.62727 L22.970726,106.97001 L24.301035,106.99698 L25.445948,106.80239 L26.364075,106.45425 L27.038214,106.02048 L27.538948,105.61267 L28.142206,105.31984 L28.72985,104.900734 L29.248413,103.92294 L28.5073,103.10092 L27.83527,102.83758 L27.178852,102.70051 L26.533848,102.65573 L25.896267,102.671 L25.106533,102.50654 L24.076244,102.485245 L22.811918,102.69123 L21.343565,103.248665 L19.800846,105.091156" fill="rgb(100,100,100)"/>
<path d="M23.346703,150.29161 L23.563255,145.29161 L23.80002,140.29161 L24.062132,135.29161 L24.34267,130.29161 L24.626951,125.29161 L24.89625,120.29161 L25.130947,115.29161 L25.313114,110.29161 L25.428513,105.29161" fill="transparent" stroke="rgb(100,100,100)" stroke-width="1"/>
<path d="M26.346703,150.29161 L26.346703,145.29161 L26.346703,140.29161 L26.346703,135.29161 L26.346703,130.29161 L26.346703,125.29161 L26.346703,120.29161 L26.346703,115.29161 L26.346703,110.29161 L26.346703,105.29161" fill="transparent" stroke="rgb(100,100,100)" stroke-width="1"/>
<path d="M37.118813,143.67175 L38.20921,144.37021 L39.671482,144.81538 L41.529373,145.25235 L43.8577,145.6913 L46.707428,146.11934 L50.07258,146.51006 L53.877186,146.82793 L57.97839,147.02937 L62.18317,147.04778 L66.31268,146.3515 L62.367096,144.91481 L58.22398,144.1683 L54.15574,143.62123 L50.36307,143.24278 L46.99232,143.01564 L44.122005,142.91835 L41.7599,142.92581 L39.85551,143.01605 L38.33138,143.18562 L37.118813,143.67175" fill="rgb(100,100,100)"/>
<path d="M21.25537,145.72389 L24.246067,146.65373 L26.94791,146.69054 L29.424435,146.5188 L31.625465,146.21585 L33.50804,145.83046 L35.062897,145.40251 L36.324993,144.96056 L37.372746,144.51387 L38.31773,144.03545 L39.249863,143.17216 L37.964607,142.64587 L36.86233,142.4947 L35.752907,142.39151 L34.5039,142.33406 L33.014492,142.34999 L31.223967,142.47803 L29.114735,142.76038 L26.70719,143.2428 L24.046463,143.99968 L21.25537,145.72389" fill="rgb(100,100,100)"/>
<path d="M41.540596,136.26868 L44.30787,137.5101 L47.40317,138.2371 L50.705837,138.8374 L54.03691,139.31088 L57.191414,139.64513 L59.990917,139.83727 L62.319057,139.89763 L64.14132,139.84564 L65.51177,139.69612 L66.59198,139.24615 L64.16778,138.48303 L62.352093,138.10641 L60.728848,137.80336 L59.10006,137.54694 L57.4728,137.27763 L55.540455,136.97311 L53.095745,136.64119 L49.999336,136.30469 L46.16995,136.02345 L41.540596,136.26868" fill="rgb(100,100,100)"/>
<path d="M28.132519,139.34709 L29.566902,140.80559 L31.23131,141.3167 L33.202065,141.52579 L35.36252,141.45323 L37.558346,141.11504 L39.634644,140.54616 L41.460835,139.79765 L42.94663,138.92268 L44.04762,137.94182 L44.668896,136.28972 L42.27756,135.48027 L40.42835,135.51343 L38.945923,135.66374 L37.720806,135.83975 L36.615147,136.01358 L35.473885,136.19794 L34.143234,136.44223 L32.493458,136.83363 L30.448395,137.51874 L28.132519,139.34709" fill="rgb(100,100,100)"/>
<path d="M48.074844,135.94766 L48.965042,136.42447 L50.06192,136.59103 L51.428295,136.67938 L53.118553,136.68605 L55.166492,136.58954 L57.564045,136.36533 L60.25292,135.99261 L63.12684,135.45473 L66.04021,134.72177 L68.76936,133.31343 L65.774414,132.63371 L62.770332,132.654 L59.853306,132.85326 L57.156807,133.16605 L54.77954,133.54964 L52.772728,133.96925 L51.13804,134.39915 L49.837376,134.827 L48.817204,135.26305 L48.074844,135.94766" fill="rgb(100,100,100)"/>
<path d="M31.550528,134.89972 L32.62166,135.92924 L33.840645,136.30255 L35.230976,136.48141 L36.71282,136.48361 L38.184647,136.32086 L39.548542,136.01575 L40.72702,135.60028 L41.673374,135.10687 L42.375366,134.54692 L42.81726,133.57333 L41.368282,132.99503 L40.23401,132.9345 L39.31732,132.94846 L38.537003,132.98141 L37.795753,133.01747 L36.98943,133.06583 L36.019035,133.15808 L34.80389,133.34923 L33.296856,133.73409 L31.550528,134.89972" fill="rgb(100,100,100)"/>
<path d="M45.141106,129.94693 L47.01293,130.68755 L48.561966,130.91832 L49.79631,131.03722 L50.800816,131.109 L51.69348,131.16655 L52.60179,131.22234 L53.64361,131.27037 L54.912308,131.28581 L56.466503,131.21419 L58.339817,130.66916 L57.581078,129.83917 L56.50814,129.39264 L55.14992,129.02928 L53.561695,128.75563 L51.834415,128.59102 L50.0848,128.55058 L48.440716,128.63953 L47.02221,128.85356 L45.917725,129.19162 L45.141106,129.94693" fill="rgb(100,100,100)"/>
<path d="M40.48903,128.05832 L40.692593,129.27957 L41.40517,130.096 L42.56261,130.9053 L44.163284,131.68619 L46.176117,132.38582 L48.530067,132.9417 L51.115788,133.29134 L53.796463,133.37338 L56.429554,133.09862 L59.03393,131.56778 L56.531837,129.19458 L53.876274,128.12238 L51.377384,127.43105 L49.14449,127.025246 L47.225697,126.83955 L45.61002,126.81152 L44.23371,126.886406 L42.99733,127.03129 L41.79505,127.263176 L40.48903,128.05832" fill="rgb(100,100,100)"/>
<path d="M30.623251,125.48131 L33.40844,127.325386 L35.956886,127.723434 L38.326195,127.732285 L40.416233,127.46178 L42.127186,126.994606 L43.402084,126.4171 L44.272007,125.82744 L45.365917,125.44646 L46.443497,124.911606 L47.44883,123.69591 L46.210754,122.71826 L45.044926,122.42146 L43.895424,122.278534 L42.75786,122.248085 L41.630966,122.31823 L40.34278,122.25245 L38.574615,122.227715 L36.326363,122.48401 L33.62807,123.18394 L30.623251,125.48131" fill="rgb(100,100,100)"/>
<path d="M39.38649,118.31313 L39.54097,119.11493 L39.871414,119.58324 L40.35915,120.00645 L41.011562,120.37794 L41.826447,120.66907 L42.78548,120.84465 L43.853138,120.869644 L44.979755,120.70935 L46.109188,120.308266 L47.2372,119.03317 L46.196796,117.61102 L45.082394,117.08915 L44.012413,116.81385 L43.037254,116.716866 L42.185486,116.75438 L41.46329,116.887405 L40.855766,117.08372 L40.332523,117.32583 L39.858337,117.62748 L39.38649,118.31313" fill="rgb(100,100,100)"/>
<path d="M42.31376,113.70112 L43.673874,114.70572 L44.82766,115.00526 L45.751846,115.15351 L46.505795,115.23938 L47.176258,115.30703 L47.858677,115.37199 L48.64258,115.42429 L49.600372,115.4281 L50.780384,115.30673 L52.23656,114.52208 L51.724365,113.377594 L50.94637,112.77113 L49.9466,112.2844 L48.766365,111.92571 L47.47297,111.72073 L46.153522,111.688866 L44.90429,111.8356 L43.81632,112.15325 L42.95654,112.63913 L42.31376,113.70112" fill="rgb(100,100,100)"/>
<path d="M40.61731,108.098076 L41.35413,110.70902 L42.39837,111.69482 L43.43664,112.24594 L44.415344,112.48541 L45.300735,112.487366 L46.07799,112.31883 L46.755096,112.039345 L47.365257,111.6878 L47.97043,111.25065 L48.78235,110.15323 L48.586704,108.80221 L48.260597,108.130646 L47.889565,107.532135 L47.425457,106.9654 L46.820602,106.44899 L46.039787,106.031555 L45.064335,105.77917 L43.888874,105.77309 L42.50238,106.147064 L40.61731,108.098076" fill="rgb(100,100,100)"/>
<path d="M43.21245,153.8893 L43.429005,148.8893 L43.665768,143.8893 L43.92788,138.8893 L44.208416,133.8893 L44.4927,128.8893 L44.761997,123.889305 L44.996696,118.889305 L45.178864,113.889305 L45.29426,108.889305" fill="transparent" stroke="rgb(100,100,100)" stroke-width="1"/>
<path d="M46.21245,153.8893 L46.21245,148.8893 L46.21245,143.8893 L46.21245,138.8893 L46.21245,133.8893 L46.21245,128.8893 L46.21245,123.889305 L46.21245,118.889305 L46.21245,113.889305 L46.21245,108.889305" fill="transparent" stroke="rgb(100,100,100)" stroke-width="1"/>
<path d="M46.586872,147.41666 L47.90581,148.60576 L49.43938,149.24002 L51.21335,149.80743 L53.338436,150.3367 L55.91753,150.81006 L59.00298,151.18394 L62.575253,151.39856 L66.53918,151.38023 L70.73574,151.01236 L75.01765,149.29053 L71.45621,146.99022 L67.54842,145.98726 L63.580578,145.34352 L59.77238,144.99406 L56.306873,144.90292 L53.313198,145.02933 L50.857216,145.32744 L48.944843,145.75679 L47.541565,146.30771 L46.586872,147.41666" fill="rgb(100,100,100)"/>
<path d="M60.050175,148.50887 L62.124424,149.76495 L63.86657,150.16165 L65.26984,150.38275 L66.44481,150.53784 L67.542206,150.67758 L68.71909,150.81384 L70.113525,150.92456 L71.82637,150.9543 L73.91113,150.79413 L76.41114,149.68706 L75.3948,148.06696 L73.94308,147.22597 L72.14092,146.56924 L70.08002,146.1034 L67.889366,145.85674 L65.72237,145.84729 L63.73866,146.07378 L62.081978,146.5175 L60.853737,147.16579 L60.050175,148.50887" fill="rgb(100,100,100)"/>
<path d="M70.93344,142.55457 L72.95689,144.40437 L74.90441,145.04538 L76.695366,145.36967 L78.28866,145.47105 L79.657265,145.40613 L80.801,145.2249 L81.752396,144.97023 L82.57594,144.66801 L83.362755,144.3037 L84.245186,143.44214 L83.48495,142.47104 L82.75346,142.0055 L81.97733,141.5966 L81.06817,141.21788 L79.95861,140.88643 L78.61074,140.64038 L77.018105,140.52933 L75.199936,140.61299 L73.184555,140.98976 L70.93344,142.55457" fill="rgb(100,100,100)"/>
<path d="M55.967766,144.27278 L59.074234,144.72026 L61.468163,144.44643 L63.345684,144.1187 L64.862045,143.80986 L66.206696,143.52493 L67.57362,143.2303 L69.13409,142.86548 L71.01446,142.34866 L73.27607,141.56291 L75.789795,139.84264 L74.28544,138.76825 L72.49462,138.47466 L70.32107,138.44333 L67.84943,138.66164 L65.22294,139.12325 L62.62093,139.80373 L60.234615,140.65715 L58.239243,141.62488 L56.76492,142.66731 L55.967766,144.27278" fill="rgb(100,100,100)"/>
<path d="M74.37765,136.79225 L75.401855,138.41998 L76.43366,139.00053 L77.28718,139.33286 L77.993835,139.5532 L78.62485,139.73656 L79.268326,139.91756 L80.014114,140.09314 L80.9431,140.22058 L82.124794,140.195 L83.77027,139.24391 L83.610405,137.52115 L83.03373,136.54382 L82.2064,135.71172 L81.1661,135.0421 L79.970634,134.58072 L78.69887,134.36673 L77.442665,134.42032 L76.29269,134.74194 L75.31473,135.3362 L74.37765,136.79225" fill="rgb(100,100,100)"/>
<path d="M59.965275,139.24199 L60.61102,139.57645 L61.352127,139.64214 L62.260582,139.62561 L63.371304,139.52042 L64.703224,139.3067 L66.2474,138.96497 L67.96246,138.48203 L69.77622,137.85127 L71.589035,137.05777 L73.1902,135.72136 L71.13346,135.35913 L69.16486,135.57295 L67.27806,135.92801 L65.551704,136.36174 L64.04457,136.83252 L62.785244,137.3085 L61.771027,137.76851 L60.974922,138.20506 L60.362938,138.63022 L59.965275,139.24199" fill="rgb(100,100,100)"/>
<path d="M51.288887,134.58333 L54.19651,135.6731 L56.50252,135.77919 L58.323017,135.72844 L59.797985,135.6351 L61.1071,135.53918 L62.438423,135.43579 L63.961254,135.284 L65.80443,135.00952 L68.03863,134.48473 L70.611305,132.89703 L69.29381,131.35217 L67.62138,130.6817 L65.55721,130.25339 L63.183144,130.06743 L60.636093,130.14218 L58.08922,130.48085 L55.72926,131.06346 L53.729084,131.85199 L52.21665,132.82286 L51.288887,134.58333" fill="rgb(100,100,100)"/>
<path d="M55.7256,133.26187 L56.569057,135.37148 L57.62707,136.19734 L58.657333,136.67647 L59.614315,136.90488 L60.469196,136.94037 L61.21105,136.8358 L61.8506,136.63896 L62.42188,136.38211 L62.98401,136.05681 L63.712326,135.2131 L63.455086,134.12862 L63.10627,133.58076 L62.717785,133.08943 L62.241047,132.61987 L61.630974,132.18501 L60.856033,131.82233 L59.901535,131.58374 L58.76641,131.53384 L57.446777,131.77882 L55.7256,133.26187" fill="rgb(100,100,100)"/>
<path d="M56.877884,128.36063 L57.489742,129.72125 L58.30285,130.44177 L59.315342,131.07433 L60.57515,131.63402 L62.120865,132.08658 L63.96065,132.37506 L66.06313,132.4322 L68.357925,132.18246 L70.74523,131.5062 L73.162544,129.2393 L71.0766,126.70919 L68.80921,125.74857 L66.54888,125.21931 L64.414955,125.02233 L62.497993,125.09719 L60.85263,125.384254 L59.49477,125.82598 L58.40669,126.37969 L57.551926,127.04646 L56.877884,128.36063" fill="rgb(100,100,100)"/>
<path d="M61.49989,122.52972 L62.73148,123.33387 L63.744015,123.52859 L64.54971,123.6037 L65.204956,123.63405 L65.78714,123.65334 L66.37947,123.66955 L67.05859,123.66849 L67.88486,123.614174 L68.89548,123.43609 L70.1056,122.656364 L69.59714,121.67778 L68.8908,121.189735 L68.00018,120.82064 L66.96138,120.57535 L65.833954,120.47243 L64.69415,120.52376 L63.625313,120.72839 L62.705517,121.07406 L61.992336,121.55436 L61.49989,122.52972" fill="rgb(100,100,100)"/>
<path d="M67.32804,117.32378 L68.69859,118.18634 L69.70796,118.26208 L70.49104,118.21393 L71.120155,118.13302 L71.677185,118.05073 L72.24307,117.96234 L72.88692,117.834335 L73.65692,117.60658 L74.57062,117.176384 L75.52207,115.891945 L74.79346,114.65772 L74.00067,114.126564 L73.063034,113.79129 L72.01603,113.651764 L70.9208,113.722115 L69.85267,114.00425 L68.890434,114.481346 L68.10507,115.12221 L67.54956,115.9074 L67.32804,117.32378" fill="rgb(100,100,100)"/>
<path d="M63.961212,114.85458 L65.479416,115.663826 L66.841286,115.833534 L68.07054,115.84783 L69.147804,115.7605 L70.0599,115.60421 L70.81106,115.40572 L71.426834,115.18505 L71.95272,114.95031 L72.44857,114.68564 L72.965164,114.14663 L72.370674,113.69498 L71.839554,113.51105 L71.28344,113.36138 L70.64075,113.23967 L69.8678,113.16102 L68.94249,113.1492 L67.864815,113.2313 L66.65289,113.43754 L65.33428,113.81801 L63.961212,114.85458" fill="rgb(100,100,100)"/>
<path d="M66.01428,158.06917 L66.230835,153.06917 L66.4676,148.06917 L66.72971,143.06917 L67.01025,138.06917 L67.29453,133.06917 L67.56383,128.06917 L67.79853,123.06917 L67.9807,118.06917 L68.09609,113.06917" fill="transparent" stroke="rgb(100,100,100)" stroke-width="1"/>
<path d="M69.01428,158.06917 L69.01428,153.06917 L69.01428,148.06917 L69.01428,143.06917 L69.01428,138.06917 L69.01428,133.06917 L69.01428,128.06917 L69.01428,123.06917 L69.01428,118.06917 L69.01428,113.06917" fill="transparent" stroke="rgb(100,100,100)" stroke-width="1"/>
<path d="M92.01932,143.99107 L93.40748,145.05603 L94.821045,145.71022 L96.23768,146.30847 L97.79122,146.91644 L99.63505,147.567 L101.89211,148.2631 L104.62551,148.97794 L107.82598,149.6546 L111.41738,150.189 L115.40246,149.90115 L113.043846,147.90088 L110.10165,146.60501 L106.90434,145.4827 L103.66258,144.54973 L100.57787,143.83673 L97.82637,143.3619 L95.54278,143.1255 L93.81053,143.11383 L92.66037,143.31548 L92.01932,143.99107" fill="rgb(100,100,100)"/>
<path d="M68.86747,148.49022 L69.55769,149.05017 L70.47103,149.3654 L71.626564,149.65202 L73.07133,149.91524 L74.83744,150.14102 L76.92166,150.30634 L79.277245,150.3838 L81.81577,150.3424 L84.41717,150.13335 L86.96186,149.295 L84.50164,148.23405 L81.92908,147.79488 L79.40425,147.52826 L77.051094,147.3963 L74.96043,147.37595 L73.18124,147.44405 L71.71881,147.57794 L70.5424,147.76086 L69.60468,147.99376 L68.86747,148.49022" fill="rgb(100,100,100)"/>
<path d="M92.54067,143.90654 L93.82138,144.54373 L94.83497,144.63527 L95.634766,144.63411 L96.282616,144.60468 L96.85758,144.57143 L97.44229,144.53441 L98.11101,144.47375 L98.92014,144.35083 L99.90039,144.09697 L101.02637,143.26793 L100.443085,142.40553 L99.706314,142.0152 L98.79809,141.75133 L97.75437,141.61522 L96.63538,141.61887 L95.51722,141.76657 L94.48187,142.05014 L93.6052,142.45135 L92.94337,142.95921 L92.54067,143.90654" fill="rgb(100,100,100)"/>
<path d="M71.58777,144.07257 L72.267845,144.75986 L73.00392,145.02693 L73.89201,145.19554 L74.965775,145.26276 L76.24144,145.20012 L77.707954,144.97362 L79.32331,144.55258 L81.01607,143.91039 L82.686615,143.00089 L84.07684,141.1548 L82.01258,140.11577 L80.11198,140.04057 L78.30991,140.21487 L76.67522,140.55313 L75.26015,140.99985 L74.088776,141.5089 L73.155945,142.0449 L72.43449,142.58954 L71.89293,143.15509 L71.58777,144.07257" fill="rgb(100,100,100)"/>
<path d="M75.88201,136.93285 L76.72823,137.80858 L77.78207,138.22217 L79.100494,138.54834 L80.73509,138.78859 L82.71749,138.91335 L85.038895,138.88287 L87.6421,138.65656 L90.423805,138.194 L93.243355,137.42865 L95.891594,135.57143 L93.005295,134.09253 L90.10345,133.71931 L87.28607,133.64063 L84.68228,133.7708 L82.38697,134.05537 L80.44878,134.4463 L78.86834,134.90329 L77.6078,135.40195 L76.61444,135.95169 L75.88201,136.93285" fill="rgb(100,100,100)"/>
<path d="M89.11086,138.57541 L90.088005,138.9432 L91.29903,139.03221 L92.80957,139.04004 L94.679886,138.96092 L96.94772,138.77455 L99.604576,138.46017 L102.586266,138.00267 L105.77548,137.39299 L109.011604,136.61255 L112.05513,135.25705 L108.752266,134.81941 L105.427635,134.98784 L102.19636,135.30672 L99.20723,135.71277 L96.570175,136.16402 L94.34246,136.62784 L92.52637,137.08186 L91.07993,137.51735 L89.943756,137.94582 L89.11086,138.57541" fill="rgb(100,100,100)"/>
<path d="M89.93181,130.39938 L91.39871,131.45851 L92.69403,131.95648 L93.75283,132.30453 L94.655525,132.58513 L95.51862,132.85019 L96.46504,133.1279 L97.60307,133.42226 L99.01213,133.71085 L100.73721,133.9309 L102.877686,133.60611 L102.17476,132.4116 L101.04544,131.65335 L99.624535,130.9651 L97.99184,130.36452 L96.25247,129.88757 L94.529175,129.56664 L92.94865,129.42238 L91.62435,129.46211 L90.63482,129.69044 L89.93181,130.39938" fill="rgb(100,100,100)"/>
<path d="M74.30478,130.01778 L76.60342,132.1339 L78.67617,132.94975 L80.35683,133.44083 L81.73569,133.7793 L82.963806,134.06483 L84.21469,134.34857 L85.656555,134.63498 L87.43162,134.8784 L89.64654,134.95496 L92.52089,133.92453 L91.825516,131.77008 L90.51774,130.50327 L88.77216,129.39378 L86.663506,128.4666 L84.31088,127.783775 L81.87149,127.401245 L79.5226,127.35253 L77.43472,127.6465 L75.73258,128.29494 L74.30478,130.01778" fill="rgb(100,100,100)"/>
<path d="M79.55505,127.55931 L80.47392,128.20415 L81.79055,128.47525 L83.48447,128.63026 L85.44987,128.6703 L87.54324,128.59436 L89.61156,128.40997 L91.515,128.1331 L93.144516,127.78285 L94.4339,127.366196 L95.35258,126.62032 L93.119064,126.18537 L91.26095,126.158455 L89.743164,126.201355 L88.49634,126.26759 L87.4091,126.33755 L86.34055,126.4087 L85.13804,126.49491 L83.659966,126.62779 L81.80398,126.86611 L79.55505,127.55931" fill="rgb(100,100,100)"/>
<path d="M79.719734,122.84042 L82.25163,123.83929 L84.582695,124.0986 L86.70173,124.17369 L88.569496,124.125175 L90.15976,123.989845 L91.47694,123.798515 L92.56295,123.57533 L93.49542,123.33175 L94.379295,123.05246 L95.3285,122.46013 L94.35158,121.91473 L93.455154,121.67882 L92.511925,121.480934 L91.41633,121.3109 L90.09139,121.183945 L88.49643,121.12621 L86.62852,121.168724 L84.515656,121.34691 L82.19999,121.719444 L79.719734,122.84042" fill="rgb(100,100,100)"/>
<path d="M76.83465,119.05318 L78.90744,119.731606 L80.77566,119.7285 L82.48807,119.55512 L83.98045,119.273415 L85.191,118.93032 L86.089165,118.56988 L86.75144,118.248726 L87.544945,117.98667 L88.326096,117.6514 L89.05259,116.99215 L88.15003,116.6077 L87.302124,116.54723 L86.46657,116.55998 L85.64004,116.62626 L84.82159,116.740395 L83.838005,116.76215 L82.526924,116.890465 L80.890114,117.188835 L78.95626,117.729126 L76.83465,119.05318" fill="rgb(100,100,100)"/>
<path d="M82.771095,111.70829 L83.510796,112.83073 L84.16783,113.20261 L84.730316,113.45387 L85.253365,113.67071 L85.80781,113.87615 L86.46114,114.052055 L87.26475,114.148094 L88.246346,114.08521 L89.40827,113.7322 L90.77019,112.16235 L90.15589,110.228714 L89.303085,109.34863 L88.30152,108.75349 L87.2161,108.4249 L86.12061,108.36554 L85.09127,108.564255 L84.1987,108.99017 L83.49979,109.59886 L83.02972,110.35757 L82.771095,111.70829" fill="rgb(100,100,100)"/>
<path d="M84.69226,157.34198 L84.90881,152.34198 L85.145584,147.34198 L85.40769,142.34198 L85.68823,137.34198 L85.97251,132.34198 L86.24181,127.34199 L86.47651,122.34199 L86.658676,117.34199 L86.77407,112.34199" fill="transparent" stroke="rgb(100,100,100)" stroke-width="1"/>
<path d="M87.69226,157.34198 L87.69226,152.34198 L87.69226,147.34198 L87.69226,142.34198 L87.69226,137.34198 L87.69226,132.34198 L87.69226,127.34199 L87.69226,122.34199 L87.69226,117.34199 L87.69226,112.34199" fill="transparent" stroke="rgb(100,100,100)" stroke-width="1"/>
<path d="M113.18728,139.30191 L115.41442,141.0545 L117.34094,141.63498 L118.89027,141.94962 L120.156555,142.14879 L121.283226,142.3116 L122.430244,142.47095 L123.74934,142.61739 L125.36509,142.69777 L127.36421,142.59009 L129.87396,141.41615 L129.08687,139.4998 L127.81506,138.44513 L126.16102,137.56963 L124.19385,136.8901 L122.02541,136.45389 L119.80135,136.2995 L117.68374,136.4434 L115.82668,136.88008 L114.34332,137.61024 L113.18728,139.30191" fill="rgb(100,100,100)"/>
<path d="M106.878716,138.18857 L107.607864,139.77567 L108.89572,140.70624 L110.62478,141.5047 L112.68302,142.1434 L114.919426,142.57964 L117.16978,142.78561 L119.280655,142.75461 L121.12991,142.49503 L122.64512,142.00256 L123.89187,140.72765 L121.69787,139.20036 L119.74791,138.61905 L118.13095,138.27773 L116.79111,138.06113 L115.618225,137.89735 L114.46461,137.74132 L113.16407,137.57837 L111.5555,137.43347 L109.509026,137.39857 L106.878716,138.18857" fill="rgb(100,100,100)"/>
<path d="M96.79939,136.72458 L98.51142,137.72063 L100.84012,137.9759 L103.799194,137.95648 L107.205894,137.68297 L110.811806,137.17876 L114.35371,136.4843 L117.59285,135.6528 L120.34427,134.73769 L122.49479,133.76318 L123.94145,132.26285 L119.99583,131.87457 L116.777176,132.1528 L114.16042,132.49654 L112.016716,132.83455 L110.149734,133.1512 L108.31529,133.46669 L106.25203,133.83278 L103.72111,134.33107 L100.55669,135.08502 L96.79939,136.72458" fill="rgb(100,100,100)"/>
<path d="M107.29762,136.17352 L107.772644,136.67839 L108.2456,136.87514 L108.790565,137.00818 L109.43403,137.0786 L110.1922,137.06627 L111.06434,136.94456 L112.0298,136.68712 L113.0482,136.26892 L114.05885,135.64948 L114.87769,134.32533 L113.59607,133.49677 L112.433,133.38013 L111.32391,133.453 L110.31198,133.65678 L109.43312,133.95305 L108.70736,134.30803 L108.13734,134.69339 L107.711914,135.0913 L107.41626,135.50514 L107.29762,136.17352" fill="rgb(100,100,100)"/>
<path d="M98.41629,130.82777 L100.61346,132.65704 L102.51881,133.07364 L104.22227,133.14395 L105.70332,132.98575 L106.947586,132.67055 L107.964096,132.25739 L108.79055,131.7911 L109.49092,131.29102 L110.146164,130.72408 L110.7978,129.55394 L109.921555,128.54099 L109.1646,128.11935 L108.37708,127.77234 L107.473,127.48411 L106.39367,127.28656 L105.1113,127.23131 L103.62906,127.37798 L101.9756,127.793655 L100.19498,128.58946 L98.41629,130.82777" fill="rgb(100,100,100)"/>
<path d="M111.981964,130.29135 L113.23159,131.2969 L114.21233,131.48346 L114.98476,131.52232 L115.609856,131.51173 L116.16449,131.4918 L116.72846,131.46683 L117.37309,131.41122 L118.15209,131.27081 L119.09375,130.9458 L120.16466,129.77911 L119.584114,128.47649 L118.864746,127.86293 L117.98232,127.42732 L116.971596,127.173454 L115.89095,127.12208 L114.81399,127.2834 L113.81972,127.64948 L112.98104,128.19727 L112.35198,128.91336 L111.981964,130.29135" fill="rgb(100,100,100)"/>
<path d="M101.01237,124.46307 L102.502205,126.718475 L104.243515,127.69552 L106.102196,128.32356 L107.96869,128.64598 L109.72159,128.68494 L111.25703,128.4798 L112.509674,128.08694 L113.46481,127.56539 L114.163284,126.94501 L114.73917,125.78152 L113.826035,124.634445 L112.9439,124.14804 L112.04762,123.80891 L111.14101,123.57744 L110.22721,123.42069 L109.18937,123.11272 L107.82498,122.85035 L106.05185,122.72273 L103.8176,122.89043 L101.01237,124.46307" fill="rgb(100,100,100)"/>
<path d="M103.229225,124.29761 L103.97244,124.96622 L105.02469,125.442505 L106.38013,125.93796 L108.092636,126.465485 L110.19983,127.016754 L112.69766,127.568245 L115.53054,128.08432 L118.593735,128.51836 L121.74761,128.8009 L124.90806,128.46416 L122.07174,126.97697 L119.02608,126.07144 L116.02224,125.34292 L113.2131,124.77728 L110.7088,124.36852 L108.568504,124.10275 L106.79837,123.95852 L105.36057,123.91355 L104.19577,123.95998 L103.229225,124.29761" fill="rgb(100,100,100)"/>
<path d="M106.221466,118.75541 L106.58525,120.36331 L107.538284,121.38425 L108.91842,122.31908 L110.634026,123.127815 L112.55916,123.75229 L114.551384,124.147705 L116.47169,124.29097 L118.20355,124.17668 L119.6737,123.790115 L121.00319,122.555824 L119.19908,120.79144 L117.47957,120.03679 L116.02878,119.563866 L114.821785,119.25071 L113.777306,119.01431 L112.77394,118.79477 L111.666534,118.56072 L110.30651,118.321205 L108.56358,118.15528 L106.221466,118.75541" fill="rgb(100,100,100)"/>
<path d="M99.90429,114.35508 L101.47759,116.64745 L103.00466,117.382866 L104.41195,117.71683 L105.66601,117.77234 L106.744934,117.62378 L107.64802,117.33573 L108.4004,116.96196 L109.05258,116.53283 L109.67654,116.02529 L110.3814,114.871284 L109.79339,113.65359 L109.22235,113.087166 L108.61551,112.59601 L107.90352,112.150085 L107.03313,111.77466 L105.97403,111.52076 L104.72058,111.45273 L103.28728,111.64673 L101.69531,112.22847 L99.90429,114.35508" fill="rgb(100,100,100)"/>
<path d="M103.296036,111.94294 L103.54924,112.54169 L104.04088,112.88709 L104.77672,113.188324 L105.75601,113.43561 L106.9588,113.60545 L108.341545,113.67259 L109.83858,113.61489 L111.36797,113.412926 L112.84065,113.03341 L114.173805,112.01503 L112.5197,111.035255 L110.90592,110.73107 L109.4136,110.6065 L108.096634,110.60382 L106.97815,110.68595 L106.04858,110.82236 L105.269356,110.990814 L104.5836,111.18304 L103.93518,111.41625 L103.296036,111.94294" fill="rgb(100,100,100)"/>
<path d="M102.86301,106.91005 L104.36181,108.86264 L105.73279,109.43084 L106.97688,109.64822 L108.071915,109.62627 L109.00297,109.43248 L109.77307,109.12445 L110.407135,108.748634 L110.95085,108.32921 L111.465576,107.84153 L112.01438,106.77334 L111.433914,105.72202 L110.904854,105.24994 L110.348854,104.84694 L109.70384,104.49023 L108.92488,104.20534 L107.98846,104.03945 L106.893265,104.050224 L105.65621,104.304665 L104.30282,104.91356 L102.86301,106.91005" fill="rgb(100,100,100)"/>
<path d="M105.96804,150.8048 L106.18459,145.8048 L106.42136,140.8048 L106.68347,135.8048 L106.964005,130.8048 L107.24829,125.804794 L107.517586,120.804794 L107.75228,115.804794 L107.93445,110.804794 L108.04985,105.804794" fill="transparent" stroke="rgb(100,100,100)" stroke-width="1"/>
<path d="M108.96804,150.8048 L108.96804,145.8048 L108.96804,140.8048 L108.96804,135.8048 L108.96804,130.8048 L108.96804,125.804794 L108.96804,120.804794 L108.96804,115.804794 L108.96804,110.804794 L108.96804,105.804794" fill="transparent" stroke="rgb(100,100,100)" stroke-width="1"/>
<path d="M126.360794,139.9067 L127.162346,141.3747 L128.23705,142.25359 L129.49384,143.0846 L131.0171,143.91745 L132.8981,144.74954 L135.1955,145.54254 L137.91537,146.23009 L141.00679,146.71965 L144.3768,146.86256 L148.14185,145.54323 L145.92152,142.59119 L143.118,140.99905 L140.16806,139.78545 L137.26036,138.91095 L134.55083,138.36296 L132.15646,138.11636 L130.14711,138.13144 L128.54457,138.3654 L127.33049,138.80214 L126.360794,139.9067" fill="rgb(100,100,100)"/>
<path d="M131.10478,142.44408 L132.44699,143.63493 L134.23897,144.06863 L136.5055,144.24884 L139.10721,144.1854 L141.85446,143.88663 L144.54688,143.37828 L147.00311,142.70154 L149.0831,141.90143 L150.7009,140.9964 L151.76332,139.47629 L148.72844,138.78922 L146.27097,138.87053 L144.27664,139.06342 L142.64456,139.28232 L141.22385,139.49695 L139.82803,139.71259 L138.25845,139.96722 L136.33463,140.33267 L133.93326,140.93086 L131.10478,142.44408" fill="rgb(100,100,100)"/>
<path d="M114.40494,134.9582 L118.39919,135.93434 L121.68747,136.30528 L124.3048,136.52658 L126.433655,136.67812 L128.32521,136.80565 L130.24979,136.93224 L132.45653,137.0592 L135.1419,137.16461 L138.4275,137.19022 L142.36711,136.6967 L140.72424,135.69539 L138.43373,135.1107 L135.54327,134.60138 L132.17014,134.17868 L128.50766,133.87105 L124.80349,133.70381 L121.32846,133.69179 L118.33639,133.83836 L116.0144,134.14844 L114.40494,134.9582" fill="rgb(100,100,100)"/>
<path d="M129.93518,136.34654 L131.19653,136.94707 L132.45073,137.11258 L133.8053,137.19975 L135.36049,137.21431 L137.20854,137.12646 L139.40263,136.8934 L141.94011,136.47044 L144.75743,135.81422 L147.73184,134.86072 L150.59186,132.90771 L147.75664,131.83115 L144.83907,131.74092 L141.88794,131.92542 L139.05884,132.30542 L136.49263,132.82608 L134.29558,133.43535 L132.52985,134.08522 L131.21417,134.73917 L130.33769,135.38785 L129.93518,136.34654" fill="rgb(100,100,100)"/>
<path d="M128.0201,132.53738 L128.54143,133.06592 L129.2174,133.34006 L130.06895,133.57484 L131.13055,133.77333 L132.42516,133.9201 L133.94963,133.99232 L135.669,133.96468 L137.51785,133.81015 L139.40704,133.48535 L141.23438,132.53452 L139.40663,131.58449 L137.5173,131.26051 L135.6684,131.10677 L133.94899,131.07988 L132.42456,131.15276 L131.13002,131.3001 L130.06851,131.49904 L129.21706,131.73419 L128.5412,132.00862 L128.0201,132.53738" fill="rgb(100,100,100)"/>
<path d="M121.7699,132.43936 L125.19009,134.13142 L128.34552,134.44463 L131.31288,134.4117 L134.01201,134.13773 L136.36346,133.69023 L138.32553,133.13086 L139.911,132.51176 L141.18973,131.86238 L142.27888,131.16083 L143.27457,129.87991 L141.58322,129.00081 L140.18718,128.72955 L138.85297,128.52795 L137.41112,128.37262 L135.72101,128.29224 L133.6832,128.34004 L131.24655,128.58298 L128.407,129.10135 L125.19806,130.0251 L121.7699,132.43936" fill="rgb(100,100,100)"/>
<path d="M127.825226,124.40582 L128.68916,125.75301 L130.01239,126.464096 L131.73569,127.017426 L133.74986,127.39906 L135.90756,127.58512 L138.05098,127.56612 L140.03523,127.350266 L141.74706,126.95631 L143.11934,126.387245 L144.16107,125.15325 L141.94475,124.0001 L140.05466,123.65887 L138.50227,123.49903 L137.22153,123.423805 L136.09998,123.37968 L134.99295,123.340355 L133.74194,123.30814 L132.19777,123.31996 L130.24759,123.46936 L127.825226,124.40582" fill="rgb(100,100,100)"/>
<path d="M125.66022,127.78765 L126.4506,128.44205 L127.27555,128.67621 L128.23323,128.82036 L129.37297,128.87486 L130.72923,128.81123 L132.30704,128.59276 L134.07535,128.18398 L135.96684,127.55233 L137.87926,126.64531 L139.55565,124.78624 L137.38316,123.73237 L135.31343,123.64259 L133.30757,123.80915 L131.45303,124.14991 L129.82185,124.610435 L128.4573,125.14315 L127.370705,125.708626 L126.54679,126.282196 L125.959915,126.86819 L125.66022,127.78765" fill="rgb(100,100,100)"/>
<path d="M126.59745,119.912224 L126.94976,121.34501 L127.56765,122.15527 L128.38936,122.89431 L129.45065,123.57564 L130.7822,124.16379 L132.38959,124.6 L134.24525,124.81407 L136.28952,124.726265 L138.4438,124.21138 L140.77695,122.091354 L139.18805,119.368576 L137.2878,118.23058 L135.36421,117.533 L133.52992,117.179985 L131.8657,117.11341 L130.419,117.27459 L129.2021,117.605804 L128.19641,118.064 L127.36373,118.65134 L126.59745,119.912224" fill="rgb(100,100,100)"/>
<path d="M125.99174,117.05799 L126.444244,118.46789 L127.14382,119.24948 L128.05548,119.95267 L129.21788,120.58954 L130.66153,121.12369 L132.38914,121.49656 L134.36755,121.63944 L136.52917,121.4754 L138.78375,120.883026 L141.13919,118.68961 L139.30482,116.044914 L137.2281,114.986015 L135.151,114.365425 L133.18758,114.08373 L131.42023,114.080154 L129.896,114.29461 L128.62468,114.669304 L127.58418,115.162186 L126.734184,115.77683 L125.99174,117.05799" fill="rgb(100,100,100)"/>
<path d="M127.08972,111.15082 L127.55023,111.944664 L128.03874,112.31582 L128.62915,112.60328 L129.3414,112.806816 L130.18256,112.89871 L131.14163,112.843025 L132.1878,112.6041 L133.27173,112.147354 L134.3257,111.414986 L135.15569,109.69166 L133.75589,108.37905 L132.50557,108.07558 L131.33455,108.039 L130.28333,108.18878 L129.38205,108.4736 L128.64238,108.849045 L128.0572,109.27884 L127.60592,109.742226 L127.26697,110.249916 L127.08972,111.15082" fill="rgb(100,100,100)"/>
<path d="M124.79553,105.62277 L125.62129,107.49352 L126.4715,108.355225 L127.475235,108.91798 L128.57507,109.17371 L129.69106,109.10638 L130.74164,108.7239 L131.65604,108.05964 L132.38118,107.158875 L132.88002,106.035904 L132.98033,103.92235 L131.47418,102.51083 L130.4083,102.317024 L129.57416,102.35452 L128.91045,102.48271 L128.34653,102.634705 L127.80358,102.790276 L127.20408,102.9754 L126.48557,103.26798 L125.622055,103.82586 L124.79553,105.62277" fill="rgb(100,100,100)"/>
<path d="M126.806755,151.18263 L127.02331,146.18263 L127.26007,141.18263 L127.52218,136.18263 L127.80272,131.18263 L128.087,126.182625 L128.3563,121.182625 L128.591,116.182625 L128.77316,111.182625 L128.88857,106.182625" fill="transparent" stroke="rgb(100,100,100)" stroke-width="1"/>
<path d="M129.80675,151.18263 L129.80675,146.18263 L129.80675,141.18263 L129.80675,136.18263 L129.80675,131.18263 L129.80675,126.182625 L129.80675,121.182625 L129.80675,116.182625 L129.80675,111.182625 L129.80675,106.182625" fill="transparent" stroke="rgb(100,100,100)" stroke-width="1"/>
<path d="M130.64897,146.27675 L131.7757,147.3641 L133.21568,147.9072 L135.0242,148.35825 L137.27406,148.72191 L140.01283,148.96451 L143.23267,149.03801 L146.85843,148.89091 L150.75064,148.4696 L154.71902,147.68729 L158.52446,145.58846 L154.61954,143.68008 L150.61713,143.09471 L146.70894,142.86613 L143.08061,142.89825 L139.86877,143.1306 L137.14578,143.50803 L134.91695,143.9822 L133.13297,144.52182 L131.72128,145.13518 L130.64897,146.27675" fill="rgb(100,100,100)"/>
<path d="M137.8659,145.12016 L138.6089,146.3505 L139.33995,146.82458 L139.97433,147.16489 L140.56757,147.46521 L141.20065,147.7592 L141.9552,148.03908 L142.89717,148.26259 L144.06778,148.3553 L145.48398,148.18701 L147.27327,146.83797 L146.76175,144.81445 L145.84927,143.80377 L144.7295,143.05405 L143.48164,142.55685 L142.19275,142.32613 L140.95416,142.36243 L139.8526,142.64584 L138.95998,143.14096 L138.3212,143.82062 L137.8659,145.12016" fill="rgb(100,100,100)"/>
<path d="M142.96512,141.13704 L143.36546,141.6493 L143.89212,141.91232 L144.56436,142.13406 L145.40666,142.31593 L146.43333,142.44194 L147.63794,142.48973 L148.98941,142.43553 L150.43353,142.25465 L151.89835,141.90706 L153.29565,140.95038 L151.83563,140.05031 L150.34665,139.76422 L148.90013,139.64384 L147.56339,139.64447 L146.38448,139.73802 L145.38702,139.89896 L144.56944,140.1051 L143.91016,140.34244 L143.37984,140.61565 L142.96512,141.13704" fill="rgb(100,100,100)"/>
<path d="M140.9095,139.9635 L142.08977,141.02498 L143.77206,141.49698 L145.93259,141.79308 L148.43654,141.91222 L151.10107,141.84883 L153.7315,141.61086 L156.1502,141.22003 L158.21889,140.70401 L159.85382,140.07216 L161.01425,138.90234 L158.16951,138.14223 L155.80663,138.04665 L153.87735,138.07239 L152.29248,138.14304 L150.90974,138.22404 L149.54959,138.30754 L148.01784,138.41159 L146.13464,138.58301 L143.77046,138.9133 L140.9095,139.9635" fill="rgb(100,100,100)"/>
<path d="M154.6817,133.47504 L155.11996,134.42441 L155.77986,134.9752 L156.63582,135.48616 L157.7239,135.96733 L159.07205,136.3965 L160.682,136.7354 L162.52211,136.93718 L164.5286,136.9477 L166.61609,136.68236 L168.77713,135.37251 L167.03938,133.53784 L165.09637,132.72993 L163.15854,132.20947 L161.33058,131.91747 L159.68831,131.81857 L158.27467,131.87596 L157.09808,132.05226 L156.13748,132.31868 L155.35541,132.67537 L154.6817,133.47504" fill="rgb(100,100,100)"/>
<path d="M142.62158,136.24187 L142.93224,136.76619 L143.57501,137.08902 L144.55061,137.38786 L145.85648,137.65384 L147.46416,137.86551 L149.31381,137.9989 L151.31625,138.03166 L153.3612,137.94312 L155.33006,137.70053 L157.12636,136.90839 L154.9413,135.98534 L152.79578,135.63904 L150.81232,135.4522 L149.06313,135.37822 L147.57808,135.38649 L146.34282,135.45032 L145.304,135.54869 L144.38367,135.67168 L143.50473,135.83133 L142.62158,136.24187" fill="rgb(100,100,100)"/>
<path d="M138.28905,129.26535 L139.22247,131.27164 L140.81956,132.40512 L142.95538,133.3464 L145.49248,134.06508 L148.24481,134.51334 L151.01027,134.66331 L153.60014,134.51376 L155.86401,134.08144 L157.71147,133.36403 L159.20224,131.64474 L156.45482,129.78001 L154.03767,129.12976 L152.03732,128.77397 L150.38289,128.56635 L148.93816,128.41931 L147.5213,128.2819 L145.92836,128.14331 L143.96252,128.04373 L141.46736,128.10826 L138.28905,129.26535" fill="rgb(100,100,100)"/>
<path d="M152.15369,129.68106 L153.23311,131.01067 L154.26604,131.52208 L155.11285,131.82947 L155.81113,132.0411 L156.43394,132.21959 L157.06868,132.39691 L157.80254,132.57571 L158.71194,132.72714 L159.85909,132.7731 L161.4094,132.12163 L161.16544,130.7663 L160.55475,129.97026 L159.7079,129.2737 L158.66238,128.69225 L157.47673,128.26485 L156.2296,128.02654 L155.01129,127.99825 L153.90997,128.1854 L152.98982,128.59525 L152.15369,129.68106" fill="rgb(100,100,100)"/>
<path d="M140.52057,123.12598 L142.20213,124.77178 L143.72124,125.37035 L144.95343,125.71751 L145.96451,125.9501 L146.86511,126.14437 L147.78241,126.33648 L148.83987,126.52496 L150.14197,126.6685 L151.76732,126.66345 L153.87947,125.74101 L153.37465,124.015564 L152.4181,123.02823 L151.13986,122.18172 L149.59468,121.49397 L147.86983,121.01174 L146.08052,120.77556 L144.35678,120.80724 L142.82373,121.108826 L141.57286,121.68607 L140.52057,123.12598" fill="rgb(100,100,100)"/>
<path d="M140.19185,117.44414 L140.68816,118.853645 L141.71222,119.7479 L143.1226,120.56438 L144.82605,121.2707 L146.69727,121.81857 L148.59848,122.1714 L150.39952,122.311356 L151.99565,122.23597 L153.32547,121.93585 L154.48817,120.94802 L152.73901,119.47402 L151.1233,118.82512 L149.77243,118.406906 L148.64786,118.1168 L147.66139,117.884834 L146.69072,117.660995 L145.59541,117.41968 L144.23622,117.169464 L142.49525,116.97845 L140.19185,117.44414" fill="rgb(100,100,100)"/>
<path d="M144.56071,116.35544 L145.85008,117.434715 L146.82533,117.638596 L147.60576,117.70931 L148.2744,117.74591 L148.92412,117.77481 L149.64117,117.77751 L150.49187,117.70109 L151.51291,117.462326 L152.70293,116.92545 L153.93016,115.181305 L152.9877,113.41228 L151.953,112.66741 L150.76898,112.209946 L149.4958,112.02529 L148.21523,112.11793 L147.01692,112.47652 L145.98688,113.06738 L145.19649,113.84097 L144.694,114.76177 L144.56071,116.35544" fill="rgb(100,100,100)"/>
<path d="M144.16812,110.27085 L145.8069,111.2941 L147.36008,111.60132 L148.79787,111.713455 L150.06277,111.683044 L151.10246,111.547066 L151.89081,111.34388 L152.4898,111.14313 L153.18343,111.01574 L153.8771,110.81323 L154.57101,110.278336 L153.87787,109.74244 L153.1845,109.53893 L152.49106,109.410545 L151.79758,109.337074 L151.1041,109.286446 L150.26144,109.133865 L149.14168,109.04868 L147.74193,109.08013 L146.079,109.30239 L144.16812,110.27085" fill="rgb(100,100,100)"/>
<path d="M146.37737,155.0994 L146.59392,150.0994 L146.83067,145.0994 L147.09279,140.0994 L147.37332,135.0994 L147.65761,130.0994 L147.92691,125.099396 L148.1616,120.099396 L148.34377,115.099396 L148.45917,110.099396" fill="transparent" stroke="rgb(100,100,100)" stroke-width="1"/>
<path d="M149.37737,155.0994 L149.37737,150.0994 L149.37737,145.0994 L149.37737,140.0994 L149.37737,135.0994 L149.37737,130.0994 L149.37737,125.099396 L149.37737,120.099396 L149.37737,115.099396 L149.37737,110.099396" fill="transparent" stroke="rgb(100,100,100)" stroke-width="1"/>
<path d="M165.64609,142.9955 L166.1876,144.32709 L167.45322,145.0695 L169.4391,145.65727 L172.05255,146.05754 L175.13689,146.22563 L178.48885,146.13004 L181.88058,145.75888 L185.08432,145.11415 L187.8968,144.17593 L190.13757,142.14807 L186.1658,140.57938 L182.6098,140.26205 L179.55086,140.24135 L177.0149,140.38335 L174.9425,140.60742 L173.19597,140.86192 L171.58058,141.12761 L169.88188,141.42648 L167.92111,141.84302 L165.64609,142.9955" fill="rgb(100,100,100)"/>
<path d="M155.93726,142.95418 L158.1831,144.43839 L160.26949,144.8873 L162.17062,145.07214 L163.8496,145.0757 L165.28175,144.94806 L166.47023,144.73224 L167.45198,144.46336 L168.29639,144.16031 L169.09816,143.8058 L169.96747,143.01875 L169.10545,142.22375 L168.30698,141.86188 L167.46538,141.55106 L166.48615,141.27315 L165.29971,141.0464 L163.86879,140.90558 L162.18987,140.89368 L160.2871,141.06102 L158.19667,141.4907 L155.93726,142.95418" fill="rgb(100,100,100)"/>
<path d="M150.14941,134.97514 L152.7638,136.36992 L154.99403,136.98987 L156.7829,137.3937 L158.24486,137.68849 L159.54866,137.94287 L160.88013,138.19844 L162.41357,138.46898 L164.28992,138.73694 L166.60358,138.93643 L169.47055,138.52867 L168.49059,137.2106 L166.9781,136.3738 L165.03079,135.60028 L162.73074,134.90996 L160.20993,134.34743 L157.63858,133.95613 L155.20447,133.76761 L153.08505,133.7984 L151.4104,134.06348 L150.14941,134.97514" fill="rgb(100,100,100)"/>
<path d="M155.00151,138.94785 L156.17256,140.05269 L157.43785,140.46298 L158.96373,140.70496 L160.80798,140.77242 L162.99837,140.61781 L165.51576,140.18558 L168.28786,139.42685 L171.19183,138.30069 L174.05646,136.73502 L176.43538,133.63774 L172.88568,132.00925 L169.62146,131.96196 L166.5276,132.32172 L163.72191,132.94485 L161.2939,133.73781 L159.28467,134.62363 L157.6852,135.54425 L156.44875,136.47058 L155.52135,137.4241 L155.00151,138.94785" fill="rgb(100,100,100)"/>
<path d="M150.39626,131.39256 L153.10478,132.67464 L155.38118,133.15768 L157.20108,133.44434 L158.6844,133.63982 L160.00313,133.80411 L161.34523,133.96707 L162.88606,134.12988 L164.76637,134.26305 L167.07811,134.28923 L169.90648,133.62706 L168.85707,132.30618 L167.30655,131.53801 L165.32529,130.87094 L162.99467,130.31963 L160.44785,129.9212 L157.8565,129.70863 L155.40987,129.70088 L153.28636,129.90181 L151.61725,130.31747 L150.39626,131.39256" fill="rgb(100,100,100)"/>
<path d="M167.48247,132.61595 L167.96414,133.75839 L168.85017,134.36383 L170.1886,134.82712 L171.95825,135.12396 L174.09773,135.21161 L176.50548,135.05258 L179.04674,134.62303 L181.56593,133.90967 L183.9,132.87517 L185.81296,130.66486 L182.74417,129.1361 L179.94423,128.89624 L177.43616,128.97034 L175.28436,129.23119 L173.50044,129.6001 L172.03925,130.02098 L170.80821,130.46318 L169.68977,130.92998 L168.57956,131.47682 L167.48247,132.61595" fill="rgb(100,100,100)"/>
<path d="M155.78221,131.14897 L158.4169,131.58293 L160.45,131.37886 L162.04503,131.12048 L163.33342,130.87338 L164.47598,130.64462 L165.63748,130.40775 L166.96356,130.11253 L168.56184,129.68962 L170.4849,129.03807 L172.62607,127.57673 L171.35397,126.62005 L169.83528,126.338875 L167.99059,126.2805 L165.89178,126.43513 L163.66046,126.799324 L161.44896,127.354355 L159.41977,128.06302 L157.72188,128.87677 L156.46591,129.76299 L155.78221,131.14897" fill="rgb(100,100,100)"/>
<path d="M154.61394,126.123634 L155.28763,127.27269 L156.23837,127.924164 L157.45686,128.51941 L158.9936,129.06938 L160.88551,129.54579 L163.13228,129.90163 L165.68678,130.0805 L168.45709,130.01836 L171.31921,129.61455 L174.20721,127.925766 L171.67572,125.73851 L168.93527,124.819405 L166.2228,124.25295 L163.6785,123.96287 L161.40454,123.90289 L159.45746,124.02621 L157.84619,124.286644 L156.53957,124.649635 L155.48592,125.11675 L154.61394,126.123634" fill="rgb(100,100,100)"/>
<path d="M155.73735,124.775375 L156.24533,125.16357 L156.80641,125.28826 L157.487,125.34352 L158.31311,125.32566 L159.29791,125.216156 L160.43373,124.99453 L161.68887,124.64412 L163.0089,124.152374 L164.31815,123.49622 L165.43346,122.27527 L163.86682,121.74584 L162.40353,121.80458 L161.0103,122.01244 L159.74222,122.312645 L158.64085,122.66787 L157.72588,123.04821 L156.99413,123.432045 L156.42511,123.80951 L155.99428,124.189964 L155.73735,124.775375" fill="rgb(100,100,100)"/>
<path d="M166.29152,118.07716 L166.94821,118.67405 L167.78264,118.871864 L168.82457,118.93122 L170.0107,118.85928 L171.2547,118.66323 L172.46597,118.35941 L173.5632,117.971886 L174.48405,117.52609 L175.18994,117.03287 L175.61963,116.22928 L174.20816,115.91883 L173.08858,115.99786 L172.18463,116.12775 L171.44713,116.26567 L170.806,116.39822 L170.1763,116.5309 L169.46864,116.6864 L168.60321,116.90464 L167.52817,117.25064 L166.29152,118.07716" fill="rgb(100,100,100)"/>
<path d="M162.1046,114.02724 L163.24252,115.8619 L164.4562,116.623604 L165.89397,117.049355 L167.4729,117.143486 L169.07892,116.904564 L170.59589,116.35578 L171.92351,115.54421 L172.98778,114.52559 L173.74084,113.32061 L173.9907,111.17793 L171.94775,109.95715 L170.462,109.89945 L169.28981,110.03788 L168.34666,110.24026 L167.53203,110.45159 L166.73293,110.66617 L165.83755,110.9252 L164.7542,111.320564 L163.43947,112.02139 L162.1046,114.02724" fill="rgb(100,100,100)"/>
<path d="M163.53978,108.08568 L164.01833,108.83222 L164.54826,109.174675 L165.21028,109.42459 L166.01953,109.5768 L166.9752,109.603325 L168.05647,109.471886 L169.2218,109.15382 L170.4113,108.62403 L171.5473,107.837296 L172.41054,106.13016 L170.82626,104.99119 L169.43573,104.80837 L168.15309,104.87131 L167.01764,105.09654 L166.05545,105.431046 L165.27106,105.831696 L164.64807,106.26671 L164.1565,106.72212 L163.76802,107.21575 L163.53978,108.08568" fill="rgb(100,100,100)"/>
<path d="M163.164,153.15434 L163.38055,148.15434 L163.61731,143.15434 L163.87943,138.15434 L164.15996,133.15434 L164.44424,128.15434 L164.71355,123.15434 L164.94824,118.15434 L165.1304,113.15434 L165.2458,108.15434" fill="transparent" stroke="rgb(100,100,100)" stroke-width="1"/>
<path d="M166.164,153.15434 L166.164,148.15434 L166.164,143.15434 L166.164,138.15434 L166.164,133.15434 L166.164,128.15434 L166.164,123.15434 L166.164,118.15434 L166.164,113.15434 L166.164,108.15434" fill="transparent" stroke="rgb(100,100,100)" stroke-width="1"/>
<path d="M175.94846,146.74216 L176.17789,148.07591 L176.52872,148.77995 L176.98502,149.39116 L177.56609,149.91823 L178.28705,150.32341 L179.14908,150.54959 L180.13548,150.53267 L181.21233,150.20323 L182.33434,149.45045 L183.50218,147.13472 L182.58067,144.7104 L181.54274,143.84537 L180.50583,143.40608 L179.5265,143.28702 L178.64568,143.42262 L177.8866,143.75087 L177.25403,144.21487 L176.73683,144.7755 L176.31491,145.43938 L175.94846,146.74216" fill="rgb(100,100,100)"/>
<path d="M183.07149,147.93195 L185.99994,148.63065 L188.62059,148.4705 L191.02022,148.10367 L193.10936,147.61502 L194.80098,147.07033 L196.0519,146.52922 L196.9656,146.05763 L198.07,145.65366 L199.15433,145.15665 L200.14986,144.24797 L198.86827,143.8305 L197.67548,143.82468 L196.50275,143.9119 L195.3447,144.06712 L194.19977,144.28316 L192.82982,144.40129 L190.99895,144.6741 L188.71242,145.19342 L186.01212,146.05005 L183.07149,147.93195" fill="rgb(100,100,100)"/>
<path d="M169.03911,140.06865 L170.29901,141.80804 L172.26793,142.92036 L174.77644,143.93452 L177.66222,144.81506 L180.71432,145.50688 L183.71227,145.96913 L186.46004,146.18391 L188.81331,146.15234 L190.70166,145.87024 L192.23502,144.85493 L189.3914,143.18324 L186.90944,142.40414 L184.86623,141.87704 L183.15779,141.48363 L181.61491,141.1423 L180.02748,140.79521 L178.17055,140.41325 L175.83434,140.00694 L172.85487,139.65605 L169.03911,140.06865" fill="rgb(100,100,100)"/>
<path d="M177.4342,140.7095 L177.65248,141.97801 L178.1235,142.71524 L178.83926,143.36441 L179.80049,143.90572 L180.98993,144.28947 L182.36682,144.4615 L183.868,144.3733 L185.41348,143.98154 L186.91678,143.21317 L188.32597,141.09001 L186.73933,138.98218 L185.1449,138.30237 L183.65746,138.00478 L182.33548,137.9693 L181.2055,138.11859 L180.26114,138.38815 L179.46645,138.7301 L178.76614,139.12523 L178.10364,139.6079 L177.4342,140.7095" fill="rgb(100,100,100)"/>
<path d="M186.09712,135.75368 L186.5393,136.27754 L187.34572,136.53705 L188.5416,136.72447 L190.12326,136.8306 L192.05487,136.8362 L194.26297,136.72357 L196.63951,136.48082 L199.0514,136.10074 L201.35387,135.56421 L203.37862,134.45604 L200.66566,133.75987 L198.0763,133.68292 L195.6991,133.75627 L193.61372,133.91953 L191.85207,134.13538 L190.39424,134.37688 L189.1749,134.62863 L188.101,134.89056 L187.08333,135.18625 L186.09712,135.75368" fill="rgb(100,100,100)"/>
<path d="M177.79231,137.2405 L178.86505,138.8763 L180.44409,139.68991 L182.48807,140.28244 L184.86859,140.64221 L187.41174,140.74742 L189.93144,140.59508 L192.25719,140.20364 L194.2555,139.60313 L195.84564,138.80098 L197.00749,137.17702 L194.32732,135.85532 L192.07608,135.54082 L190.23302,135.436 L188.71698,135.42256 L187.39421,135.4394 L186.094,135.4616 L184.63036,135.50096 L182.82959,135.61244 L180.5638,135.91992 L177.79231,137.2405" fill="rgb(100,100,100)"/>
<path d="M171.42986,131.59879 L172.36844,133.17479 L173.80777,134.05829 L175.63344,134.78755 L177.72778,135.34518 L179.93793,135.69965 L182.10437,135.83446 L184.08589,135.75299 L185.77882,135.47185 L187.13289,134.99454 L188.22049,133.83627 L186.1487,132.49864 L184.35118,131.99774 L182.8733,131.69716 L181.63792,131.49187 L180.52156,131.31982 L179.3718,131.14667 L178.02614,130.96791 L176.33374,130.8163 L174.17781,130.78772 L171.42986,131.59879" fill="rgb(100,100,100)"/>
<path d="M174.32031,132.41306 L176.1476,133.46695 L177.58781,133.63524 L178.72458,133.6526 L179.64986,133.62395 L180.47963,133.58871 L181.33351,133.54616 L182.3174,133.46272 L183.50961,133.27408 L184.94978,132.86644 L186.58986,131.49887 L185.71182,130.05139 L184.61577,129.39395 L183.27475,128.94783 L181.74481,128.71425 L180.11627,128.71207 L178.50104,128.94743 L177.01799,129.40594 L175.77585,130.0567 L174.8543,130.88026 L174.32031,132.41306" fill="rgb(100,100,100)"/>
<path d="M186.70724,126.38225 L188.31805,128.30852 L189.89226,128.96071 L191.34547,129.28076 L192.64221,129.36812 L193.75926,129.28282 L194.69545,129.07762 L195.47636,128.79732 L196.15404,128.46841 L196.80309,128.07448 L197.54048,127.154884 L196.94106,126.13995 L196.35449,125.65789 L195.73035,125.236145 L194.99712,124.84785 L194.09953,124.51186 L193.00589,124.2689 L191.70988,124.17133 L190.22595,124.28191 L188.57512,124.70409 L186.70724,126.38225" fill="rgb(100,100,100)"/>
<path d="M188.25916,122.18044 L188.4095,123.54553 L188.82765,124.330894 L189.41444,125.05546 L190.19711,125.73316 L191.2033,126.33145 L192.44276,126.795 L193.89993,127.05658 L195.53459,127.03895 L197.29552,126.62129 L199.34444,124.692665 L198.32715,122.06915 L196.91833,120.93314 L195.45099,120.21252 L194.0234,119.820335 L192.7052,119.70425 L191.5394,119.8103 L190.54102,120.08437 L189.69919,120.485176 L188.9833,121.013535 L188.25916,122.18044" fill="rgb(100,100,100)"/>
<path d="M181.70479,118.81677 L184.15717,120.16997 L186.19466,120.29922 L187.99323,120.145035 L189.54025,119.81519 L190.82603,119.37534 L191.8646,118.87704 L192.69905,118.35553 L193.3982,117.8199 L194.04474,117.23035 L194.64151,116.102745 L193.64188,115.31005 L192.81291,115.03005 L191.95744,114.820564 L190.98375,114.67839 L189.83249,114.639496 L188.47835,114.75349 L186.92918,115.0732 L185.2203,115.654854 L183.40654,116.592064 L181.70479,118.81677" fill="rgb(100,100,100)"/>
<path d="M185.49768,111.68262 L187.144,112.94324 L188.31256,113.07626 L189.21077,113.027504 L189.92906,112.9283 L190.56421,112.825325 L191.20908,112.7139 L191.94064,112.54812 L192.8097,112.24371 L193.82837,111.65513 L194.82352,109.853165 L193.88745,108.08037 L192.93262,107.305374 L191.82631,106.80521 L190.60939,106.58054 L189.3534,106.65303 L188.1452,107.027245 L187.07431,107.681274 L186.21997,108.57254 L185.64172,109.67477 L185.49768,111.68262" fill="rgb(100,100,100)"/>
<path d="M186.19215,156.5204 L186.40872,151.5204 L186.64548,146.5204 L186.9076,141.5204 L187.18813,136.5204 L187.47241,131.5204 L187.74171,126.5204 L187.97641,121.5204 L188.15857,116.5204 L188.27397,111.5204" fill="transparent" stroke="rgb(100,100,100)" stroke-width="1"/>
<path d="M189.19215,156.5204 L189.19215,151.5204 L189.19215,146.5204 L189.19215,141.5204 L189.19215,136.5204 L189.19215,131.5204 L189.19215,126.5204 L189.19215,121.5204 L189.19215,116.5204 L189.19215,111.5204" fill="transparent" stroke="rgb(100,100,100)" stroke-width="1"/>
</svg>